<?xml version="1.0" standalone="no"?>
<!DOCTYPE svg PUBLIC "-//W3C//DTD SVG 1.1//EN" "http://www.w3.org/Graphics/SVG/1.1/DTD/svg11.dtd" >
<svg>
<metadata>
Created by FontForge 20110222 at Wed Oct 16 05:00:22 2013
 By Orthosie Webhosting
(C)2007 House Industries/Brand Design Co., Inc. All Rights Reserved.
</metadata>
<defs>
<font id="Neutraface2TextDemiItalic" horiz-adv-x="500" >
  <font-face 
    font-family="Neutraface2TextDemiItalic"
    font-weight="600"
    font-style="italic"
    font-stretch="normal"
    units-per-em="1000"
    panose-1="2 11 7 3 2 2 2 9 1 2"
    ascent="780"
    descent="-220"
    x-height="420"
    cap-height="680"
    bbox="-128 -269 1240 972"
    underline-thickness="20"
    underline-position="-113"
    slope="-10"
    unicode-range="U+0020-FB04"
  />
<missing-glyph horiz-adv-x="219" 
 />
    <glyph glyph-name="ff" unicode="ff" horiz-adv-x="597" 
d="M383 337h-161l-76 -434q-12 -71 -41.5 -93t-92.5 -22h-55l15 77h35q17 0 27 9t15 36l75 427h-68l15 83h68l27 154q25 141 144 141q61 0 96 -38l-53 -67q-16 16 -39 16q-40 0 -50 -55l-27 -151h161l30 173q25 142 147 142q73 0 115 -54l-64 -59q-19 24 -47 24
q-43 0 -53 -57l-30 -169h109l-15 -83h-109l-72 -411q-13 -71 -42 -93t-92 -22h-50l14 77h30q17 0 27.5 9.5t15.5 35.5z" />
    <glyph glyph-name="fi" unicode="fi" horiz-adv-x="538" 
d="M476 518q-26 0 -44.5 17.5t-18.5 45.5q0 26 18.5 43.5t43.5 17.5t43.5 -17.5t18.5 -43.5q0 -28 -18 -45.5t-43 -17.5zM222 337l-76 -434q-12 -71 -41.5 -93t-92.5 -22h-55l15 77h35q17 0 27 9t15 36l75 427h-68l15 83h68l30 174q25 141 145 141q66 0 107 -47l-63 -61
q-16 19 -40 19q-41 0 -51 -56l-30 -170h259l-55 -315q-6 -29 18 -29h36l-13 -76h-50q-59 0 -79.5 23.5t-10.5 83.5l40 230h-160z" />
    <glyph glyph-name="fl" unicode="fl" horiz-adv-x="535" 
d="M432 0q-60 0 -80.5 23.5t-9.5 83.5l108 615h99l-109 -617q-4 -29 19 -29h42l-13 -76h-56zM124 337h-68l15 83h68l30 173q25 142 140 142q61 0 95 -37l-48 -68q-16 16 -39 16q-40 0 -50 -56l-30 -170h94l-14 -83h-95l-76 -434q-12 -71 -41.5 -93t-92.5 -22h-55l15 77h35
q17 0 27 9t15 36z" />
    <glyph glyph-name="ffi" unicode="ffi" horiz-adv-x="797" 
d="M734 518q-26 0 -44 17.5t-18 45.5q0 27 18 44t44 17q25 0 43.5 -17.5t18.5 -43.5q0 -28 -18 -45.5t-44 -17.5zM481 337l-72 -411q-13 -71 -42 -93t-92 -22h-50l14 77h30q17 0 27 9.5t15 35.5l71 404h-160l-76 -434q-12 -71 -41.5 -93t-92.5 -22h-55l15 77h35q17 0 27 9
t15 36l75 427h-68l15 83h68l27 154q25 141 144 141q61 0 96 -38l-53 -67q-16 16 -39 16q-40 0 -50 -55l-27 -151h160l31 174q25 141 145 141q66 0 107 -47l-63 -61q-16 19 -40 19q-41 0 -51 -56l-30 -170h259l-56 -315q-4 -29 19 -29h36l-14 -76h-49q-60 0 -80.5 23.5
t-9.5 83.5l40 230h-160z" />
    <glyph glyph-name="ffl" unicode="ffl" horiz-adv-x="794" 
d="M691 0q-59 0 -80 23.5t-11 83.5l109 615h99l-109 -617q-4 -29 19 -29h41l-13 -76h-55zM382 337h-159l-76 -434q-13 -71 -42.5 -93t-92.5 -22h-55l15 77h35q17 0 27 9t15 36l75 427h-68l15 83h68l27 154q25 141 144 141q61 0 96 -38l-53 -67q-16 16 -39 16q-40 0 -50 -55
l-26 -151h159l31 173q25 142 140 142q61 0 95 -37l-48 -68q-16 16 -39 16q-40 0 -50 -56l-30 -170h94l-14 -83h-95l-72 -411q-12 -71 -41.5 -93t-92.5 -22h-50l14 77h30q17 0 27 9.5t15 35.5z" />
    <glyph glyph-name="f_b" unicode="fb" horiz-adv-x="831" 
d="M591 -9q-54 0 -95 28t-60 79l-13 -98h-99l126 722h99l-65 -371q52 78 137 78q76 0 125 -56t49 -146q0 -103 -59.5 -169.5t-144.5 -66.5zM124 337h-68l15 83h68l30 173q25 142 140 142q61 0 95 -37l-48 -68q-16 16 -39 16q-40 0 -50 -56l-30 -170h94l-14 -83h-95l-76 -434
q-12 -71 -41.5 -93t-92.5 -22h-55l15 77h35q17 0 27 9t15 36zM566 77q57 0 91.5 41t34.5 106q0 54 -28.5 86t-77.5 32q-56 0 -92 -40t-36 -103q0 -54 29 -88t79 -34z" />
    <glyph glyph-name="f_f_b" unicode="ffb" horiz-adv-x="1090" 
d="M849 -9q-54 0 -95 28t-60 79l-13 -98h-99l126 722h99l-65 -371q52 78 137 78q76 0 125 -56t49 -146q0 -103 -59.5 -169.5t-144.5 -66.5zM124 337h-68l15 83h68l27 154q25 141 144 141q61 0 96 -38l-53 -67q-16 16 -39 16q-40 0 -50 -55l-26 -151h159l31 173
q25 142 140 142q61 0 95 -37l-48 -68q-16 16 -39 16q-40 0 -50 -56l-30 -170h94l-14 -83h-95l-72 -411q-12 -71 -41.5 -93t-92.5 -22h-50l14 77h30q17 0 27 9.5t15 35.5l71 404h-159l-76 -434q-13 -71 -42.5 -93t-92.5 -22h-55l15 77h35q17 0 27 9t15 36zM824 77
q57 0 91.5 41t34.5 106q0 54 -28.5 86t-77.5 32q-56 0 -92 -40t-36 -103q0 -54 29 -88t79 -34z" />
    <glyph glyph-name="f_f_f" unicode="fff" horiz-adv-x="856" 
d="M641 337h-160l-75 -424q-12 -71 -41.5 -93t-92.5 -22h-55l15 77h35q17 0 27 9t15 36l73 417h-160l-76 -434q-12 -71 -41.5 -93t-92.5 -22h-55l15 77h35q17 0 27 9t15 36l75 427h-68l15 83h68l27 154q25 141 144 141q61 0 96 -38l-53 -67q-16 16 -39 16q-40 0 -50 -55
l-27 -151h160l29 164q25 141 144 141q61 0 96 -38l-53 -67q-16 16 -39 16q-40 0 -50 -55l-29 -161h161l30 173q25 142 147 142q73 0 115 -54l-64 -59q-19 24 -47 24q-43 0 -53 -57l-30 -169h109l-15 -83h-109l-72 -411q-13 -71 -42 -93t-92 -22h-50l14 77h30q17 0 27.5 9.5
t15.5 35.5z" />
    <glyph glyph-name="f_f_f_i" unicode="fffi" horiz-adv-x="1054" 
d="M992 518q-26 0 -44 17.5t-18 45.5q0 27 18 44t44 17q25 0 43.5 -17.5t18.5 -43.5q0 -28 -18 -45.5t-44 -17.5zM739 337l-72 -411q-13 -71 -42 -93t-92 -22h-50l14 77h30q17 0 27 9.5t15 35.5l71 404h-159l-75 -424q-12 -71 -41.5 -93t-92.5 -22h-55l15 77h35q17 0 27 9
t15 36l73 417h-160l-76 -434q-12 -71 -41.5 -93t-92.5 -22h-55l15 77h35q17 0 27 9t15 36l75 427h-68l15 83h68l27 154q25 141 144 141q61 0 96 -38l-53 -67q-16 16 -39 16q-40 0 -50 -55l-27 -151h160l29 164q25 141 144 141q61 0 96 -38l-53 -67q-16 16 -39 16
q-40 0 -50 -55l-28 -161h159l31 174q26 141 145 141q66 0 107 -47l-63 -61q-16 19 -40 19q-41 0 -51 -56l-30 -170h259l-56 -315q-4 -29 19 -29h36l-14 -76h-49q-60 0 -80.5 23.5t-9.5 83.5l40 230h-160z" />
    <glyph glyph-name="f_f_f_l" unicode="fffl" horiz-adv-x="1053" 
d="M949 0q-59 0 -80 23.5t-11 83.5l109 615h99l-109 -617q-4 -29 19 -29h41l-13 -76h-55zM641 337h-160l-75 -424q-12 -71 -41.5 -93t-92.5 -22h-55l15 77h35q17 0 27 9t15 36l73 417h-160l-76 -434q-12 -71 -41.5 -93t-92.5 -22h-55l15 77h35q17 0 27 9t15 36l75 427h-68
l15 83h68l27 154q25 141 144 141q58 0 94 -39l-48 -71q-18 21 -42 21q-40 0 -50 -55l-27 -151h160l29 164q25 141 144 141q58 0 94 -39l-48 -71q-18 21 -42 21q-40 0 -50 -55l-29 -161h160l31 173q25 142 140 142q61 0 95 -37l-48 -68q-16 16 -39 16q-40 0 -50 -56l-30 -170
h94l-15 -83h-94l-72 -411q-13 -71 -42 -93t-92 -22h-50l14 77h30q17 0 27 9.5t15 35.5z" />
    <glyph glyph-name="f_f_h" unicode="ffh" horiz-adv-x="1069" 
d="M581 0l127 722h99l-66 -377q53 84 140 84q70 0 107 -53t22 -139l-24 -132q-4 -29 19 -29h34l-13 -76h-43q-57 0 -80.5 26.5t-13.5 83.5l21 122q9 52 -10 80t-63 28q-97 0 -116 -108l-41 -232h-99zM124 337h-68l15 83h68l27 154q25 141 144 141q61 0 96 -38l-53 -67
q-16 16 -39 16q-40 0 -50 -55l-26 -151h159l31 173q25 142 140 142q61 0 95 -37l-48 -68q-16 16 -39 16q-40 0 -50 -56l-30 -170h94l-14 -83h-95l-72 -411q-12 -71 -41.5 -93t-92.5 -22h-50l14 77h30q17 0 27 9.5t15 35.5l71 404h-159l-76 -434q-13 -71 -42.5 -93t-92.5 -22
h-55l15 77h35q17 0 27 9t15 36z" />
    <glyph glyph-name="f_f_iacute" unicode="ff&#xed;" horiz-adv-x="797" 
d="M674 502l89 190h120l-131 -190h-78zM481 337l-72 -411q-13 -71 -42 -93t-92 -22h-50l14 77h30q17 0 27 9.5t15 35.5l71 404h-160l-76 -434q-12 -71 -41.5 -93t-92.5 -22h-55l15 77h35q17 0 27 9t15 36l75 427h-68l15 83h68l27 154q25 141 144 141q61 0 96 -38l-53 -67
q-16 16 -39 16q-40 0 -50 -55l-27 -151h160l31 174q25 141 145 141q66 0 107 -47l-63 -61q-16 19 -40 19q-41 0 -51 -56l-30 -170h259l-56 -315q-4 -29 19 -29h36l-14 -76h-49q-60 0 -80.5 23.5t-9.5 83.5l40 230h-160z" />
    <glyph glyph-name="f_f_icircumflex" unicode="ff&#xee;" horiz-adv-x="797" 
d="M587 501l175 204h11l105 -204h-78l-50 90l-79 -90h-84zM481 337l-72 -411q-13 -71 -42 -93t-92 -22h-50l14 77h30q17 0 27 9.5t15 35.5l71 404h-160l-76 -434q-12 -71 -41.5 -93t-92.5 -22h-55l15 77h35q17 0 27 9t15 36l75 427h-68l15 83h68l27 154q25 141 144 141
q61 0 96 -38l-53 -67q-16 16 -39 16q-40 0 -50 -55l-27 -151h160l31 174q25 141 145 141q66 0 107 -47l-63 -61q-16 19 -40 19q-41 0 -51 -56l-30 -170h259l-56 -315q-4 -29 19 -29h36l-14 -76h-49q-60 0 -80.5 23.5t-9.5 83.5l40 230h-160z" />
    <glyph glyph-name="f_f_idieresis" unicode="ff&#xef;" horiz-adv-x="797" 
d="M823 523q-23 0 -40.5 16.5t-17.5 39.5t17.5 39.5t40.5 16.5t39.5 -16.5t16.5 -39.5t-16.5 -39.5t-39.5 -16.5zM673 523q-23 0 -39.5 16.5t-16.5 39.5t16.5 39.5t39.5 16.5t40.5 -16.5t17.5 -39.5t-17.5 -39.5t-40.5 -16.5zM481 337l-72 -411q-13 -71 -42 -93t-92 -22h-50
l14 77h30q17 0 27 9.5t15 35.5l71 404h-160l-76 -434q-12 -71 -41.5 -93t-92.5 -22h-55l15 77h35q17 0 27 9t15 36l75 427h-68l15 83h68l27 154q25 141 144 141q61 0 96 -38l-53 -67q-16 16 -39 16q-40 0 -50 -55l-27 -151h160l31 174q25 141 145 141q34 0 51.5 -9t36.5 -28
l-56 -67q-12 15 -28 15q-41 0 -51 -56l-30 -170h259l-56 -315q-4 -29 19 -29h36l-14 -76h-49q-60 0 -80.5 23.5t-9.5 83.5l40 230h-160z" />
    <glyph glyph-name="f_f_j" unicode="ffj" horiz-adv-x="797" 
d="M734 518q-26 0 -44 17.5t-18 45.5q0 27 18 44t44 17q25 0 43.5 -17.5t18.5 -43.5q0 -28 -18 -45.5t-44 -17.5zM481 337l-72 -411q-13 -71 -42 -93t-92 -22h-50l14 77h30q17 0 27 9.5t15 35.5l71 404h-160l-76 -434q-12 -71 -41.5 -93t-92.5 -22h-55l15 77h35q17 0 27 9
t15 36l75 427h-68l15 83h68l27 154q25 141 144 141q61 0 96 -38l-53 -67q-16 16 -39 16q-40 0 -50 -55l-27 -151h160l31 174q25 141 145 141q66 0 107 -47l-63 -61q-16 19 -40 19q-41 0 -51 -56l-30 -170h259l-90 -508q-23 -134 -132 -134q-63 0 -98 37l51 64q15 -17 37 -17
q35 0 42 47l76 428h-160z" />
    <glyph glyph-name="f_f_k" unicode="ffk" horiz-adv-x="1028" 
d="M845 243l20 -36l40 -72l20 -36q12 -23 34 -23h29l-13 -76h-38q-41 0 -61.5 14.5t-40.5 52.5l-66 119l-67 -59l-22 -127h-99l127 722h99l-74 -417q-7 -42 -19 -79l195 194h115zM223 337l-76 -434q-13 -71 -42.5 -93t-92.5 -22h-55l15 77h35q17 0 27 9t15 36l75 427h-68
l15 83h68l27 154q25 141 144 141q61 0 96 -38l-53 -67q-16 16 -39 16q-40 0 -50 -55l-26 -151h159l31 173q25 142 140 142q61 0 95 -37l-48 -68q-16 16 -39 16q-40 0 -50 -56l-30 -170h94l-14 -83h-95l-72 -411q-12 -71 -41.5 -93t-92.5 -22h-50l14 77h30q17 0 27 9.5
t15 35.5l71 404h-159z" />
    <glyph glyph-name="f_f_t" unicode="fft" horiz-adv-x="869" 
d="M-43 -212l15 77h35q17 0 27 9t15 36l75 427h-68l15 83h67l28 154q25 141 144 141q58 0 94 -39l-48 -71q-18 21 -42 21q-40 0 -50 -55l-27 -151h160l31 174q24 141 145 141q64 0 106 -48l-60 -63q-19 22 -42 22q-21 0 -33 -12.5t-18 -43.5l-30 -170h160l27 149h98
l-26 -149h107l-14 -83h-108l-34 -197q-12 -64 32 -64q25 0 52 19l35 -69q-45 -35 -102 -35q-63 0 -96.5 36.5t-18.5 116.5l33 193h-159l-73 -411q-13 -71 -42 -93t-92 -22h-50l14 77h30q17 0 27 9t15 36l72 404h-160l-77 -434q-12 -71 -41.5 -93t-92.5 -22h-55z" />
    <glyph glyph-name="f_h" unicode="fh" horiz-adv-x="811" 
d="M323 0l127 722h99l-67 -377q54 84 140 84q70 0 107 -53t22 -139l-23 -132q-6 -29 18 -29h35l-13 -76h-44q-114 0 -94 110l21 122q9 52 -10 80t-63 28q-96 0 -115 -108l-41 -232h-99zM124 337h-68l15 83h68l30 173q25 142 140 142q61 0 95 -37l-48 -68q-16 16 -39 16
q-40 0 -50 -56l-30 -170h94l-14 -83h-95l-76 -434q-12 -71 -41.5 -93t-92.5 -22h-55l15 77h35q17 0 27 9t15 36z" />
    <glyph glyph-name="f_iacute" unicode="f&#xed;" horiz-adv-x="538" 
d="M416 502l89 190h120l-132 -190h-77zM222 337l-76 -434q-12 -71 -41.5 -93t-92.5 -22h-55l15 77h35q17 0 27 9t15 36l75 427h-68l15 83h68l30 174q25 141 145 141q66 0 107 -47l-63 -61q-16 19 -40 19q-41 0 -51 -56l-30 -170h259l-55 -315q-6 -29 18 -29h36l-13 -76h-50
q-59 0 -79.5 23.5t-10.5 83.5l40 230h-160z" />
    <glyph glyph-name="f_icircumflex" unicode="f&#xee;" horiz-adv-x="538" 
d="M329 501l175 204h10l105 -204h-78l-49 90l-80 -90h-83zM222 337l-76 -434q-12 -71 -41.5 -93t-92.5 -22h-55l15 77h35q17 0 27 9t15 36l75 427h-68l15 83h68l30 174q25 141 145 141q66 0 107 -47l-63 -61q-16 19 -40 19q-41 0 -51 -56l-30 -170h259l-55 -315
q-6 -29 18 -29h36l-13 -76h-50q-59 0 -79.5 23.5t-10.5 83.5l40 230h-160z" />
    <glyph glyph-name="f_idieresis" unicode="f&#xef;" horiz-adv-x="538" 
d="M222 337l-76 -434q-12 -71 -41.5 -93t-92.5 -22h-55l15 77h35q17 0 27 9t15 36l75 427h-68l15 83h68l30 174q13 71 47 106t94 35q56 0 93 -39l-56 -65q-14 15 -33 15q-37 0 -47 -56l-30 -170h259l-55 -315q-6 -29 18 -29h36l-13 -76h-50q-59 0 -79.5 23.5t-10.5 83.5
l40 230h-160zM564 523q-23 0 -40.5 16.5t-17.5 39.5t17.5 39.5t40.5 16.5t39.5 -16.5t16.5 -39.5t-16.5 -39.5t-39.5 -16.5zM414 523q-23 0 -39.5 16.5t-16.5 39.5t16.5 39.5t39.5 16.5t40.5 -16.5t17.5 -39.5t-17.5 -39.5t-40.5 -16.5z" />
    <glyph glyph-name="f_j" unicode="fj" horiz-adv-x="538" 
d="M476 518q-26 0 -44.5 17.5t-18.5 45.5q0 26 18.5 43.5t43.5 17.5t43.5 -17.5t18.5 -43.5q0 -28 -18 -45.5t-43 -17.5zM222 337l-76 -434q-12 -71 -41.5 -93t-92.5 -22h-55l15 77h35q17 0 27 9t15 36l75 427h-68l15 83h68l30 174q25 141 145 141q66 0 107 -47l-63 -61
q-16 19 -40 19q-41 0 -51 -56l-30 -170h259l-89 -508q-24 -134 -132 -134q-64 0 -99 37l51 64q15 -17 37 -17q19 0 28.5 11t14.5 36l75 428h-160z" />
    <glyph glyph-name="f_k" unicode="fk" horiz-adv-x="770" 
d="M444 127l-22 -127h-99l127 722h99l-74 -417q-7 -42 -19 -79l195 194h115l-179 -177l20 -36l40 -72l20 -36q12 -23 34 -23h29l-13 -76h-38q-41 0 -61.5 14.5t-40.5 52.5l-66 119zM124 337h-68l15 83h68l30 173q25 142 140 142q61 0 95 -37l-48 -68q-16 16 -39 16
q-40 0 -50 -56l-30 -170h94l-14 -83h-95l-76 -434q-12 -71 -41.5 -93t-92.5 -22h-55l15 77h35q17 0 27 9t15 36z" />
    <glyph glyph-name="f_t" unicode="ft" horiz-adv-x="610" 
d="M-43 -212l15 77h35q17 0 27 9t15 36l75 427h-68l15 83h67l31 174q25 141 145 141q64 0 107 -48l-61 -63q-17 22 -42 22q-41 0 -51 -56l-30 -170h160l26 149h99l-27 -149h108l-14 -83h-108l-35 -197q-11 -64 33 -64q26 0 51 19l36 -69q-45 -35 -103 -35q-63 0 -96 36.5
t-19 116.5l35 193h-160l-77 -434q-12 -71 -41.5 -93t-92.5 -22h-55z" />
    <glyph glyph-name=".notdef" horiz-adv-x="219" 
 />
    <glyph glyph-name=".null" horiz-adv-x="0" 
 />
    <glyph glyph-name="nonmarkingreturn" horiz-adv-x="333" 
 />
    <glyph glyph-name="space" unicode=" " horiz-adv-x="219" 
 />
    <glyph glyph-name="exclam" unicode="!" horiz-adv-x="251" 
d="M84 210l70 470h112l-105 -470h-77zM100 -6q-27 0 -46.5 19t-19.5 48t19.5 48t46.5 19t46.5 -19t19.5 -48t-19.5 -48t-46.5 -19z" />
    <glyph glyph-name="quotedbl" unicode="&#x22;" horiz-adv-x="338" 
d="M250 452l28 228h107l-54 -228h-81zM92 452l29 228h106l-54 -228h-81z" />
    <glyph glyph-name="numbersign" unicode="#" horiz-adv-x="452" 
d="M147 435h-74l14 78h80l26 103h79l-26 -103h85l26 103h80l-26 -103h63l-14 -78h-69l-23 -93h75l-14 -78h-80l-26 -104h-80l26 104h-85l-26 -104h-79l26 104h-62l14 78h67zM311 435h-85l-23 -93h85z" />
    <glyph glyph-name="dollar" unicode="$" horiz-adv-x="451" 
d="M136 -116l20 112q-62 11 -102 44t-59 74l79 39q30 -63 95 -79l27 153l-10 4q-124 45 -124 149q0 66 49 103.5t127 37.5h9l18 101h55l-19 -108q82 -20 120 -86l-70 -47q-21 42 -64 56l-24 -135l14 -6q70 -27 103 -63t33 -91q0 -74 -55.5 -112t-146.5 -39h-2l-19 -107h-54z
M222 69q95 5 95 69q0 24 -15.5 40.5t-54.5 31.5zM213 319l21 127q-80 -2 -80 -60q0 -43 59 -67z" />
    <glyph glyph-name="percent" unicode="%" horiz-adv-x="826" 
d="M203 218q-64 0 -107 42t-43 104q0 68 47 112.5t112 44.5t107.5 -41t42.5 -103q0 -69 -47 -114t-112 -45zM169 0l410 513h97l-410 -513h-97zM632 -9q-64 0 -107 42.5t-43 104.5q0 68 47 112.5t112 44.5q64 0 107 -41t43 -103q0 -69 -47 -114.5t-112 -45.5zM204 292
q31 0 52.5 23t21.5 60q0 34 -18.5 53t-47.5 19q-31 0 -52.5 -22.5t-21.5 -59.5q0 -34 18.5 -53.5t47.5 -19.5zM633 66q31 0 52 23t21 60q0 34 -18 52.5t-47 18.5q-32 0 -53 -22.5t-21 -59.5q0 -33 18.5 -52.5t47.5 -19.5z" />
    <glyph glyph-name="ampersand" unicode="&#x26;" horiz-adv-x="664" 
d="M360 377l105 -166q36 66 48 154h92q-19 -141 -88 -236l6 -10q12 -20 22.5 -27t28.5 -7h44l-15 -85h-42q-42 0 -67.5 12.5t-47.5 42.5q-81 -64 -186 -64t-165 51t-60 133q0 77 49 129t145 94q-40 67 -40 135t47 111.5t123 43.5q66 0 107.5 -39.5t41.5 -100.5
q0 -102 -148 -171zM322 437q96 43 96 107q0 29 -16.5 46.5t-43.5 17.5q-31 0 -50.5 -20.5t-19.5 -53.5q0 -39 26 -84zM398 130l-131 207q-62 -30 -93 -67t-31 -88q0 -45 32 -73t84 -28q79 0 139 49z" />
    <glyph glyph-name="quotesingle" unicode="'" horiz-adv-x="180" 
d="M92 452l29 228h106l-54 -228h-81z" />
    <glyph glyph-name="parenleft" unicode="(" horiz-adv-x="306" 
d="M160 -134q-49 62 -81 150t-32 191q0 75 16.5 144.5t41 120.5t61 100t69 81.5t73.5 65.5l48 -55q-206 -190 -206 -457q0 -167 77 -299z" />
    <glyph glyph-name="parenright" unicode=")" horiz-adv-x="305" 
d="M30 -134l-50 54q206 192 206 459q0 167 -76 297l66 43q113 -146 113 -340q0 -94 -22.5 -176t-64 -145t-81.5 -106.5t-91 -85.5z" />
    <glyph glyph-name="asterisk" unicode="*" horiz-adv-x="406" 
d="M201 366l34 121l-97 -68l-35 79l117 29l-111 50l50 70l83 -85l-12 118h90l-35 -120l97 70l35 -80l-118 -28l111 -50l-50 -70l-82 83l12 -119h-89z" />
    <glyph glyph-name="plus" unicode="+" horiz-adv-x="387" 
d="M239 218l-21 -119h-87l21 119h-111l15 84h111l21 119h87l-21 -119h111l-15 -84h-111z" />
    <glyph glyph-name="comma" unicode="," horiz-adv-x="218" 
d="M-4 -113l59 116q-36 17 -36 60q0 28 19.5 47.5t46.5 19.5q28 0 47 -19.5t19 -48.5q0 -26 -26 -64l-77 -111h-52z" />
    <glyph glyph-name="hyphen" unicode="-" horiz-adv-x="284" 
d="M37 193l15 87h207l-16 -87h-206z" />
    <glyph glyph-name="period" unicode="." horiz-adv-x="217" 
d="M84 -6q-27 0 -46.5 19t-19.5 48t19.5 48.5t46.5 19.5t46.5 -19.5t19.5 -48.5t-19.5 -48t-46.5 -19z" />
    <glyph glyph-name="slash" unicode="/" horiz-adv-x="407" 
d="M-55 -128l434 850h101l-434 -850h-101z" />
    <glyph glyph-name="zero" unicode="0" horiz-adv-x="609" 
d="M301 -9q-109 0 -182 73.5t-73 183.5q0 122 83.5 197.5t194.5 75.5q108 0 182.5 -73t74.5 -182q0 -123 -84 -199t-196 -76zM304 80q74 0 122.5 50t48.5 136q0 75 -42.5 121t-110.5 46q-74 0 -122.5 -51t-48.5 -135q0 -75 42 -121t111 -46z" />
    <glyph glyph-name="one" unicode="1" horiz-adv-x="305" 
d="M89 0l76 430h-103l15 83h203l-91 -513h-100z" />
    <glyph glyph-name="two" unicode="2" horiz-adv-x="462" 
d="M-4 0v10l219 192q66 56 92.5 89.5t26.5 70.5q0 32 -20 51t-54 19q-69 0 -105 -88l-91 25q25 76 78 114t123 38q80 0 125.5 -42.5t45.5 -107.5q0 -56 -34 -104.5t-100 -103.5l-63 -52q-8 -7 -20.5 -15t-20.5 -12l-9 -5q35 5 55 5h167l-14 -84h-401z" />
    <glyph glyph-name="three" unicode="3" horiz-adv-x="499" 
d="M213 -103q-83 0 -139.5 36.5t-83.5 95.5l89 45q39 -89 132 -89q55 0 92 32t37 93q0 52 -36 82.5t-94 30.5q-50 0 -90 -19l-7 11l168 178q8 9 19.5 19.5t18.5 15.5l7 6q-36 -4 -61 -4h-169l14 83h379v-9l-168 -181l-40 -35q67 -6 115.5 -53t48.5 -126q0 -93 -63 -152.5
t-169 -59.5z" />
    <glyph glyph-name="four" unicode="4" horiz-adv-x="530" 
d="M406 88h72l-14 -77h-72l-18 -105h-100l19 105h-302l10 62l470 448h12zM309 87l29 162q3 21 16 60q-8 -12 -42 -46l-148 -142l-46 -37q29 3 53 3h138z" />
    <glyph glyph-name="five" unicode="5" horiz-adv-x="482" 
d="M201 -103q-78 0 -131.5 35t-76.5 88l90 42q34 -77 115 -77q59 0 92 33.5t33 87.5q0 49 -33 79t-92 30q-67 0 -127 -43l-8 4l60 337h326l-15 -83h-239l-25 -146q30 14 69 14q85 0 138 -54.5t53 -135.5q0 -90 -63 -150.5t-166 -60.5z" />
    <glyph glyph-name="six" unicode="6" horiz-adv-x="513" 
d="M249 -9q-93 0 -152 57.5t-59 146.5q0 88 89 189l200 226h117l-164 -184q-9 -10 -69 -53q39 21 82 21q78 0 130.5 -53.5t52.5 -136.5q0 -96 -64.5 -154.5t-162.5 -58.5zM251 79q55 0 88.5 35.5t33.5 89.5q0 50 -29.5 81.5t-80.5 31.5q-56 0 -89.5 -35.5t-33.5 -88.5
q0 -49 30 -81.5t81 -32.5z" />
    <glyph glyph-name="seven" unicode="7" horiz-adv-x="460" 
d="M14 -94l321 524h-266l14 83h403v-10l-364 -597h-108z" />
    <glyph glyph-name="eight" unicode="8" horiz-adv-x="523" 
d="M247 -9q-94 0 -153.5 52t-59.5 129q0 60 39.5 106t111.5 63q-61 37 -61 110t53.5 120t139.5 47q83 0 131 -43.5t48 -107.5q0 -47 -29.5 -84t-79.5 -54q49 -22 71.5 -59.5t22.5 -80.5q0 -92 -67 -145t-167 -53zM253 79q55 0 90 31.5t35 84.5q0 46 -31 73.5t-83 27.5
q-56 0 -91 -31t-35 -85q0 -44 31.5 -72.5t83.5 -28.5zM304 373q40 0 64.5 24t24.5 65q0 33 -21.5 54t-57.5 21q-39 0 -64.5 -24.5t-25.5 -64.5q0 -34 21.5 -54.5t58.5 -20.5z" />
    <glyph glyph-name="nine" unicode="9" horiz-adv-x="514" 
d="M83 -94l162 174q18 19 69 56q-34 -19 -78 -19q-78 0 -131.5 53.5t-53.5 136.5q0 95 65 154.5t161 59.5q94 0 153 -57.5t59 -146.5q0 -98 -100 -207l-188 -204h-118zM264 194q57 0 90 36t33 90q0 50 -30 82t-81 32q-55 0 -88.5 -36t-33.5 -90q0 -51 29.5 -82.5t80.5 -31.5
z" />
    <glyph glyph-name="colon" unicode=":" horiz-adv-x="225" 
d="M127 222q-27 0 -46.5 19t-19.5 48t19.5 48.5t46.5 19.5q28 0 47.5 -19.5t19.5 -48.5t-19.5 -48t-47.5 -19zM88 -6q-28 0 -47.5 19t-19.5 48t20 48.5t47 19.5t46.5 -19.5t19.5 -48.5t-19.5 -48t-46.5 -19z" />
    <glyph glyph-name="semicolon" unicode=";" horiz-adv-x="225" 
d="M127 222q-27 0 -46.5 19t-19.5 48t19.5 48.5t46.5 19.5q28 0 47.5 -19.5t19.5 -48.5t-19.5 -48t-47.5 -19zM-1 -113l59 116q-37 18 -37 60q0 28 19.5 47.5t47.5 19.5q27 0 46.5 -19.5t19.5 -48.5q0 -26 -26 -64l-77 -111h-52z" />
    <glyph glyph-name="less" unicode="&#x3c;" horiz-adv-x="352" 
d="M286 84l-251 154v11l307 153l-16 -92l-155 -71l130 -71z" />
    <glyph glyph-name="equal" unicode="=" horiz-adv-x="382" 
d="M52 280l15 88h305l-15 -88h-305zM26 134l16 88h305l-16 -88h-305z" />
    <glyph glyph-name="greater" unicode="&#x3e;" horiz-adv-x="352" 
d="M19 84l16 92l155 71l-129 71l14 84l251 -154v-11z" />
    <glyph glyph-name="question" unicode="?" horiz-adv-x="485" 
d="M189 208l30 168h40q65 0 99 34t34 87q0 47 -27.5 75t-73.5 28q-76 0 -121 -78l-77 45q27 55 80 88t120 33q92 0 146 -54t54 -137t-55 -137t-139 -59l-17 -93h-93zM212 -6q-27 0 -46.5 19t-19.5 48t19.5 48t46.5 19t46.5 -19t19.5 -48t-19.5 -48t-46.5 -19z" />
    <glyph glyph-name="at" unicode="@" horiz-adv-x="884" 
d="M434 -207q-179 0 -287 107.5t-108 274.5q0 123 58 220.5t153.5 149.5t210.5 52q173 0 278.5 -102.5t105.5 -257.5q0 -120 -51.5 -180.5t-134.5 -60.5q-49 0 -80.5 22.5t-42.5 58.5q-21 -41 -55.5 -63.5t-75.5 -22.5q-75 0 -121.5 52t-46.5 133q0 92 52.5 150t127.5 58
q94 0 128 -90l11 80h96l-40 -223q-15 -84 51 -84q41 0 69 43t28 129q0 128 -82.5 205t-216.5 77q-143 0 -237 -97.5t-94 -248.5q0 -136 81.5 -221t223.5 -85q83 0 161 31l28 -69q-79 -38 -190 -38zM430 72q42 0 70.5 36t28.5 87q0 45 -25.5 76t-63.5 31q-45 0 -73 -33.5
t-28 -91.5q0 -49 25 -77t66 -28z" />
    <glyph glyph-name="A" unicode="A" horiz-adv-x="646" 
d="M-7 0l405 687h12l172 -687h-105l-29 126h-279l-73 -126h-103zM218 210h210l-43 186q-14 55 -14 95l-3 -7q-2 -6 -6.5 -15.5t-10 -21t-12.5 -25t-13 -24.5z" />
    <glyph glyph-name="B" unicode="B" horiz-adv-x="602" 
d="M42 0l119 680h229q86 0 132.5 -45.5t46.5 -115.5q0 -125 -124 -162q51 -14 80 -52.5t29 -95.5q0 -93 -62 -151t-172 -58h-278zM161 90h159q62 0 96 34t34 90q0 44 -27 70.5t-79 26.5h-144zM216 398h136q56 0 85 29.5t29 79.5q0 37 -22.5 60t-67.5 23h-126z" />
    <glyph glyph-name="C" unicode="C" horiz-adv-x="710" 
d="M393 -9q-140 0 -232 95t-92 237q0 156 106 260.5t256 104.5q177 0 266 -136l-83 -56q-64 100 -186 100q-108 0 -179.5 -78.5t-71.5 -194.5q0 -105 62 -172.5t157 -67.5q117 0 195 92l76 -62q-51 -63 -116.5 -92.5t-157.5 -29.5z" />
    <glyph glyph-name="D" unicode="D" horiz-adv-x="663" 
d="M43 0l120 680h166q149 0 232 -84t83 -224q0 -170 -107 -271t-283 -101h-211zM162 90h92q138 0 210.5 79t72.5 207q0 99 -54.5 156.5t-165.5 57.5h-67z" />
    <glyph glyph-name="E" unicode="E" horiz-adv-x="571" 
d="M43 0l120 680h423l-16 -90h-320l-36 -204h283l-16 -89h-283l-37 -207h335l-17 -90h-436z" />
    <glyph glyph-name="F" unicode="F" horiz-adv-x="543" 
d="M43 0l120 680h415l-16 -90h-312l-39 -223h283l-17 -92h-283l-48 -275h-103z" />
    <glyph glyph-name="G" unicode="G" horiz-adv-x="741" 
d="M415 -9q-156 0 -249 91.5t-93 240.5q0 160 107 262.5t257 102.5q159 0 246 -93l-73 -69q-63 70 -176 70q-109 0 -182 -76.5t-73 -195.5q0 -110 63.5 -176t173.5 -66q81 0 153 37l24 139h-180l16 90h275l-50 -285q-99 -72 -239 -72z" />
    <glyph glyph-name="H" unicode="H" horiz-adv-x="686" 
d="M43 0l120 680h103l-54 -304h321l54 304h103l-120 -680h-103l50 285h-321l-50 -285h-103z" />
    <glyph glyph-name="I" unicode="I" horiz-adv-x="271" 
d="M48 0l120 680h103l-120 -680h-103z" />
    <glyph glyph-name="J" unicode="J" horiz-adv-x="470" 
d="M189 -9q-70 0 -117.5 33t-68.5 84l87 48q33 -72 101 -72q42 0 64.5 22.5t32.5 76.5l88 497h103l-90 -510q-16 -93 -65.5 -136t-134.5 -43z" />
    <glyph glyph-name="K" unicode="K" horiz-adv-x="613" 
d="M43 0l120 680h103l-46 -265q-6 -32 -25 -97q36 55 73 92l262 270h120l-294 -304l198 -376h-116l-158 303l-97 -92l-36 -211h-104z" />
    <glyph glyph-name="L" unicode="L" horiz-adv-x="529" 
d="M43 0l120 680h103l-104 -589h309l-16 -91h-412z" />
    <glyph glyph-name="M" unicode="M" horiz-adv-x="819" 
d="M43 0l121 687h10l248 -381l390 381h12l-121 -687h-99l62 355q1 9 22 101q-2 -3 -12 -16.5t-27.5 -34t-31.5 -34.5l-206 -207h-11l-133 208q-37 52 -50 85q0 -31 -13 -102l-62 -355h-99z" />
    <glyph glyph-name="N" unicode="N" horiz-adv-x="690" 
d="M561 -7l-295 408q-28 36 -50 79q0 -46 -10 -99l-67 -381h-96l121 687h13l296 -408q8 -10 17 -24.5t15 -25.5t11.5 -20.5t5.5 -10.5q0 46 10 101l67 381h96l-121 -687h-13z" />
    <glyph glyph-name="O" unicode="O" horiz-adv-x="782" 
d="M397 -9q-140 0 -233.5 93.5t-93.5 238.5q0 161 105.5 263t257.5 102q140 0 233.5 -93t93.5 -238q0 -161 -106 -263.5t-257 -102.5zM400 83q112 0 183 77t71 199q0 106 -62.5 171.5t-161.5 65.5q-112 0 -183 -77t-71 -198q0 -106 62 -172t162 -66z" />
    <glyph glyph-name="P" unicode="P" horiz-adv-x="582" 
d="M43 0l120 680h193q103 0 164 -51t61 -149q1 -114 -72.5 -175.5t-193.5 -61.5h-126l-43 -243h-103zM205 332h114q76 0 116.5 36.5t40.5 107.5q0 56 -34 85.5t-97 29.5h-95z" />
    <glyph glyph-name="Q" unicode="Q" horiz-adv-x="782" 
d="M640 84l77 -100l-76 -59l-80 105q-78 -39 -164 -39q-140 0 -233.5 93.5t-93.5 238.5q0 161 105.5 263t257.5 102q140 0 233.5 -93t93.5 -238q0 -166 -120 -273zM506 101l-83 107l77 59l85 -111q69 75 69 203q0 106 -62.5 171.5t-161.5 65.5q-112 0 -183 -77t-71 -198
q0 -106 62 -173t162 -67q57 0 106 20z" />
    <glyph glyph-name="R" unicode="R" horiz-adv-x="616" 
d="M437 0l-115 254h-132l-44 -254h-103l120 680h199q102 0 163.5 -51.5t62.5 -146.5q0 -81 -44.5 -137t-120.5 -78l124 -267h-110zM206 340h119q76 0 116.5 35.5t40.5 102.5q0 54 -34 83.5t-96 29.5h-102z" />
    <glyph glyph-name="S" unicode="S" horiz-adv-x="525" 
d="M247 -9q-85 0 -148 40.5t-91 96.5l81 54q60 -100 158 -100q57 0 89.5 27.5t32.5 73.5q0 33 -19.5 55t-71.5 56l-40 26q-64 41 -94 85t-30 105q0 78 54.5 128t145.5 50q118 0 187 -105l-77 -60q-49 76 -114 76q-42 0 -68 -23.5t-26 -61.5q0 -32 17.5 -54.5t60.5 -49.5
l40 -26q73 -46 106.5 -88.5t33.5 -107.5q0 -92 -62.5 -144.5t-164.5 -52.5z" />
    <glyph glyph-name="T" unicode="T" horiz-adv-x="558" 
d="M192 0l105 590h-199l16 90h499l-16 -90h-198l-104 -590h-103z" />
    <glyph glyph-name="U" unicode="U" horiz-adv-x="658" 
d="M318 -9q-118 0 -186 73.5t-47 196.5l74 419h104l-75 -425q-15 -84 21.5 -128t113.5 -44q68 0 108 36t53 112l79 449h104l-82 -465q-40 -224 -267 -224z" />
    <glyph glyph-name="V" unicode="V" horiz-adv-x="643" 
d="M290 -7l-179 687h105l88 -357q5 -22 10.5 -54.5t9 -55.5t3.5 -24q1 3 9.5 23.5t23.5 52t28 53.5l205 362h107l-397 -687h-13z" />
    <glyph glyph-name="W" unicode="W" horiz-adv-x="933" 
d="M224 -7l-114 687h107l55 -352q10 -61 10 -109q17 50 49 103l215 365h13l82 -361q4 -18 8.5 -43.5t7.5 -44.5t3 -20q20 60 42 103l183 359h106l-354 -687h-12l-90 393q-16 64 -16 96l-3 -6q-3 -7 -7.5 -16.5t-10 -21t-12 -24t-12.5 -22.5l-237 -399h-13z" />
    <glyph glyph-name="X" unicode="X" horiz-adv-x="627" 
d="M-6 0l290 373l-133 307h109l68 -161q12 -30 25 -82q1 3 6.5 15t16.5 31t21 32l128 165h115l-239 -308l160 -372h-109l-96 225q-4 10 -8.5 24.5t-7 25.5t-4.5 21l-3 9q-25 -50 -47 -78l-177 -227h-115z" />
    <glyph glyph-name="Y" unicode="Y" horiz-adv-x="607" 
d="M210 0l44 251l-157 429h110l88 -243q11 -31 25 -104l9 18t22.5 41t26.5 42l172 246h110l-302 -428l-44 -252h-104z" />
    <glyph glyph-name="Z" unicode="Z" horiz-adv-x="586" 
d="M6 0v11l429 580h-286l16 89h444v-11l-430 -580h332l-16 -89h-489z" />
    <glyph glyph-name="bracketleft" unicode="[" horiz-adv-x="314" 
d="M7 -128l150 850h216l-14 -84h-117l-120 -682h116l-15 -84h-216z" />
    <glyph glyph-name="backslash" unicode="\" horiz-adv-x="402" 
d="M247 -128l-140 850h94l140 -850h-94z" />
    <glyph glyph-name="bracketright" unicode="]" horiz-adv-x="314" 
d="M-27 -128l15 84h117l120 682h-116l14 84h216l-150 -850h-216z" />
    <glyph glyph-name="asciicircum" unicode="^" horiz-adv-x="421" 
d="M104 455l186 232h10l105 -232h-78l-53 103l-87 -103h-83z" />
    <glyph glyph-name="underscore" unicode="_" horiz-adv-x="265" 
d="M-61 -128l16 88h269l-16 -88h-269z" />
    <glyph glyph-name="grave" unicode="`" horiz-adv-x="494" 
d="M243 502l-89 191h115l50 -191h-76z" />
    <glyph glyph-name="a" unicode="a" horiz-adv-x="530" 
d="M208 -9q-73 0 -121 55.5t-48 146.5q0 106 59 171t144 65q50 0 89 -26t57 -74l13 91h99l-55 -315q-4 -29 19 -29h34l-13 -76h-48q-54 0 -72.5 16.5t-18.5 49.5v9q-53 -84 -138 -84zM243 77q53 0 88 40.5t35 102.5q0 55 -27.5 88.5t-75.5 33.5q-55 0 -88 -40.5t-33 -106.5
q0 -54 27 -86t74 -32z" />
    <glyph glyph-name="b" unicode="b" horiz-adv-x="538" 
d="M297 -9q-54 0 -95 28t-60 79l-13 -98h-99l126 722h99l-65 -371q52 78 137 78q76 0 125 -56t49 -146q0 -103 -59.5 -169.5t-144.5 -66.5zM272 77q57 0 91.5 41t34.5 106q0 54 -28.5 86t-77.5 32q-56 0 -92 -40t-36 -103q0 -54 29 -88t79 -34z" />
    <glyph glyph-name="c" unicode="c" horiz-adv-x="454" 
d="M254 -9q-93 0 -153 59.5t-60 152.5q0 98 65 162t164 64q111 0 168 -80l-72 -57q-34 50 -97 50q-56 0 -91 -39t-35 -100q0 -56 30 -91t81 -35q54 0 96 37l58 -65q-60 -58 -154 -58z" />
    <glyph glyph-name="d" unicode="d" horiz-adv-x="542" 
d="M213 -9q-76 0 -125 56t-49 146q0 106 60.5 171t147.5 65q51 0 90.5 -25t58.5 -69l69 387h99l-109 -617q-4 -29 19 -29h34l-13 -76h-48q-54 0 -73 16.5t-19 50.5l1 10q-49 -86 -143 -86zM247 77q56 0 92.5 40.5t36.5 102.5q1 54 -28.5 88t-79.5 34q-57 0 -91.5 -40.5
t-34.5 -106.5q0 -54 28.5 -86t76.5 -32z" />
    <glyph glyph-name="e" unicode="e" horiz-adv-x="517" 
d="M143 177q5 -46 37.5 -75t86.5 -29q67 0 117 44l59 -63q-73 -63 -177 -63q-101 0 -162.5 58.5t-61.5 152.5q0 99 68 163t164 64q105 0 159 -70.5t40 -181.5h-330zM146 245h232q-1 46 -28.5 75t-78.5 29q-49 0 -81.5 -27.5t-43.5 -76.5z" />
    <glyph glyph-name="f" unicode="f" horiz-adv-x="339" 
d="M124 337h-68l15 83h68l30 173q25 142 147 142q73 0 115 -54l-64 -59q-19 24 -47 24q-43 0 -53 -57l-30 -169h109l-14 -83h-110l-76 -434q-12 -71 -41.5 -93t-92.5 -22h-55l15 77h35q17 0 27 9t15 36z" />
    <glyph glyph-name="g" unicode="g" horiz-adv-x="534" 
d="M199 -222q-71 0 -123 27t-77 68l68 60q49 -70 132 -70q111 0 136 127l15 78q-52 -77 -137 -77q-76 0 -124.5 56t-48.5 146q0 106 60.5 171t147.5 65q52 0 92.5 -26t58.5 -74l13 91h99l-78 -443q-18 -102 -79.5 -150.5t-154.5 -48.5zM248 77q56 0 92.5 40.5t36.5 102.5
q0 55 -29 88.5t-79 33.5q-57 0 -91.5 -40.5t-34.5 -106.5q0 -54 28.5 -86t76.5 -32z" />
    <glyph glyph-name="h" unicode="h" horiz-adv-x="517" 
d="M29 0l127 722h99l-66 -377q53 84 140 84q70 0 107 -53t22 -139l-24 -132q-4 -29 19 -29h34l-13 -76h-43q-57 0 -80.5 26.5t-13.5 83.5l21 122q9 52 -10 80t-63 28q-97 0 -116 -108l-41 -232h-99z" />
    <glyph glyph-name="i" unicode="i" horiz-adv-x="245" 
d="M183 518q-26 0 -45.5 18.5t-19.5 46.5t19 46t45 18q27 0 46.5 -18t19.5 -46q0 -29 -19 -47t-46 -18zM140 0q-60 0 -80.5 23.5t-9.5 83.5l54 313h100l-56 -315q-4 -29 19 -29h35l-13 -76h-49z" />
    <glyph glyph-name="j" unicode="j" horiz-adv-x="240" 
d="M184 518q-26 0 -45.5 18.5t-19.5 46.5t19 46t45 18q27 0 46.5 -18t19.5 -46q0 -29 -19 -47t-46 -18zM-21 -222q-70 0 -107 44l56 60q17 -20 43 -20q37 0 44 47l90 511h100l-90 -508q-23 -134 -136 -134z" />
    <glyph glyph-name="k" unicode="k" horiz-adv-x="476" 
d="M150 127l-22 -127h-99l127 722h99l-74 -417q-7 -42 -19 -79l195 194h115l-179 -177l80 -144q12 -23 34 -23h29l-13 -76h-38q-41 0 -61.5 14.5t-40.5 52.5l-66 119z" />
    <glyph glyph-name="l" unicode="l" horiz-adv-x="246" 
d="M143 0q-60 0 -80.5 23.5t-9.5 83.5l108 615h99l-109 -617q-4 -29 19 -29h41l-13 -76h-55z" />
    <glyph glyph-name="m" unicode="m" horiz-adv-x="757" 
d="M26 0l74 420h99l-16 -72q51 81 133 81q41 0 70.5 -22.5t41.5 -62.5q52 85 148 85q69 0 103 -53t19 -139l-24 -132q-4 -29 19 -29h34l-13 -76h-48q-60 0 -80.5 23.5t-9.5 83.5l22 125q19 108 -61 108q-45 0 -70 -26.5t-35 -81.5l-41 -232h-99l41 232q19 108 -61 108
q-87 0 -106 -108l-41 -232h-99z" />
    <glyph glyph-name="n" unicode="n" horiz-adv-x="513" 
d="M26 0l74 420h99l-17 -80q52 89 143 89q70 0 107 -53t22 -139l-23 -132q-4 -29 19 -29h34l-13 -76h-48q-60 0 -80.5 23.5t-9.5 83.5l21 125q9 52 -10 80t-63 28q-96 0 -115 -108l-41 -232h-99z" />
    <glyph glyph-name="o" unicode="o" horiz-adv-x="525" 
d="M256 -9q-91 0 -153 60.5t-62 150.5q0 99 66.5 163t163.5 64q91 0 153 -60.5t62 -151.5q0 -99 -66 -162.5t-164 -63.5zM259 76q56 0 90.5 40t34.5 102q0 56 -31.5 90.5t-84.5 34.5q-56 0 -90.5 -40t-34.5 -103q0 -55 32 -89.5t84 -34.5z" />
    <glyph glyph-name="p" unicode="p" horiz-adv-x="535" 
d="M-11 -212l111 632h99l-16 -74q54 83 140 83q77 0 126 -55.5t49 -146.5q0 -103 -60 -169.5t-145 -66.5q-53 0 -93 27t-59 74l-53 -304h-99zM268 77q57 0 92 41t35 106q0 54 -28.5 86t-77.5 32q-56 0 -92.5 -40t-36.5 -103q0 -54 29 -88t79 -34z" />
    <glyph glyph-name="q" unicode="q" horiz-adv-x="536" 
d="M409 -212q-60 0 -80.5 23.5t-9.5 83.5l30 173q-50 -77 -136 -77q-76 0 -125 56t-49 146q0 106 60.5 171t147.5 65q53 0 93 -26t58 -74l13 91h99l-93 -527q-4 -29 19 -29h34l-13 -76h-48zM247 77q56 0 92.5 40.5t36.5 102.5q1 54 -28.5 88t-79.5 34q-57 0 -91.5 -40.5
t-34.5 -106.5q0 -54 28.5 -86t76.5 -32z" />
    <glyph glyph-name="r" unicode="r" horiz-adv-x="354" 
d="M26 0l74 420h99l-19 -86q51 94 130 94q32 0 59 -15l-38 -90q-19 12 -48 12q-99 0 -123 -132l-35 -203h-99z" />
    <glyph glyph-name="s" unicode="s" horiz-adv-x="407" 
d="M187 -9q-122 0 -177 90l71 48q39 -59 107 -59t68 45q0 17 -13.5 27.5t-56.5 30.5q-10 5 -15 7q-49 25 -74.5 53.5t-25.5 72.5q0 58 41.5 90.5t104.5 32.5q90 0 142 -66l-66 -54q-32 43 -77 43q-24 0 -38.5 -10.5t-14.5 -28.5q0 -17 15 -29t54 -30q60 -27 89.5 -54.5
t29.5 -75.5q0 -62 -42 -97.5t-122 -35.5z" />
    <glyph glyph-name="t" unicode="t" horiz-adv-x="345" 
d="M196 -9q-61 0 -94 36.5t-19 116.5l34 193h-62l14 83h63l26 149h98l-26 -149h108l-15 -83h-107l-35 -197q-12 -64 32 -64q27 0 52 19l35 -69q-43 -35 -104 -35z" />
    <glyph glyph-name="u" unicode="u" horiz-adv-x="515" 
d="M185 -9q-70 0 -107.5 52.5t-22.5 138.5l42 238h99l-41 -233q-9 -51 10 -79.5t64 -28.5q94 0 115 109l41 232h99l-55 -315q-6 -29 18 -29h34l-13 -76h-48q-53 0 -72.5 18t-18.5 49v7q-54 -83 -144 -83z" />
    <glyph glyph-name="v" unicode="v" horiz-adv-x="464" 
d="M204 -9l-151 429h103l57 -187q5 -15 9 -35t6 -36l3 -15q15 44 40 86l109 187h104l-267 -429h-13z" />
    <glyph glyph-name="w" unicode="w" horiz-adv-x="672" 
d="M174 -10l-119 430h103l43 -182q3 -13 6.5 -31.5t6 -31.5t2.5 -14q11 32 38 76l115 191h10l60 -190q4 -13 8.5 -31.5t7.5 -32.5l3 -13q11 34 35 77l97 182h103l-241 -430h-11l-68 216q-4 11 -8 28.5t-6.5 29.5t-2.5 14l-5 -13q-5 -13 -12.5 -28.5t-14.5 -26.5l-139 -220
h-11z" />
    <glyph glyph-name="x" unicode="x" horiz-adv-x="479" 
d="M-13 0l196 222l-104 198h109l41 -81q14 -35 20 -59q22 45 32 57l72 83h113l-168 -191l122 -229h-110l-54 103q-14 27 -24 67q-22 -44 -40 -65l-92 -105h-113z" />
    <glyph glyph-name="y" unicode="y" horiz-adv-x="465" 
d="M15 -212l149 256l-111 376h105l56 -209q4 -14 6.5 -33.5t4.5 -34.5t2 -16q7 34 33 82l120 211h105l-365 -632h-105z" />
    <glyph glyph-name="z" unicode="z" horiz-adv-x="428" 
d="M5 0v11l261 327h-188l15 82h339v-11l-261 -328h200l-15 -81h-351z" />
    <glyph glyph-name="braceleft" unicode="{" horiz-adv-x="383" 
d="M228 -128q-64 0 -100.5 36t-22.5 117l30 167q6 37 -3.5 50.5t-37.5 13.5h-61l16 84h57q30 0 45 15t23 58l31 172q14 77 51 107t95 30h90l-14 -84h-63q-26 0 -39.5 -12.5t-19.5 -46.5l-33 -188q-8 -49 -31.5 -69t-64.5 -26q75 -15 60 -105l-31 -173q-6 -34 4 -48t38 -14
h60l-16 -84h-63z" />
    <glyph glyph-name="bar" unicode="|" horiz-adv-x="253" 
d="M19 -128l150 850h96l-150 -850h-96z" />
    <glyph glyph-name="braceright" unicode="}" horiz-adv-x="383" 
d="M-29 -128l15 84h63q26 0 39.5 12.5t19.5 46.5l34 191q8 49 31 69t64 26q-76 13 -59 104l29 171q6 34 -3.5 48t-37.5 14h-60l15 84h63q64 0 101 -36t22 -117l-29 -164q-6 -37 4 -51t38 -14h60l-15 -84h-57q-31 0 -46 -15t-23 -58l-31 -174q-13 -76 -50.5 -106.5
t-95.5 -30.5h-91z" />
    <glyph glyph-name="asciitilde" unicode="~" horiz-adv-x="378" 
d="M113 216l-69 7q9 61 36.5 93t66.5 32q31 0 63 -26q35 -27 46 -27q14 0 22 12t14 41l69 -8q-8 -61 -36 -93t-67 -32q-31 0 -63 26q-5 4 -13.5 11t-12 9.5t-9.5 5t-11 2.5q-25 0 -36 -53z" />
    <glyph glyph-name="uni00A0" unicode="&#xa0;" horiz-adv-x="179" 
 />
    <glyph glyph-name="exclamdown" unicode="&#xa1;" horiz-adv-x="252" 
d="M199 552q-27 0 -46.5 19t-19.5 48t19.5 48t46.5 19t46.5 -19t19.5 -48t-19.5 -48t-46.5 -19zM33 0l105 470h76l-70 -470h-111z" />
    <glyph glyph-name="cent" unicode="&#xa2;" horiz-adv-x="455" 
d="M190 -1q-67 19 -108 74t-41 130q0 97 64 160.5t161 65.5l19 106h54l-20 -110q74 -14 120 -77l-73 -54q-23 34 -61 46l-47 -265q53 1 92 38l58 -64q-60 -58 -154 -58h-11l-19 -107h-54zM251 344q-50 -6 -80 -44t-30 -97q0 -88 64 -118z" />
    <glyph glyph-name="sterling" unicode="&#xa3;" horiz-adv-x="554" 
d="M186 255h-98l13 76h73q-10 57 -10 98q0 88 54.5 138.5t146.5 50.5q123 0 180 -108l-80 -48q-37 68 -101 68q-47 0 -73 -28t-26 -80q0 -29 6 -91h148l-14 -76h-125q4 -50 4 -76q0 -38 -10 -68q52 -35 91 -35q50 0 90 43l57 -61q-56 -67 -148 -67q-63 0 -127 53
q-47 -53 -120 -53q-52 0 -82 28t-30 69q0 46 31.5 72t79.5 26q39 0 79 -21q0 34 -9 90zM182 94q-38 31 -64 31q-18 0 -30 -10t-12 -26t11.5 -26t30.5 -10q44 0 64 41z" />
    <glyph glyph-name="yen" unicode="&#xa5;" horiz-adv-x="539" 
d="M181 0l21 122h-167l11 65h162l-26 68h-124l11 65h89l-72 193h106l63 -187q5 -16 9.5 -38.5t7.5 -37t3 -15.5l3 6q2 6 6 15.5t9 20.5t12 24t14 23l134 189h108l-143 -193h89l-12 -65h-125l-50 -68h163l-11 -65h-169l-21 -122h-101z" />
    <glyph glyph-name="section" unicode="&#xa7;" 
d="M146 400q-15 30 -15 71q0 64 47.5 105.5t117.5 41.5q115 0 160 -97l-81 -39q-24 56 -77 56q-35 0 -53 -18.5t-18 -47.5q0 -43 45 -64l93 -43q109 -48 109 -140q0 -86 -100 -121q15 -27 15 -66q0 -65 -46.5 -103t-129.5 -38q-69 0 -117.5 30.5t-66.5 76.5l82 39
q27 -65 100 -65q37 0 57 15.5t20 41.5q0 39 -53 62l-83 38q-58 27 -84 59.5t-26 82.5q0 49 29.5 81t74.5 42zM333 151q48 15 48 60t-57 71l-91 42q-32 14 -52 33q-46 -17 -46 -64q0 -26 12.5 -42t42.5 -30l85 -37q36 -16 58 -33z" />
    <glyph glyph-name="dieresis" unicode="&#xa8;" horiz-adv-x="494" 
d="M406 523q-23 0 -41 17.5t-18 41.5t18 42t41 18t40.5 -17.5t17.5 -42.5q0 -24 -17 -41.5t-41 -17.5zM223 523q-23 0 -40.5 17.5t-17.5 41.5t17.5 42t40.5 18t41 -18t18 -42t-17.5 -41.5t-41.5 -17.5z" />
    <glyph glyph-name="copyright" unicode="&#xa9;" horiz-adv-x="597" 
d="M309 -6q-109 0 -187 75.5t-78 187.5q0 113 78 188.5t187 75.5q108 0 185 -75.5t77 -188.5q0 -112 -77.5 -187.5t-184.5 -75.5zM309 43q89 0 149.5 60t60.5 154t-60.5 154.5t-149.5 60.5q-91 0 -152.5 -60t-61.5 -155q0 -94 61.5 -154t152.5 -60zM312 109q-66 0 -108 41.5
t-42 104.5q0 67 43.5 109.5t107.5 42.5q74 0 119 -51l-57 -51q-22 27 -58 27q-31 0 -49.5 -21t-18.5 -56q0 -32 17.5 -52t46.5 -20q35 0 57 24l53 -49q-43 -49 -111 -49z" />
    <glyph glyph-name="ordfeminine" unicode="&#xaa;" horiz-adv-x="479" 
d="M209 150q-62 0 -104.5 47t-42.5 124q0 91 51.5 145.5t125.5 54.5q89 0 121 -84l10 76h89l-46 -261q-4 -25 17 -25h29l-12 -70h-44q-45 0 -61.5 14t-17.5 42l-1 5q-44 -68 -114 -68zM239 226q44 0 73 33.5t29 85.5q0 44 -22.5 71.5t-62.5 27.5q-46 0 -73 -33t-27 -87
q0 -44 22 -71t61 -27z" />
    <glyph glyph-name="guillemotleft" unicode="&#xab;" horiz-adv-x="443" 
d="M282 35l-69 157l1 8l120 167h103l-126 -174l70 -158h-99zM102 35l-69 157l1 8l121 167h103l-127 -174l70 -158h-99z" />
    <glyph glyph-name="registered" unicode="&#xae;" horiz-adv-x="510" 
d="M199 363l41 227h80q40 0 61 -20t21 -52q0 -56 -52 -72l33 -83h-54l-29 75h-34l-14 -75h-53zM301 259q-90 0 -153 61.5t-63 154.5t63 155t153 62q91 0 155 -62t64 -155t-64 -154.5t-155 -61.5zM301 299q77 0 125.5 47.5t48.5 128.5t-48.5 128.5t-125.5 47.5
q-76 0 -123.5 -47.5t-47.5 -128.5t48 -128.5t123 -47.5zM273 477h37q39 0 39 37q0 31 -32 31h-32z" />
    <glyph glyph-name="macron" unicode="&#xaf;" horiz-adv-x="494" 
d="M181 529l14 74h244l-14 -74h-244z" />
    <glyph glyph-name="degree" unicode="&#xb0;" horiz-adv-x="324" 
d="M191 277q-51 0 -87 34.5t-36 85.5q0 54 37.5 89t91.5 35q52 0 87.5 -33.5t35.5 -83.5q0 -54 -38 -90.5t-91 -36.5zM192 338q26 0 42.5 18t16.5 47q0 27 -15 42t-40 15q-26 0 -42.5 -18t-16.5 -46q0 -27 15 -42.5t40 -15.5z" />
    <glyph glyph-name="acute" unicode="&#xb4;" horiz-adv-x="494" 
d="M249 502l89 191h120l-131 -191h-78z" />
    <glyph glyph-name="paragraph" unicode="&#xb6;" horiz-adv-x="614" 
d="M228 0l48 274h-4q-87 0 -135.5 52t-48.5 133q0 93 63 157t170 64h296l-120 -680h-98l104 594h-72l-105 -594h-98z" />
    <glyph glyph-name="periodcentered" unicode="&#xb7;" horiz-adv-x="222" 
d="M119 181q-28 0 -48 20t-20 50q0 29 20 48.5t48 19.5t48 -19.5t20 -48.5q0 -30 -20 -50t-48 -20z" />
    <glyph glyph-name="cedilla" unicode="&#xb8;" horiz-adv-x="494" 
d="M205 -236q-80 0 -109 61l52 29q17 -33 51 -33q20 0 32 11.5t12 30.5q0 43 -48 43h-27l16 94h58l-8 -47q30 -5 51.5 -29t21.5 -62q0 -45 -29.5 -71.5t-72.5 -26.5z" />
    <glyph glyph-name="ordmasculine" unicode="&#xba;" horiz-adv-x="456" 
d="M243 149q-77 0 -128 51.5t-51 129.5q0 83 57 137t137 54q77 0 128.5 -52.5t51.5 -128.5q0 -84 -57 -137.5t-138 -53.5zM246 226q44 0 71 32.5t27 84.5q0 44 -24 72.5t-64 28.5q-45 0 -71.5 -32.5t-26.5 -84.5q0 -46 23.5 -73.5t64.5 -27.5z" />
    <glyph glyph-name="guillemotright" unicode="&#xbb;" horiz-adv-x="443" 
d="M185 35l127 173l-70 159h99l68 -157v-8l-121 -167h-103zM6 35l126 173l-70 159h99l69 -157l-1 -8l-120 -167h-103z" />
    <glyph glyph-name="questiondown" unicode="&#xbf;" horiz-adv-x="484" 
d="M321 553q-27 0 -47 19.5t-20 47.5q0 29 19.5 48.5t47.5 19.5q27 0 46 -19.5t19 -48.5q0 -28 -19 -47.5t-46 -19.5zM239 -7q-92 0 -145.5 54t-53.5 137q0 84 54.5 137.5t138.5 58.5l17 93h93l-30 -168h-40q-65 0 -99 -34t-34 -87q0 -47 27.5 -74.5t73.5 -27.5q76 0 121 77
l77 -45q-27 -55 -80 -88t-120 -33z" />
    <glyph glyph-name="Agrave" unicode="&#xc0;" horiz-adv-x="646" 
d="M-7 0l405 687h12l172 -687h-105l-29 126h-279l-73 -126h-103zM218 210h210l-43 186q-14 55 -14 95l-3 -7q-2 -6 -6.5 -15.5t-10 -21t-12.5 -25t-13 -24.5zM369 747l-89 191h115l50 -191h-76z" />
    <glyph glyph-name="Aacute" unicode="&#xc1;" horiz-adv-x="646" 
d="M-7 0l405 687h12l172 -687h-105l-29 126h-279l-73 -126h-103zM218 210h210l-43 186q-14 55 -14 95l-3 -7q-2 -6 -6.5 -15.5t-10 -21t-12.5 -25t-13 -24.5zM362 747l89 191h120l-131 -191h-78z" />
    <glyph glyph-name="Acircumflex" unicode="&#xc2;" horiz-adv-x="646" 
d="M-7 0l405 687h12l172 -687h-105l-29 126h-279l-73 -126h-103zM218 210h210l-43 186q-14 55 -14 95l-3 -7q-2 -6 -6.5 -15.5t-10 -21t-12.5 -25t-13 -24.5zM261 746l175 205h10l106 -205h-78l-50 91l-79 -91h-84z" />
    <glyph glyph-name="Atilde" unicode="&#xc3;" horiz-adv-x="646" 
d="M-7 0l405 687h12l172 -687h-105l-29 126h-279l-73 -126h-103zM310 751l-72 8q10 61 40 92.5t73 31.5q34 0 71 -26q40 -28 54 -28q29 0 40 54l73 -8q-10 -61 -40 -92.5t-74 -31.5q-34 0 -71 26q-4 3 -12.5 9t-11.5 8t-9 5.5t-10.5 4.5t-9.5 1q-28 0 -41 -54zM218 210h210
l-43 186q-14 55 -14 95l-3 -7q-2 -6 -6.5 -15.5t-10 -21t-12.5 -25t-13 -24.5z" />
    <glyph glyph-name="Adieresis" unicode="&#xc4;" horiz-adv-x="646" 
d="M-7 0l405 687h12l172 -687h-105l-29 126h-279l-73 -126h-103zM218 210h210l-43 186q-14 55 -14 95l-3 -7q-2 -6 -6.5 -15.5t-10 -21t-12.5 -25t-13 -24.5zM507 750q-23 0 -41 17.5t-18 41.5t18 42t41 18t40.5 -17.5t17.5 -42.5t-17.5 -42t-40.5 -17zM324 750
q-23 0 -40.5 17.5t-17.5 41.5t17.5 42t40.5 18q24 0 41.5 -17.5t17.5 -42.5q0 -24 -17.5 -41.5t-41.5 -17.5z" />
    <glyph glyph-name="Aring" unicode="&#xc5;" horiz-adv-x="646" 
d="M-7 0l405 687h12l172 -687h-105l-29 126h-279l-73 -126h-103zM417 737q-48 0 -81 32t-33 77q0 46 33 78t81 32q49 0 82 -32t33 -78q0 -45 -33.5 -77t-81.5 -32zM218 210h210l-43 186q-14 55 -14 95l-3 -7q-2 -6 -6.5 -15.5t-10 -21t-12.5 -25t-13 -24.5zM417 795
q21 0 34.5 14t13.5 37q0 24 -13.5 38t-34.5 14t-34.5 -14t-13.5 -38q0 -23 13.5 -37t34.5 -14z" />
    <glyph glyph-name="AE" unicode="&#xc6;" horiz-adv-x="947" 
d="M-15 0l569 680h408l-15 -90h-319l-37 -204h282l-16 -89h-281l-37 -207h333l-16 -90h-436l21 119h-244l-97 -119h-115zM269 205h187l40 227q6 35 27 99q-36 -59 -61 -90z" />
    <glyph glyph-name="Ccedilla" unicode="&#xc7;" horiz-adv-x="710" 
d="M324 -236q-80 0 -109 61l53 29q17 -33 51 -33q20 0 31.5 11.5t11.5 30.5q0 43 -47 43h-28l17 98q-106 28 -170.5 114.5t-64.5 204.5q0 156 106 260.5t256 104.5q176 0 266 -136l-84 -55q-64 99 -185 99q-108 0 -179.5 -78.5t-71.5 -194.5q0 -105 62 -172.5t157 -67.5
q117 0 194 89l77 -59q-106 -122 -274 -122q-16 0 -32 2l-7 -40q30 -5 51.5 -29t21.5 -62q0 -45 -30 -71.5t-73 -26.5z" />
    <glyph glyph-name="Egrave" unicode="&#xc8;" horiz-adv-x="571" 
d="M43 0l120 680h423l-16 -90h-320l-36 -204h283l-16 -89h-283l-37 -207h335l-17 -90h-436zM348 747l-89 191h115l50 -191h-76z" />
    <glyph glyph-name="Eacute" unicode="&#xc9;" horiz-adv-x="571" 
d="M341 747l89 191h120l-131 -191h-78zM43 0l120 680h423l-16 -90h-320l-36 -204h283l-16 -89h-283l-37 -207h335l-17 -90h-436z" />
    <glyph glyph-name="Ecircumflex" unicode="&#xca;" horiz-adv-x="571" 
d="M236 746l175 205h10l106 -205h-78l-50 91l-79 -91h-84zM43 0l120 680h423l-16 -90h-320l-36 -204h283l-16 -89h-283l-37 -207h335l-17 -90h-436z" />
    <glyph glyph-name="Edieresis" unicode="&#xcb;" horiz-adv-x="571" 
d="M486 750q-23 0 -41 17.5t-18 41.5t18 42t41 18t40.5 -17.5t17.5 -42.5t-17 -42t-41 -17zM303 750q-23 0 -40.5 17.5t-17.5 41.5t17.5 42t40.5 18t41 -17.5t18 -42.5q0 -24 -17.5 -41.5t-41.5 -17.5zM43 0l120 680h423l-16 -90h-320l-36 -204h283l-16 -89h-283l-37 -207
h335l-17 -90h-436z" />
    <glyph glyph-name="Igrave" unicode="&#xcc;" horiz-adv-x="271" 
d="M48 0l120 680h103l-120 -680h-103zM188 747l-89 191h115l50 -191h-76z" />
    <glyph glyph-name="Iacute" unicode="&#xcd;" horiz-adv-x="271" 
d="M48 0l120 680h103l-120 -680h-103zM187 747l89 191h120l-131 -191h-78z" />
    <glyph glyph-name="Icircumflex" unicode="&#xce;" horiz-adv-x="271" 
d="M48 0l120 680h103l-120 -680h-103zM84 746l175 205h10l106 -205h-78l-50 91l-79 -91h-84z" />
    <glyph glyph-name="Idieresis" unicode="&#xcf;" horiz-adv-x="271" 
d="M48 0l120 680h103l-120 -680h-103zM334 750q-23 0 -41 17.5t-18 41.5t18 42t41 18t40.5 -17.5t17.5 -42.5t-17 -42t-41 -17zM151 750q-23 0 -40.5 17.5t-17.5 41.5t17.5 42t40.5 18t41 -17.5t18 -42.5q0 -24 -17.5 -41.5t-41.5 -17.5z" />
    <glyph glyph-name="Eth" unicode="&#xd0;" horiz-adv-x="663" 
d="M43 0l52 296h-67l16 88h67l52 296h166q148 0 231.5 -84t83.5 -224q0 -170 -107 -271t-283 -101h-211zM162 90h92q138 0 210.5 79t72.5 207q0 99 -54.5 156.5t-165.5 57.5h-66l-37 -206h166l-16 -88h-166z" />
    <glyph glyph-name="Ntilde" unicode="&#xd1;" horiz-adv-x="690" 
d="M561 -7l-295 408q-28 36 -50 79q0 -46 -10 -99l-67 -381h-96l121 687h13l296 -408q8 -10 17 -24.5t15 -25.5t11.5 -20.5t5.5 -10.5q0 46 10 101l67 381h96l-121 -687h-13zM337 751l-73 8q11 61 41 92.5t73 31.5q35 0 70 -26q42 -28 54 -28q30 0 41 54l72 -8
q-9 -60 -39.5 -92t-73.5 -32q-36 0 -71 26q-40 28 -54 28q-29 0 -40 -54z" />
    <glyph glyph-name="Ograve" unicode="&#xd2;" horiz-adv-x="782" 
d="M397 -9q-140 0 -233.5 93.5t-93.5 238.5q0 161 105.5 263t257.5 102q140 0 233.5 -93t93.5 -238q0 -161 -106 -263.5t-257 -102.5zM400 83q112 0 183 77t71 199q0 106 -62.5 171.5t-161.5 65.5q-112 0 -183 -77t-71 -198q0 -106 62 -172t162 -66zM415 747l-89 191h115
l50 -191h-76z" />
    <glyph glyph-name="Oacute" unicode="&#xd3;" horiz-adv-x="782" 
d="M414 747l89 191h120l-131 -191h-78zM397 -9q-140 0 -233.5 93.5t-93.5 238.5q0 161 105.5 263t257.5 102q140 0 233.5 -93t93.5 -238q0 -161 -106 -263.5t-257 -102.5zM400 83q112 0 183 77t71 199q0 106 -62.5 171.5t-161.5 65.5q-112 0 -183 -77t-71 -198
q0 -106 62 -172t162 -66z" />
    <glyph glyph-name="Ocircumflex" unicode="&#xd4;" horiz-adv-x="782" 
d="M311 746l175 205h10l106 -205h-78l-50 91l-79 -91h-84zM397 -9q-140 0 -233.5 93.5t-93.5 238.5q0 161 105.5 263t257.5 102q140 0 233.5 -93t93.5 -238q0 -161 -106 -263.5t-257 -102.5zM400 83q112 0 183 77t71 199q0 106 -62.5 171.5t-161.5 65.5q-112 0 -183 -77
t-71 -198q0 -106 62 -172t162 -66z" />
    <glyph glyph-name="Otilde" unicode="&#xd5;" horiz-adv-x="782" 
d="M363 751l-72 8q10 61 40 92.5t73 31.5q34 0 71 -26q40 -28 54 -28q29 0 40 54l73 -8q-10 -61 -40 -92.5t-74 -31.5q-34 0 -71 26q-4 3 -12.5 9t-11.5 8t-9 5.5t-10.5 4.5t-9.5 1q-28 0 -41 -54zM397 -9q-140 0 -233.5 93.5t-93.5 238.5q0 161 105.5 263t257.5 102
q140 0 233.5 -93t93.5 -238q0 -161 -106 -263.5t-257 -102.5zM400 83q112 0 183 77t71 199q0 106 -62.5 171.5t-161.5 65.5q-112 0 -183 -77t-71 -198q0 -106 62 -172t162 -66z" />
    <glyph glyph-name="Odieresis" unicode="&#xd6;" horiz-adv-x="782" 
d="M559 750q-23 0 -41 17.5t-18 41.5t18 42t41 18t40.5 -17.5t17.5 -42.5t-17.5 -42t-40.5 -17zM376 750q-23 0 -40.5 17.5t-17.5 41.5t17.5 42t40.5 18q24 0 41.5 -17.5t17.5 -42.5q0 -24 -17.5 -41.5t-41.5 -17.5zM397 -9q-140 0 -233.5 93.5t-93.5 238.5q0 161 105.5 263
t257.5 102q140 0 233.5 -93t93.5 -238q0 -161 -106 -263.5t-257 -102.5zM400 83q112 0 183 77t71 199q0 106 -62.5 171.5t-161.5 65.5q-112 0 -183 -77t-71 -198q0 -106 62 -172t162 -66z" />
    <glyph glyph-name="multiply" unicode="&#xd7;" horiz-adv-x="396" 
d="M264 255l81 -98l-65 -55l-80 98l-111 -96l-53 60l112 97l-81 98l66 55l80 -98l114 99l52 -60z" />
    <glyph glyph-name="Oslash" unicode="&#xd8;" horiz-adv-x="782" 
d="M700 555q60 -85 60 -198q0 -161 -105.5 -263.5t-254.5 -102.5q-125 0 -216 75l-80 -76l-54 58l80 76q-60 85 -60 199q0 161 105 263t254 102q127 0 216 -75l80 76l55 -58zM205 195l370 351q-59 50 -147 50q-109 0 -180.5 -77t-71.5 -198q0 -71 29 -126zM625 484
l-370 -351q59 -50 147 -50q110 0 181 77.5t71 198.5q0 72 -29 125z" />
    <glyph glyph-name="Ugrave" unicode="&#xd9;" horiz-adv-x="658" 
d="M318 -9q-118 0 -186 73.5t-47 196.5l74 419h104l-75 -425q-15 -84 21.5 -128t113.5 -44q68 0 108 36t53 112l79 449h104l-82 -465q-40 -224 -267 -224zM378 747l-89 191h115l50 -191h-76z" />
    <glyph glyph-name="Uacute" unicode="&#xda;" horiz-adv-x="658" 
d="M377 747l89 191h120l-131 -191h-78zM318 -9q-118 0 -186 73.5t-47 196.5l74 419h104l-75 -425q-15 -84 21.5 -128t113.5 -44q68 0 108 36t53 112l79 449h104l-82 -465q-40 -224 -267 -224z" />
    <glyph glyph-name="Ucircumflex" unicode="&#xdb;" horiz-adv-x="658" 
d="M275 746l175 205h10l106 -205h-78l-50 91l-79 -91h-84zM318 -9q-118 0 -186 73.5t-47 196.5l74 419h104l-75 -425q-15 -84 21.5 -128t113.5 -44q68 0 108 36t53 112l79 449h104l-82 -465q-40 -224 -267 -224z" />
    <glyph glyph-name="Udieresis" unicode="&#xdc;" horiz-adv-x="658" 
d="M524 750q-23 0 -41 17.5t-18 41.5t18 42t41 18t40.5 -17.5t17.5 -42.5t-17 -42t-41 -17zM341 750q-23 0 -40.5 17.5t-17.5 41.5t17.5 42t40.5 18t41 -17.5t18 -42.5q0 -24 -17.5 -41.5t-41.5 -17.5zM318 -9q-118 0 -186 73.5t-47 196.5l74 419h104l-75 -425
q-15 -84 21.5 -128t113.5 -44q68 0 108 36t53 112l79 449h104l-82 -465q-40 -224 -267 -224z" />
    <glyph glyph-name="Yacute" unicode="&#xdd;" horiz-adv-x="607" 
d="M210 0l44 251l-157 429h110l88 -243q11 -31 25 -104l9 18t22.5 41t26.5 42l172 246h110l-302 -428l-44 -252h-104zM350 747l89 191h120l-131 -191h-78z" />
    <glyph glyph-name="Thorn" unicode="&#xde;" horiz-adv-x="574" 
d="M43 0l120 680h103l-20 -118h82q106 0 167 -50t61 -148q0 -116 -72 -177t-190 -61h-126l-22 -126h-103zM184 215h113q74 0 114 36t40 107q0 114 -132 114h-90z" />
    <glyph glyph-name="germandbls" unicode="&#xdf;" horiz-adv-x="544" 
d="M384 393q57 -20 89 -65.5t32 -111.5q0 -102 -59 -161.5t-161 -59.5q-61 0 -93 17l23 78q27 -11 62 -11q60 0 93.5 37t33.5 105q0 61 -36 95t-105 36l14 78q57 4 92.5 38.5t35.5 96.5q0 43 -22.5 65.5t-60.5 22.5q-43 0 -68.5 -27.5t-35.5 -88.5l-111 -634
q-13 -71 -42.5 -93t-92.5 -22h-54l14 77h35q17 0 27 9t15 36l112 633q35 192 203 192q79 0 127.5 -45.5t48.5 -123.5q0 -61 -31 -105t-85 -68z" />
    <glyph glyph-name="agrave" unicode="&#xe0;" horiz-adv-x="530" 
d="M208 -9q-73 0 -121 55.5t-48 146.5q0 106 59 171t144 65q50 0 89 -26t57 -74l13 91h99l-55 -315q-4 -29 19 -29h34l-13 -76h-48q-54 0 -72.5 16.5t-18.5 49.5v9q-53 -84 -138 -84zM243 77q53 0 88 40.5t35 102.5q0 55 -27.5 88.5t-75.5 33.5q-55 0 -88 -40.5t-33 -106.5
q0 -54 27 -86t74 -32zM256 502l-89 191h115l50 -191h-76z" />
    <glyph glyph-name="aacute" unicode="&#xe1;" horiz-adv-x="530" 
d="M208 -9q-73 0 -121 55.5t-48 146.5q0 106 59 171t144 65q50 0 89 -26t57 -74l13 91h99l-55 -315q-4 -29 19 -29h34l-13 -76h-48q-54 0 -72.5 16.5t-18.5 49.5v9q-53 -84 -138 -84zM243 77q53 0 88 40.5t35 102.5q0 55 -27.5 88.5t-75.5 33.5q-55 0 -88 -40.5t-33 -106.5
q0 -54 27 -86t74 -32zM256 502l89 191h120l-131 -191h-78z" />
    <glyph glyph-name="acircumflex" unicode="&#xe2;" horiz-adv-x="530" 
d="M208 -9q-73 0 -121 55.5t-48 146.5q0 106 59 171t144 65q50 0 89 -26t57 -74l13 91h99l-55 -315q-4 -29 19 -29h34l-13 -76h-48q-54 0 -72.5 16.5t-18.5 49.5v9q-53 -84 -138 -84zM243 77q53 0 88 40.5t35 102.5q0 55 -27.5 88.5t-75.5 33.5q-55 0 -88 -40.5t-33 -106.5
q0 -54 27 -86t74 -32zM154 501l175 205h10l106 -205h-78l-50 91l-79 -91h-84z" />
    <glyph glyph-name="atilde" unicode="&#xe3;" horiz-adv-x="530" 
d="M208 -9q-73 0 -121 55.5t-48 146.5q0 106 59 171t144 65q50 0 89 -26t57 -74l13 91h99l-55 -315q-4 -29 19 -29h34l-13 -76h-48q-54 0 -72.5 16.5t-18.5 49.5v9q-53 -84 -138 -84zM243 77q53 0 88 40.5t35 102.5q0 55 -27.5 88.5t-75.5 33.5q-55 0 -88 -40.5t-33 -106.5
q0 -54 27 -86t74 -32zM218 507l-68 8q9 61 36.5 93t66.5 32q30 0 63 -26q5 -3 11.5 -8.5t10 -8.5t8 -6t8.5 -4t8 -1q25 0 36 53l68 -7q-8 -61 -35.5 -93t-66.5 -32q-33 0 -64 26q-4 3 -11 8.5t-10 8t-7.5 5.5t-8.5 4t-8 1q-25 0 -37 -53z" />
    <glyph glyph-name="adieresis" unicode="&#xe4;" horiz-adv-x="530" 
d="M208 -9q-73 0 -121 55.5t-48 146.5q0 106 59 171t144 65q50 0 89 -26t57 -74l13 91h99l-55 -315q-4 -29 19 -29h34l-13 -76h-48q-54 0 -72.5 16.5t-18.5 49.5v9q-53 -84 -138 -84zM243 77q53 0 88 40.5t35 102.5q0 55 -27.5 88.5t-75.5 33.5q-55 0 -88 -40.5t-33 -106.5
q0 -54 27 -86t74 -32zM406 523q-23 0 -41 17.5t-18 41.5t18 42t41 18t40.5 -17.5t17.5 -42.5q0 -24 -17 -41.5t-41 -17.5zM223 523q-23 0 -40.5 17.5t-17.5 41.5t17.5 42t40.5 18t41 -18t18 -42t-17.5 -41.5t-41.5 -17.5z" />
    <glyph glyph-name="aring" unicode="&#xe5;" horiz-adv-x="530" 
d="M208 -9q-73 0 -121 55.5t-48 146.5q0 106 59 171t144 65q50 0 89 -26t57 -74l13 91h99l-55 -315q-4 -29 19 -29h34l-13 -76h-48q-54 0 -72.5 16.5t-18.5 49.5v9q-53 -84 -138 -84zM243 77q53 0 88 40.5t35 102.5q0 55 -27.5 88.5t-75.5 33.5q-55 0 -88 -40.5t-33 -106.5
q0 -54 27 -86t74 -32zM309 479q-48 0 -81 32t-33 77q0 46 33 78t81 32q49 0 82 -32t33 -78q0 -45 -33.5 -77t-81.5 -32zM309 537q21 0 34.5 14t13.5 37q0 24 -13.5 38t-34.5 14t-34.5 -14t-13.5 -38q0 -23 13.5 -37t34.5 -14z" />
    <glyph glyph-name="ae" unicode="&#xe6;" horiz-adv-x="781" 
d="M185 -9q-73 0 -117.5 33t-44.5 91q0 132 175 132h120l2 6q8 46 -13.5 71t-64.5 25q-65 0 -108 -47l-53 62q58 65 164 65q104 0 138 -73q62 73 159 73q104 0 157 -70t38 -180h-325q4 -47 36.5 -76.5t85.5 -29.5q67 0 116 45l59 -64q-73 -63 -175 -63q-128 0 -180 97
q-46 -97 -169 -97zM195 70q95 0 106 74l6 35h-111q-74 0 -74 -55q0 -54 73 -54zM416 247h226q1 45 -25.5 73.5t-77.5 28.5q-49 0 -81 -27.5t-42 -74.5z" />
    <glyph glyph-name="ccedilla" unicode="&#xe7;" horiz-adv-x="455" 
d="M183 -236q-80 0 -109 61l53 29q17 -33 51 -33q20 0 32 11.5t12 30.5q0 43 -48 43h-28l18 103q-57 24 -90 75t-33 119q0 98 65 162t164 64q110 0 169 -80l-73 -57q-34 50 -97 50q-56 0 -91 -39t-35 -100q0 -56 30 -91t81 -35q54 0 96 37l58 -65q-60 -58 -154 -58
q-1 0 -34 3l-7 -41q30 -5 51.5 -29t21.5 -62q0 -45 -30 -71.5t-73 -26.5z" />
    <glyph glyph-name="egrave" unicode="&#xe8;" horiz-adv-x="517" 
d="M143 177q5 -46 37.5 -75t86.5 -29q67 0 117 44l59 -63q-73 -63 -177 -63q-101 0 -162.5 58.5t-61.5 152.5q0 99 68 163t164 64q105 0 159 -70.5t40 -181.5h-330zM146 245h232q-1 46 -28.5 75t-78.5 29q-49 0 -81.5 -27.5t-43.5 -76.5zM244 502l-89 191h115l50 -191h-76z
" />
    <glyph glyph-name="eacute" unicode="&#xe9;" horiz-adv-x="517" 
d="M244 502l89 191h120l-131 -191h-78zM143 177q5 -46 37.5 -75t86.5 -29q67 0 117 44l59 -63q-73 -63 -177 -63q-101 0 -162.5 58.5t-61.5 152.5q0 99 68 163t164 64q105 0 159 -70.5t40 -181.5h-330zM146 245h232q-1 46 -28.5 75t-78.5 29q-49 0 -81.5 -27.5t-43.5 -76.5z
" />
    <glyph glyph-name="ecircumflex" unicode="&#xea;" horiz-adv-x="517" 
d="M142 501l175 205h10l106 -205h-78l-50 91l-79 -91h-84zM143 177q5 -46 37.5 -75t86.5 -29q67 0 117 44l59 -63q-73 -63 -177 -63q-101 0 -162.5 58.5t-61.5 152.5q0 99 68 163t164 64q105 0 159 -70.5t40 -181.5h-330zM146 245h232q-1 46 -28.5 75t-78.5 29
q-49 0 -81.5 -27.5t-43.5 -76.5z" />
    <glyph glyph-name="edieresis" unicode="&#xeb;" horiz-adv-x="517" 
d="M394 523q-23 0 -41 17.5t-18 41.5t18 42t41 18t40.5 -17.5t17.5 -42.5q0 -24 -17 -41.5t-41 -17.5zM211 523q-23 0 -40.5 17.5t-17.5 41.5t17.5 42t40.5 18t41 -18t18 -42t-17.5 -41.5t-41.5 -17.5zM143 177q5 -46 37.5 -75t86.5 -29q67 0 117 44l59 -63
q-73 -63 -177 -63q-101 0 -162.5 58.5t-61.5 152.5q0 99 68 163t164 64q105 0 159 -70.5t40 -181.5h-330zM146 245h232q-1 46 -28.5 75t-78.5 29q-49 0 -81.5 -27.5t-43.5 -76.5z" />
    <glyph glyph-name="igrave" unicode="&#xec;" horiz-adv-x="245" 
d="M140 0q-60 0 -80.5 23.5t-9.5 83.5l54 313h100l-56 -315q-4 -29 19 -29h35l-13 -76h-49zM125 502l-89 191h115l50 -191h-76z" />
    <glyph glyph-name="iacute" unicode="&#xed;" horiz-adv-x="245" 
d="M125 502l89 191h120l-131 -191h-78zM140 0q-60 0 -80.5 23.5t-9.5 83.5l54 313h100l-56 -315q-4 -29 19 -29h35l-13 -76h-49z" />
    <glyph glyph-name="icircumflex" unicode="&#xee;" horiz-adv-x="245" 
d="M22 501l175 205h10l106 -205h-78l-50 91l-79 -91h-84zM140 0q-60 0 -80.5 23.5t-9.5 83.5l54 313h100l-56 -315q-4 -29 19 -29h35l-13 -76h-49z" />
    <glyph glyph-name="idieresis" unicode="&#xef;" horiz-adv-x="245" 
d="M140 0q-59 0 -80 23.5t-11 83.5l55 313h99l-55 -315q-6 -29 18 -29h36l-13 -76h-49zM268 523q-23 0 -41 17.5t-18 41.5t18 42t41 18t40.5 -18t17.5 -42t-17.5 -41.5t-40.5 -17.5zM97 523q-23 0 -40.5 17.5t-17.5 41.5t17.5 42t40.5 18t40.5 -18t17.5 -42t-17.5 -41.5
t-40.5 -17.5z" />
    <glyph glyph-name="eth" unicode="&#xf0;" horiz-adv-x="526" 
d="M254 -9q-92 0 -152.5 60.5t-60.5 155.5q0 98 64 160t147 62q79 0 123 -54q-18 91 -72 179l-71 -56l-38 51l73 58q-34 47 -60 75l63 56q34 -33 69 -75l70 56l39 -51l-71 -56q110 -161 110 -357q0 -124 -62.5 -194t-170.5 -70zM257 75q57 0 91.5 41t34.5 107q0 54 -30.5 88
t-81.5 34q-58 0 -93.5 -39.5t-35.5 -101.5q0 -58 31 -93.5t84 -35.5z" />
    <glyph glyph-name="ntilde" unicode="&#xf1;" horiz-adv-x="513" 
d="M26 0l74 420h99l-17 -80q52 89 143 89q70 0 107 -53t22 -139l-23 -132q-4 -29 19 -29h34l-13 -76h-48q-60 0 -80.5 23.5t-9.5 83.5l21 125q9 52 -10 80t-63 28q-96 0 -115 -108l-41 -232h-99zM216 507l-68 8q9 61 36.5 93t66.5 32q30 0 63 -26q5 -3 11.5 -8.5t10 -8.5
t8 -6t8.5 -4t8 -1q25 0 36 53l68 -7q-8 -61 -35.5 -93t-66.5 -32q-33 0 -64 26q-4 3 -11 8.5t-10 8t-7.5 5.5t-8.5 4t-8 1q-25 0 -37 -53z" />
    <glyph glyph-name="ograve" unicode="&#xf2;" horiz-adv-x="525" 
d="M256 -9q-91 0 -153 60.5t-62 150.5q0 99 66.5 163t163.5 64q91 0 153 -60.5t62 -151.5q0 -99 -66 -162.5t-164 -63.5zM259 76q56 0 90.5 40t34.5 102q0 56 -31.5 90.5t-84.5 34.5q-56 0 -90.5 -40t-34.5 -103q0 -55 32 -89.5t84 -34.5zM252 502l-89 191h115l50 -191h-76z
" />
    <glyph glyph-name="oacute" unicode="&#xf3;" horiz-adv-x="525" 
d="M252 502l89 191h120l-131 -191h-78zM256 -9q-91 0 -153 60.5t-62 150.5q0 99 66.5 163t163.5 64q91 0 153 -60.5t62 -151.5q0 -99 -66 -162.5t-164 -63.5zM259 76q56 0 90.5 40t34.5 102q0 56 -31.5 90.5t-84.5 34.5q-56 0 -90.5 -40t-34.5 -103q0 -55 32 -89.5t84 -34.5
z" />
    <glyph glyph-name="ocircumflex" unicode="&#xf4;" horiz-adv-x="525" 
d="M150 501l175 205h10l106 -205h-78l-50 91l-79 -91h-84zM256 -9q-91 0 -153 60.5t-62 150.5q0 99 66.5 163t163.5 64q91 0 153 -60.5t62 -151.5q0 -99 -66 -162.5t-164 -63.5zM259 76q56 0 90.5 40t34.5 102q0 56 -31.5 90.5t-84.5 34.5q-56 0 -90.5 -40t-34.5 -103
q0 -55 32 -89.5t84 -34.5z" />
    <glyph glyph-name="otilde" unicode="&#xf5;" horiz-adv-x="525" 
d="M256 -9q-91 0 -153 60.5t-62 150.5q0 99 66.5 163t163.5 64q91 0 153 -60.5t62 -151.5q0 -99 -66 -162.5t-164 -63.5zM259 76q56 0 90.5 40t34.5 102q0 56 -31.5 90.5t-84.5 34.5q-56 0 -90.5 -40t-34.5 -103q0 -55 32 -89.5t84 -34.5zM214 507l-68 8q9 61 36.5 93
t66.5 32q30 0 63 -26q5 -3 11.5 -8.5t10 -8.5t8 -6t8.5 -4t8 -1q25 0 36 53l68 -7q-8 -61 -35.5 -93t-66.5 -32q-33 0 -64 26q-4 3 -11 8.5t-10 8t-7.5 5.5t-8.5 4t-8 1q-25 0 -37 -53z" />
    <glyph glyph-name="odieresis" unicode="&#xf6;" horiz-adv-x="525" 
d="M402 523q-23 0 -41 17.5t-18 41.5t18 42t41 18t40.5 -17.5t17.5 -42.5q0 -24 -17 -41.5t-41 -17.5zM219 523q-23 0 -40.5 17.5t-17.5 41.5t17.5 42t40.5 18t41 -18t18 -42t-17.5 -41.5t-41.5 -17.5zM256 -9q-91 0 -153 60.5t-62 150.5q0 99 66.5 163t163.5 64
q91 0 153 -60.5t62 -151.5q0 -99 -66 -162.5t-164 -63.5zM259 76q56 0 90.5 40t34.5 102q0 56 -31.5 90.5t-84.5 34.5q-56 0 -90.5 -40t-34.5 -103q0 -55 32 -89.5t84 -34.5z" />
    <glyph glyph-name="divide" unicode="&#xf7;" horiz-adv-x="386" 
d="M231 354q-26 0 -45 18.5t-19 46.5t19 46t45 18t44.5 -18t18.5 -46t-18.5 -46.5t-44.5 -18.5zM176 36q-26 0 -45 19t-19 46q0 28 19 46.5t45 18.5t44.5 -18.5t18.5 -46.5q0 -27 -18.5 -46t-44.5 -19zM41 218l15 84h309l-15 -84h-309z" />
    <glyph glyph-name="oslash" unicode="&#xf8;" horiz-adv-x="525" 
d="M453 333q33 -52 33 -116q0 -99 -66 -162.5t-164 -63.5q-81 0 -141 50l-63 -54l-39 48l61 52q-33 52 -33 115q0 99 66.5 163t163.5 64q83 0 141 -50l63 54l37 -49zM146 150l199 171q-32 27 -77 27q-58 0 -94 -41.5t-36 -106.5q0 -26 8 -50zM380 270l-199 -172
q32 -27 78 -27q59 0 94.5 41t35.5 106q0 30 -9 52z" />
    <glyph glyph-name="ugrave" unicode="&#xf9;" horiz-adv-x="515" 
d="M185 -9q-70 0 -107.5 52.5t-22.5 138.5l42 238h99l-41 -233q-9 -51 10 -79.5t64 -28.5q94 0 115 109l41 232h99l-55 -315q-6 -29 18 -29h34l-13 -76h-48q-53 0 -72.5 18t-18.5 49v7q-54 -83 -144 -83zM266 502l-89 191h115l50 -191h-76z" />
    <glyph glyph-name="uacute" unicode="&#xfa;" horiz-adv-x="515" 
d="M265 502l89 191h120l-131 -191h-78zM185 -9q-70 0 -107.5 52.5t-22.5 138.5l42 238h99l-41 -233q-9 -51 10 -79.5t64 -28.5q94 0 115 109l41 232h99l-55 -315q-6 -29 18 -29h34l-13 -76h-48q-53 0 -72.5 18t-18.5 49v7q-54 -83 -144 -83z" />
    <glyph glyph-name="ucircumflex" unicode="&#xfb;" horiz-adv-x="515" 
d="M163 501l175 205h10l106 -205h-78l-50 91l-79 -91h-84zM185 -9q-70 0 -107.5 52.5t-22.5 138.5l42 238h99l-41 -233q-9 -51 10 -79.5t64 -28.5q94 0 115 109l41 232h99l-55 -315q-6 -29 18 -29h34l-13 -76h-48q-53 0 -72.5 18t-18.5 49v7q-54 -83 -144 -83z" />
    <glyph glyph-name="udieresis" unicode="&#xfc;" horiz-adv-x="515" 
d="M415 523q-23 0 -41 17.5t-18 41.5t18 42t41 18t40.5 -17.5t17.5 -42.5q0 -24 -17.5 -41.5t-40.5 -17.5zM232 523q-23 0 -40.5 17.5t-17.5 41.5t17.5 42t40.5 18q24 0 41.5 -18t17.5 -42t-17.5 -41.5t-41.5 -17.5zM185 -9q-70 0 -107.5 52.5t-22.5 138.5l42 238h99
l-41 -233q-9 -51 10 -79.5t64 -28.5q94 0 115 109l41 232h99l-55 -315q-6 -29 18 -29h34l-13 -76h-48q-53 0 -72.5 18t-18.5 49v7q-54 -83 -144 -83z" />
    <glyph glyph-name="yacute" unicode="&#xfd;" horiz-adv-x="465" 
d="M15 -212l149 256l-111 376h105l56 -209q4 -14 6.5 -33.5t4.5 -34.5t2 -16q7 34 33 82l120 211h105l-365 -632h-105zM236 502l89 191h120l-131 -191h-78z" />
    <glyph glyph-name="thorn" unicode="&#xfe;" horiz-adv-x="535" 
d="M-11 -212l164 934h99l-66 -374q49 81 137 81q77 0 126 -55.5t49 -146.5q0 -103 -60 -169.5t-145 -66.5q-53 0 -93 27t-59 74l-53 -304h-99zM268 77q57 0 92 41t35 106q0 54 -28.5 86t-77.5 32q-56 0 -92.5 -40t-36.5 -103q0 -54 29 -88t79 -34z" />
    <glyph glyph-name="ydieresis" unicode="&#xff;" horiz-adv-x="465" 
d="M15 -212l149 256l-111 376h105l56 -209q4 -14 6.5 -33.5t4.5 -34.5t2 -16q7 34 33 82l120 211h105l-365 -632h-105zM385 523q-23 0 -41 17.5t-18 41.5t18 42t41 18t40.5 -17.5t17.5 -42.5q0 -24 -17.5 -41.5t-40.5 -17.5zM202 523q-23 0 -40.5 17.5t-17.5 41.5t17.5 42
t40.5 18q24 0 41.5 -18t17.5 -42t-17.5 -41.5t-41.5 -17.5z" />
    <glyph glyph-name="Amacron" unicode="&#x100;" horiz-adv-x="646" 
d="M-7 0l405 687h12l172 -687h-105l-29 126h-279l-73 -126h-103zM218 210h210l-43 186q-14 55 -14 95l-3 -7q-2 -6 -6.5 -15.5t-10 -21t-12.5 -25t-13 -24.5zM287 760l14 74h244l-14 -74h-244z" />
    <glyph glyph-name="amacron" unicode="&#x101;" horiz-adv-x="530" 
d="M208 -9q-73 0 -121 55.5t-48 146.5q0 106 59 171t144 65q50 0 89 -26t57 -74l13 91h99l-55 -315q-4 -29 19 -29h34l-13 -76h-48q-54 0 -72.5 16.5t-18.5 49.5v9q-53 -84 -138 -84zM243 77q53 0 88 40.5t35 102.5q0 55 -27.5 88.5t-75.5 33.5q-55 0 -88 -40.5t-33 -106.5
q0 -54 27 -86t74 -32zM182 529l14 74h244l-14 -74h-244z" />
    <glyph glyph-name="Abreve" unicode="&#x102;" horiz-adv-x="646" 
d="M-7 0l405 687h12l172 -687h-105l-29 126h-279l-73 -126h-103zM218 210h210l-43 186q-14 55 -14 95l-3 -7q-2 -6 -6.5 -15.5t-10 -21t-12.5 -25t-13 -24.5zM417 744q-61 0 -97.5 36t-40.5 92l78 12q9 -65 60 -65q54 0 71 65l76 -13q-10 -56 -48.5 -91.5t-98.5 -35.5z" />
    <glyph glyph-name="abreve" unicode="&#x103;" horiz-adv-x="530" 
d="M208 -9q-73 0 -121 55.5t-48 146.5q0 106 59 171t144 65q50 0 89 -26t57 -74l13 91h99l-55 -315q-4 -29 19 -29h34l-13 -76h-48q-54 0 -72.5 16.5t-18.5 49.5v9q-53 -84 -138 -84zM243 77q53 0 88 40.5t35 102.5q0 55 -27.5 88.5t-75.5 33.5q-55 0 -88 -40.5t-33 -106.5
q0 -54 27 -86t74 -32zM309 500q-61 0 -97.5 36t-40.5 92l78 12q9 -65 60 -65q54 0 71 65l76 -13q-10 -56 -48.5 -91.5t-98.5 -35.5z" />
    <glyph glyph-name="Aogonek" unicode="&#x104;" horiz-adv-x="646" 
d="M503 0h-26l-29 126h-279l-73 -126h-103l405 687h12l168 -671l-61 -77q-24 -30 -32.5 -45.5t-8.5 -35.5q0 -17 10 -26.5t26 -9.5q24 0 47 32l52 -30q-33 -60 -103 -60q-42 0 -71.5 23.5t-29.5 66.5q0 57 57 110zM218 210h210l-43 186q-14 55 -14 95l-3 -7
q-2 -6 -6.5 -15.5t-10 -21t-12.5 -25t-13 -24.5z" />
    <glyph glyph-name="aogonek" unicode="&#x105;" horiz-adv-x="530" 
d="M416 1l-51 -62q-22 -27 -31 -44t-9 -37q0 -17 10 -26.5t26 -9.5q24 0 47 32l52 -30q-33 -60 -104 -60q-41 0 -70.5 23.5t-29.5 66.5q0 57 60 113l3.5 3.5t9.5 9t13 12l12 11t10 9.5l3 3q-21 16 -21 51v9q-53 -84 -138 -84q-73 0 -121 55.5t-48 146.5q0 106 59 171t144 65
q50 0 89 -26t57 -74l13 91h99l-55 -315q-4 -29 19 -29h34l-13 -76h-48q-15 0 -21 1zM243 77q53 0 88 40.5t35 102.5q0 55 -27.5 88.5t-75.5 33.5q-55 0 -88 -40.5t-33 -106.5q0 -54 27 -86t74 -32z" />
    <glyph glyph-name="Cacute" unicode="&#x106;" horiz-adv-x="710" 
d="M406 747l89 191h120l-131 -191h-78zM393 -9q-140 0 -232 95t-92 237q0 156 106 260.5t256 104.5q177 0 266 -136l-83 -56q-64 100 -186 100q-108 0 -179.5 -78.5t-71.5 -194.5q0 -105 62 -172.5t157 -67.5q117 0 195 92l76 -62q-51 -63 -116.5 -92.5t-157.5 -29.5z" />
    <glyph glyph-name="cacute" unicode="&#x107;" horiz-adv-x="454" 
d="M239 502l89 191h120l-131 -191h-78zM254 -9q-93 0 -153 59.5t-60 152.5q0 98 65 162t164 64q111 0 168 -80l-72 -57q-34 50 -97 50q-56 0 -91 -39t-35 -100q0 -56 30 -91t81 -35q54 0 96 37l58 -65q-60 -58 -154 -58z" />
    <glyph glyph-name="Ccircumflex" unicode="&#x108;" horiz-adv-x="710" 
d="M303 746l175 205h10l106 -205h-78l-50 91l-79 -91h-84zM393 -9q-140 0 -232 95t-92 237q0 156 106 260.5t256 104.5q177 0 266 -136l-83 -56q-64 100 -186 100q-108 0 -179.5 -78.5t-71.5 -194.5q0 -105 62 -172.5t157 -67.5q117 0 195 92l76 -62q-51 -63 -116.5 -92.5
t-157.5 -29.5z" />
    <glyph glyph-name="ccircumflex" unicode="&#x109;" horiz-adv-x="454" 
d="M137 501l175 205h10l106 -205h-78l-50 91l-79 -91h-84zM254 -9q-93 0 -153 59.5t-60 152.5q0 98 65 162t164 64q111 0 168 -80l-72 -57q-34 50 -97 50q-56 0 -91 -39t-35 -100q0 -56 30 -91t81 -35q54 0 96 37l58 -65q-60 -58 -154 -58z" />
    <glyph glyph-name="Cdotaccent" unicode="&#x10a;" horiz-adv-x="710" 
d="M393 -9q-140 0 -232 95t-92 237q0 156 106 260.5t256 104.5q177 0 266 -136l-83 -56q-64 100 -186 100q-108 0 -179.5 -78.5t-71.5 -194.5q0 -105 62 -172.5t157 -67.5q117 0 195 92l76 -62q-51 -63 -116.5 -92.5t-157.5 -29.5zM461 745q-26 0 -45 18.5t-19 46.5t18.5 46
t45.5 18t46 -18t19 -46q0 -29 -19 -47t-46 -18z" />
    <glyph glyph-name="cdotaccent" unicode="&#x10b;" horiz-adv-x="455" 
d="M254 -9q-93 0 -153 59.5t-60 152.5q0 98 65 162t164 64q111 0 168 -80l-72 -57q-34 50 -97 50q-56 0 -91 -39t-35 -100q0 -56 30 -91t81 -35q54 0 96 37l58 -65q-60 -58 -154 -58zM297 518q-26 0 -45 18.5t-19 46.5t18.5 46t45.5 18t46 -18t19 -46q0 -29 -19 -47t-46 -18
z" />
    <glyph glyph-name="Ccaron" unicode="&#x10c;" horiz-adv-x="710" 
d="M444 733l-106 205h78l50 -91l79 91h84l-175 -205h-10zM393 -9q-140 0 -232 95t-92 237q0 156 106 260.5t256 104.5q177 0 266 -136l-83 -56q-64 100 -186 100q-108 0 -179.5 -78.5t-71.5 -194.5q0 -105 62 -172.5t157 -67.5q117 0 195 92l76 -62q-51 -63 -116.5 -92.5
t-157.5 -29.5z" />
    <glyph glyph-name="ccaron" unicode="&#x10d;" horiz-adv-x="455" 
d="M276 487l-106 205h78l50 -91l79 91h84l-175 -205h-10zM254 -9q-93 0 -153 59.5t-60 152.5q0 98 65 162t164 64q111 0 168 -80l-72 -57q-34 50 -97 50q-56 0 -91 -39t-35 -100q0 -56 30 -91t81 -35q54 0 96 37l58 -65q-60 -58 -154 -58z" />
    <glyph glyph-name="Dcaron" unicode="&#x10e;" horiz-adv-x="663" 
d="M380 733l-106 205h78l50 -91l79 91h84l-175 -205h-10zM43 0l120 680h166q149 0 232 -84t83 -224q0 -170 -107 -271t-283 -101h-211zM162 90h92q138 0 210.5 79t72.5 207q0 99 -54.5 156.5t-165.5 57.5h-67z" />
    <glyph glyph-name="dcaron" unicode="&#x10f;" horiz-adv-x="656" 
d="M590 452l56 114q-36 18 -36 58q0 27 19 45.5t45 18.5q27 0 45 -18.5t18 -46.5q0 -29 -25 -64l-71 -107h-51zM213 -9q-76 0 -125 56t-49 146q0 106 60.5 171t147.5 65q51 0 90.5 -25t58.5 -69l69 387h99l-109 -617q-4 -29 19 -29h34l-13 -76h-48q-54 0 -73 16.5t-19 50.5
l1 10q-49 -86 -143 -86zM247 77q56 0 92.5 40.5t36.5 102.5q1 54 -28.5 88t-79.5 34q-57 0 -91.5 -40.5t-34.5 -106.5q0 -54 28.5 -86t76.5 -32z" />
    <glyph glyph-name="Dcroat" unicode="&#x110;" horiz-adv-x="663" 
d="M43 0l52 296h-67l16 88h67l52 296h166q148 0 231.5 -84t83.5 -224q0 -170 -107 -271t-283 -101h-211zM162 90h92q138 0 210.5 79t72.5 207q0 99 -54.5 156.5t-165.5 57.5h-66l-37 -206h166l-16 -88h-166z" />
    <glyph glyph-name="dcroat" unicode="&#x111;" horiz-adv-x="542" 
d="M427 509h-133l15 83h133l23 130h99l-23 -130h70l-15 -83h-70l-71 -404q-4 -29 19 -29h34l-13 -76h-48q-54 0 -73 16.5t-19 50.5l1 10q-49 -86 -143 -86q-76 0 -125 56t-49 146q0 106 60.5 171t147.5 65q51 0 90.5 -25t58.5 -69zM247 77q56 0 92.5 40.5t36.5 102.5
q1 54 -28.5 88t-79.5 34q-57 0 -91.5 -40.5t-34.5 -106.5q0 -54 28.5 -86t76.5 -32z" />
    <glyph glyph-name="Emacron" unicode="&#x112;" horiz-adv-x="571" 
d="M43 0l120 680h423l-16 -90h-320l-36 -204h283l-16 -89h-283l-37 -207h335l-17 -90h-436zM267 760l14 74h244l-14 -74h-244z" />
    <glyph glyph-name="emacron" unicode="&#x113;" horiz-adv-x="517" 
d="M143 177q5 -46 37.5 -75t86.5 -29q67 0 117 44l59 -63q-73 -63 -177 -63q-101 0 -162.5 58.5t-61.5 152.5q0 99 68 163t164 64q105 0 159 -70.5t40 -181.5h-330zM146 245h232q-1 46 -28.5 75t-78.5 29q-49 0 -81.5 -27.5t-43.5 -76.5zM171 529l14 74h244l-14 -74h-244z
" />
    <glyph glyph-name="Edotaccent" unicode="&#x116;" horiz-adv-x="571" 
d="M43 0l120 680h423l-16 -90h-320l-36 -204h283l-16 -89h-283l-37 -207h335l-17 -90h-436zM395 745q-26 0 -45 18.5t-19 46.5t18.5 46t45.5 18t46 -18t19 -46q0 -29 -19 -47t-46 -18z" />
    <glyph glyph-name="edotaccent" unicode="&#x117;" horiz-adv-x="517" 
d="M143 177q5 -46 37.5 -75t86.5 -29q67 0 117 44l59 -63q-73 -63 -177 -63q-101 0 -162.5 58.5t-61.5 152.5q0 99 68 163t164 64q105 0 159 -70.5t40 -181.5h-330zM146 245h232q-1 46 -28.5 75t-78.5 29q-49 0 -81.5 -27.5t-43.5 -76.5zM302 518q-26 0 -45 18.5t-19 46.5
t18.5 46t45.5 18t46 -18t19 -46q0 -29 -19 -47t-46 -18z" />
    <glyph glyph-name="Eogonek" unicode="&#x118;" horiz-adv-x="571" 
d="M369 -236q-42 0 -71.5 23.5t-29.5 66.5q0 57 57 110l39 36h-321l120 680h423l-16 -90h-320l-36 -204h283l-16 -89h-283l-37 -207h335l-17 -90h-52l-49 -61q-23 -28 -32 -44.5t-9 -36.5q0 -17 10 -26.5t26 -9.5q24 0 47 32l52 -30q-33 -60 -103 -60z" />
    <glyph glyph-name="eogonek" unicode="&#x119;" horiz-adv-x="517" 
d="M146 245h232q-1 46 -28.5 75t-78.5 29q-49 0 -81.5 -27.5t-43.5 -76.5zM266 -9q-101 0 -162.5 58.5t-61.5 152.5q0 99 68 163t164 64q105 0 159 -70.5t40 -181.5h-330q5 -46 37.5 -75t86.5 -29q68 0 117 45l59 -64q-8 -8 -42 -32t-54 -50l-27 -33q-23 -28 -31.5 -44
t-8.5 -37q0 -36 35 -36q24 0 47 32l52 -30q-33 -60 -103 -60q-42 0 -71.5 23.5t-29.5 66.5q0 57 57 110l32 30q-18 -3 -33 -3z" />
    <glyph glyph-name="Ecaron" unicode="&#x11a;" horiz-adv-x="571" 
d="M378 733l-106 205h78l50 -91l79 91h84l-175 -205h-10zM43 0l120 680h423l-16 -90h-320l-36 -204h283l-16 -89h-283l-37 -207h335l-17 -90h-436z" />
    <glyph glyph-name="ecaron" unicode="&#x11b;" horiz-adv-x="517" 
d="M281 487l-106 205h78l50 -91l79 91h84l-175 -205h-10zM143 177q5 -46 37.5 -75t86.5 -29q67 0 117 44l59 -63q-73 -63 -177 -63q-101 0 -162.5 58.5t-61.5 152.5q0 99 68 163t164 64q105 0 159 -70.5t40 -181.5h-330zM146 245h232q-1 46 -28.5 75t-78.5 29
q-49 0 -81.5 -27.5t-43.5 -76.5z" />
    <glyph glyph-name="Gcircumflex" unicode="&#x11c;" horiz-adv-x="741" 
d="M296 746l175 205h10l106 -205h-78l-50 91l-79 -91h-84zM415 -9q-156 0 -249 91.5t-93 240.5q0 160 107 262.5t257 102.5q159 0 246 -93l-73 -69q-63 70 -176 70q-109 0 -182 -76.5t-73 -195.5q0 -110 63.5 -176t173.5 -66q81 0 153 37l24 139h-180l16 90h275l-50 -285
q-99 -72 -239 -72z" />
    <glyph glyph-name="gcircumflex" unicode="&#x11d;" horiz-adv-x="534" 
d="M162 501l175 205h10l106 -205h-78l-50 91l-79 -91h-84zM199 -222q-71 0 -123 27t-77 68l68 60q49 -70 132 -70q111 0 136 127l15 78q-52 -77 -137 -77q-76 0 -124.5 56t-48.5 146q0 106 60.5 171t147.5 65q52 0 92.5 -26t58.5 -74l13 91h99l-78 -443
q-18 -102 -79.5 -150.5t-154.5 -48.5zM248 77q56 0 92.5 40.5t36.5 102.5q0 55 -29 88.5t-79 33.5q-57 0 -91.5 -40.5t-34.5 -106.5q0 -54 28.5 -86t76.5 -32z" />
    <glyph glyph-name="Gbreve" unicode="&#x11e;" horiz-adv-x="741" 
d="M415 -9q-156 0 -249 91.5t-93 240.5q0 160 107 262.5t257 102.5q159 0 246 -93l-73 -69q-63 70 -176 70q-109 0 -182 -76.5t-73 -195.5q0 -110 63.5 -176t173.5 -66q81 0 153 37l24 139h-180l16 90h275l-50 -285q-99 -72 -239 -72zM453 744q-61 0 -97.5 36t-40.5 92
l78 12q9 -65 60 -65q54 0 71 65l76 -13q-10 -56 -48.5 -91.5t-98.5 -35.5z" />
    <glyph glyph-name="gbreve" unicode="&#x11f;" horiz-adv-x="534" 
d="M199 -222q-71 0 -123 27t-77 68l68 60q49 -70 132 -70q111 0 136 127l15 78q-52 -77 -137 -77q-76 0 -124.5 56t-48.5 146q0 106 60.5 171t147.5 65q52 0 92.5 -26t58.5 -74l13 91h99l-78 -443q-18 -102 -79.5 -150.5t-154.5 -48.5zM248 77q56 0 92.5 40.5t36.5 102.5
q0 55 -29 88.5t-79 33.5q-57 0 -91.5 -40.5t-34.5 -106.5q0 -54 28.5 -86t76.5 -32zM317 500q-61 0 -97.5 36t-40.5 92l78 12q9 -65 60 -65q54 0 71 65l76 -13q-10 -56 -48.5 -91.5t-98.5 -35.5z" />
    <glyph glyph-name="Gdotaccent" unicode="&#x120;" horiz-adv-x="741" 
d="M415 -9q-156 0 -249 91.5t-93 240.5q0 160 107 262.5t257 102.5q159 0 246 -93l-73 -69q-63 70 -176 70q-109 0 -182 -76.5t-73 -195.5q0 -110 63.5 -176t173.5 -66q81 0 153 37l24 139h-180l16 90h275l-50 -285q-99 -72 -239 -72zM454 745q-26 0 -45 18.5t-19 46.5
t18.5 46t45.5 18t46 -18t19 -46q0 -29 -19 -47t-46 -18z" />
    <glyph glyph-name="gdotaccent" unicode="&#x121;" horiz-adv-x="533" 
d="M199 -222q-71 0 -123 27t-77 68l68 60q49 -70 132 -70q111 0 136 127l15 78q-52 -77 -137 -77q-76 0 -124.5 56t-48.5 146q0 106 60.5 171t147.5 65q52 0 92.5 -26t58.5 -74l13 91h99l-78 -443q-18 -102 -79.5 -150.5t-154.5 -48.5zM248 77q56 0 92.5 40.5t36.5 102.5
q0 55 -29 88.5t-79 33.5q-57 0 -91.5 -40.5t-34.5 -106.5q0 -54 28.5 -86t76.5 -32zM322 518q-26 0 -45 18.5t-19 46.5t18.5 46t45.5 18t46 -18t19 -46q0 -29 -19 -47t-46 -18z" />
    <glyph glyph-name="Gcommaaccent" unicode="&#x122;" horiz-adv-x="741" 
d="M245 -269l48 100q-34 17 -34 57q0 26 19 43.5t44 17.5q26 0 44 -17t18 -43q0 -32 -25 -66l-63 -92h-51zM415 -9q-156 0 -249 91.5t-93 240.5q0 160 107 262.5t257 102.5q159 0 246 -93l-73 -69q-63 70 -176 70q-109 0 -182 -76.5t-73 -195.5q0 -110 63.5 -176t173.5 -66
q81 0 153 37l24 139h-180l16 90h275l-50 -285q-99 -72 -239 -72z" />
    <glyph glyph-name="gcommaaccent" unicode="&#x123;" horiz-adv-x="533" 
d="M382 730l-48 -100q34 -17 34 -57q0 -26 -19 -43.5t-44 -17.5q-26 0 -44 17t-18 43q0 32 25 66l63 92h51zM199 -222q-71 0 -123 27t-77 68l68 60q49 -70 132 -70q111 0 136 127l15 78q-52 -77 -137 -77q-76 0 -124.5 56t-48.5 146q0 106 60.5 171t147.5 65q52 0 92.5 -26
t58.5 -74l13 91h99l-78 -443q-18 -102 -79.5 -150.5t-154.5 -48.5zM248 77q56 0 92.5 40.5t36.5 102.5q0 55 -29 88.5t-79 33.5q-57 0 -91.5 -40.5t-34.5 -106.5q0 -54 28.5 -86t76.5 -32z" />
    <glyph glyph-name="Hcircumflex" unicode="&#x124;" horiz-adv-x="686" 
d="M287 746l175 205h10l106 -205h-78l-50 91l-79 -91h-84zM43 0l120 680h103l-54 -304h321l54 304h103l-120 -680h-103l50 285h-321l-50 -285h-103z" />
    <glyph glyph-name="hcircumflex" unicode="&#x125;" horiz-adv-x="517" 
d="M176 767l175 205h10l106 -205h-78l-50 91l-79 -91h-84zM29 0l127 722h99l-66 -377q53 84 140 84q70 0 107 -53t22 -139l-24 -132q-4 -29 19 -29h34l-13 -76h-43q-57 0 -80.5 26.5t-13.5 83.5l21 122q9 52 -10 80t-63 28q-97 0 -116 -108l-41 -232h-99z" />
    <glyph glyph-name="Hbar" unicode="&#x126;" horiz-adv-x="686" 
d="M50 466l13 71h74l26 143h103l-26 -143h321l26 143h103l-26 -143h76l-12 -71h-76l-82 -466h-103l50 285h-321l-50 -285h-103l82 466h-75zM212 376h321l16 90h-321z" />
    <glyph glyph-name="hbar" unicode="&#x127;" horiz-adv-x="517" 
d="M48 510l15 82h70l23 130h99l-23 -130h133l-16 -82h-131l-29 -165q53 84 140 84q70 0 107 -53t22 -139l-24 -132q-4 -29 19 -29h34l-13 -76h-43q-57 0 -80.5 26.5t-13.5 84.5l21 121q9 52 -10 80t-63 28q-95 0 -116 -108l-41 -232h-99l89 510h-70z" />
    <glyph glyph-name="Imacron" unicode="&#x12a;" horiz-adv-x="271" 
d="M48 0l120 680h103l-120 -680h-103zM115 760l13 74h237l-13 -74h-237z" />
    <glyph glyph-name="imacron" unicode="&#x12b;" horiz-adv-x="245" 
d="M140 0q-59 0 -80 23.5t-11 83.5l55 313h99l-55 -315q-6 -29 18 -29h36l-13 -76h-49zM64 529l13 74h217l-13 -74h-217z" />
    <glyph glyph-name="Iogonek" unicode="&#x12e;" horiz-adv-x="271" 
d="M74 0h-26l120 680h103l-116 -658l-67 -83q-24 -30 -32.5 -45.5t-8.5 -35.5q0 -17 10 -26.5t26 -9.5q24 0 47 32l52 -30q-33 -60 -103 -60q-42 0 -71.5 23.5t-29.5 66.5q0 57 57 110z" />
    <glyph glyph-name="iogonek" unicode="&#x12f;" horiz-adv-x="245" 
d="M29 -36q44 42 48 46q-40 21 -26 97l54 313h100l-56 -315q-4 -29 19 -29h35l-13 -76h-59l-50 -61q-23 -29 -31.5 -45t-8.5 -36q0 -17 10 -26.5t26 -9.5q24 0 47 32l52 -30q-33 -60 -104 -60q-41 0 -70.5 23.5t-29.5 66.5q0 57 57 110zM184 518q-26 0 -45.5 18.5
t-19.5 46.5t19 46t45 18q27 0 46.5 -18t19.5 -46q0 -29 -19 -47t-46 -18z" />
    <glyph glyph-name="Idotaccent" unicode="&#x130;" horiz-adv-x="270" 
d="M48 0l120 680h103l-120 -680h-103zM242 745q-26 0 -45 18.5t-19 46.5t18.5 46t45.5 18t46 -18t19 -46q0 -29 -19 -47t-46 -18z" />
    <glyph glyph-name="dotlessi" unicode="&#x131;" horiz-adv-x="245" 
d="M140 0q-60 0 -80.5 23.5t-9.5 83.5l54 313h100l-56 -315q-4 -29 19 -29h35l-13 -76h-49z" />
    <glyph glyph-name="Jcircumflex" unicode="&#x134;" horiz-adv-x="470" 
d="M291 746l175 205h10l106 -205h-78l-50 91l-79 -91h-84zM189 -9q-70 0 -117.5 33t-68.5 84l87 48q33 -72 101 -72q42 0 64.5 22.5t32.5 76.5l88 497h103l-90 -510q-16 -93 -65.5 -136t-134.5 -43z" />
    <glyph glyph-name="jcircumflex" unicode="&#x135;" horiz-adv-x="240" 
d="M-21 -222q-68 0 -105 44l53 61q18 -21 44 -21q37 0 44 47l90 511h100l-90 -508q-23 -134 -136 -134zM24 501l175 205h10l106 -205h-78l-50 91l-79 -91h-84z" />
    <glyph glyph-name="Kcommaaccent" unicode="&#x136;" horiz-adv-x="613" 
d="M189 -269l48 100q-34 17 -34 57q0 26 19 43.5t44 17.5q26 0 44 -17t18 -43q0 -32 -25 -66l-63 -92h-51zM43 0l120 680h103l-46 -265q-6 -32 -25 -97q36 55 73 92l262 270h120l-294 -304l198 -376h-116l-158 303l-97 -92l-36 -211h-104z" />
    <glyph glyph-name="kcommaaccent" unicode="&#x137;" horiz-adv-x="476" 
d="M116 -269l48 100q-34 17 -34 57q0 26 19 43.5t44 17.5q26 0 44 -17t18 -43q0 -32 -25 -66l-63 -92h-51zM150 127l-22 -127h-99l127 722h99l-74 -417q-7 -42 -19 -79l195 194h115l-179 -177l80 -144q12 -23 34 -23h29l-13 -76h-38q-41 0 -61.5 14.5t-40.5 52.5l-66 119z
" />
    <glyph glyph-name="Lacute" unicode="&#x139;" horiz-adv-x="529" 
d="M183 747l89 191h120l-131 -191h-78zM43 0l120 680h103l-104 -589h309l-16 -91h-412z" />
    <glyph glyph-name="lacute" unicode="&#x13a;" horiz-adv-x="246" 
d="M179 768l89 191h120l-131 -191h-78zM143 0q-60 0 -80.5 23.5t-9.5 83.5l108 615h99l-109 -617q-4 -29 19 -29h41l-13 -76h-55z" />
    <glyph glyph-name="Lcommaaccent" unicode="&#x13b;" horiz-adv-x="529" 
d="M155 -269l48 100q-34 17 -34 57q0 26 19 43.5t44 17.5q26 0 44 -17t18 -43q0 -32 -25 -66l-63 -92h-51zM43 0l120 680h103l-104 -589h309l-16 -91h-412z" />
    <glyph glyph-name="lcommaaccent" unicode="&#x13c;" horiz-adv-x="247" 
d="M15 -269l48 100q-34 17 -34 57q0 26 19 43.5t44 17.5q26 0 44 -17t18 -43q0 -32 -25 -66l-63 -92h-51zM143 0q-60 0 -80.5 23.5t-9.5 83.5l108 615h99l-109 -617q-4 -29 19 -29h41l-13 -76h-55z" />
    <glyph glyph-name="Lcaron" unicode="&#x13d;" horiz-adv-x="529" 
d="M366 452l56 114q-36 18 -36 58q0 27 19 45.5t45 18.5q27 0 45 -18.5t18 -46.5q0 -29 -25 -64l-71 -107h-51zM43 0l120 680h103l-104 -589h309l-16 -91h-412z" />
    <glyph glyph-name="lcaron" unicode="&#x13e;" horiz-adv-x="347" 
d="M282 452l56 114q-36 18 -36 58q0 27 19 45.5t45 18.5q27 0 45 -18.5t18 -46.5q0 -29 -25 -64l-71 -107h-51zM143 0q-60 0 -80.5 23.5t-9.5 83.5l108 615h99l-109 -617q-4 -29 19 -29h41l-13 -76h-55z" />
    <glyph glyph-name="Lslash" unicode="&#x141;" horiz-adv-x="536" 
d="M50 0l41 236l-77 -27l16 91l77 28l62 352h103l-55 -315l201 71l-16 -91l-201 -72l-32 -182h308l-16 -91h-411z" />
    <glyph glyph-name="lslash" unicode="&#x142;" horiz-adv-x="282" 
d="M160 0q-60 0 -80.5 23.5t-9.5 83.5l23 130l-82 -43l17 97l82 44l68 387h99l-58 -329l88 48l-16 -98l-89 -48l-34 -190q-4 -29 19 -29h42l-13 -76h-56z" />
    <glyph glyph-name="Nacute" unicode="&#x143;" horiz-adv-x="690" 
d="M561 -7l-295 408q-28 36 -50 79q0 -46 -10 -99l-67 -381h-96l121 687h13l296 -408q8 -10 17 -24.5t15 -25.5t11.5 -20.5t5.5 -10.5q0 46 10 101l67 381h96l-121 -687h-13zM385 747l89 191h120l-131 -191h-78z" />
    <glyph glyph-name="nacute" unicode="&#x144;" horiz-adv-x="513" 
d="M253 502l89 191h120l-131 -191h-78zM26 0l74 420h99l-17 -80q52 89 143 89q70 0 107 -53t22 -139l-23 -132q-4 -29 19 -29h34l-13 -76h-48q-60 0 -80.5 23.5t-9.5 83.5l21 125q9 52 -10 80t-63 28q-96 0 -115 -108l-41 -232h-99z" />
    <glyph glyph-name="Ncommaaccent" unicode="&#x145;" horiz-adv-x="690" 
d="M561 -7l-295 408q-28 36 -50 79q0 -46 -10 -99l-67 -381h-96l121 687h13l296 -408q11 -14 23 -34t19 -33l7 -14q2 57 10 101l67 381h96l-121 -687h-13zM236 -269l48 100q-34 17 -34 57q0 26 19 43.5t44 17.5q26 0 44 -17t18 -43q0 -32 -25 -66l-63 -92h-51z" />
    <glyph glyph-name="ncommaaccent" unicode="&#x146;" horiz-adv-x="512" 
d="M141 -269l48 100q-34 17 -34 57q0 26 19 43.5t44 17.5q26 0 44 -17t18 -43q0 -32 -25 -66l-63 -92h-51zM26 0l74 420h99l-17 -80q52 89 143 89q70 0 107 -53t22 -139l-23 -132q-4 -29 19 -29h34l-13 -76h-48q-60 0 -80.5 23.5t-9.5 83.5l21 125q9 52 -10 80t-63 28
q-96 0 -115 -108l-41 -232h-99z" />
    <glyph glyph-name="Ncaron" unicode="&#x147;" horiz-adv-x="690" 
d="M561 -7l-295 408q-28 36 -50 79q0 -46 -10 -99l-67 -381h-96l121 687h13l296 -408q11 -14 23 -34t19 -33l7 -14q2 57 10 101l67 381h96l-121 -687h-13zM423 733l-106 205h78l50 -91l79 91h84l-175 -205h-10z" />
    <glyph glyph-name="ncaron" unicode="&#x148;" horiz-adv-x="512" 
d="M291 487l-106 205h78l50 -91l79 91h84l-175 -205h-10zM26 0l74 420h99l-17 -80q52 89 143 89q70 0 107 -53t22 -139l-23 -132q-4 -29 19 -29h34l-13 -76h-48q-60 0 -80.5 23.5t-9.5 83.5l21 125q9 52 -10 80t-63 28q-96 0 -115 -108l-41 -232h-99z" />
    <glyph glyph-name="Omacron" unicode="&#x14c;" horiz-adv-x="782" 
d="M338 760l14 74h244l-14 -74h-244zM397 -9q-140 0 -233.5 93.5t-93.5 238.5q0 161 105.5 263t257.5 102q140 0 233.5 -93t93.5 -238q0 -161 -106 -263.5t-257 -102.5zM400 83q112 0 183 77t71 199q0 106 -62.5 171.5t-161.5 65.5q-112 0 -183 -77t-71 -198q0 -106 62 -172
t162 -66z" />
    <glyph glyph-name="omacron" unicode="&#x14d;" horiz-adv-x="525" 
d="M179 529l14 74h244l-14 -74h-244zM256 -9q-91 0 -153 60.5t-62 150.5q0 99 66.5 163t163.5 64q91 0 153 -60.5t62 -151.5q0 -99 -66 -162.5t-164 -63.5zM259 76q56 0 90.5 40t34.5 102q0 56 -31.5 90.5t-84.5 34.5q-56 0 -90.5 -40t-34.5 -103q0 -55 32 -89.5t84 -34.5z
" />
    <glyph glyph-name="Ohungarumlaut" unicode="&#x150;" horiz-adv-x="782" 
d="M484 760l94 191h106l-122 -191h-78zM326 760l93 191h107l-122 -191h-78zM397 -9q-140 0 -233.5 93.5t-93.5 238.5q0 161 105.5 263t257.5 102q140 0 233.5 -93t93.5 -238q0 -161 -106 -263.5t-257 -102.5zM400 83q112 0 183 77t71 199q0 106 -62.5 171.5t-161.5 65.5
q-112 0 -183 -77t-71 -198q0 -106 62 -172t162 -66z" />
    <glyph glyph-name="ohungarumlaut" unicode="&#x151;" horiz-adv-x="525" 
d="M319 502l94 191h106l-122 -191h-78zM161 502l93 191h107l-122 -191h-78zM256 -9q-91 0 -153 60.5t-62 150.5q0 99 66.5 163t163.5 64q91 0 153 -60.5t62 -151.5q0 -99 -66 -162.5t-164 -63.5zM259 76q56 0 90.5 40t34.5 102q0 56 -31.5 90.5t-84.5 34.5q-56 0 -90.5 -40
t-34.5 -103q0 -55 32 -89.5t84 -34.5z" />
    <glyph glyph-name="OE" unicode="&#x152;" horiz-adv-x="981" 
d="M384 0q-148 0 -231.5 84t-83.5 224q0 168 107.5 270t282.5 102h538l-16 -90h-321l-35 -204h283l-16 -89h-283l-37 -207h335l-17 -90h-506zM396 90h73l89 500h-99q-138 0 -210.5 -79t-72.5 -207q0 -99 54.5 -156.5t165.5 -57.5z" />
    <glyph glyph-name="oe" unicode="&#x153;" horiz-adv-x="859" 
d="M257 -9q-92 0 -154 60.5t-62 150.5q0 99 66.5 163t163.5 64q117 0 167 -101q27 47 73 74t105 27q105 0 159.5 -70.5t40.5 -181.5h-330q4 -45 36.5 -74.5t86.5 -29.5q70 0 118 44l59 -63q-71 -63 -178 -63q-129 0 -176 98q-56 -98 -175 -98zM259 76q56 0 90.5 40t34.5 102
q0 56 -31.5 90.5t-84.5 34.5q-56 0 -90.5 -40t-34.5 -103q0 -55 32 -89.5t84 -34.5zM489 245h232q-1 46 -28.5 75t-78.5 29q-49 0 -81.5 -27.5t-43.5 -76.5z" />
    <glyph glyph-name="Racute" unicode="&#x154;" horiz-adv-x="616" 
d="M437 0l-115 254h-132l-44 -254h-103l120 680h199q102 0 163.5 -51.5t62.5 -146.5q0 -81 -44.5 -137t-120.5 -78l124 -267h-110zM206 340h119q76 0 116.5 35.5t40.5 102.5q0 54 -34 83.5t-96 29.5h-102zM324 747l89 191h120l-131 -191h-78z" />
    <glyph glyph-name="racute" unicode="&#x155;" horiz-adv-x="354" 
d="M195 502l89 191h120l-131 -191h-78zM26 0l74 420h99l-19 -86q51 94 130 94q32 0 59 -15l-38 -90q-19 12 -48 12q-99 0 -123 -132l-35 -203h-99z" />
    <glyph glyph-name="Rcommaaccent" unicode="&#x156;" horiz-adv-x="608" 
d="M437 0l-115 254h-132l-44 -254h-103l120 680h199q102 0 163.5 -51.5t62.5 -146.5q0 -81 -44.5 -137t-120.5 -78l124 -267h-110zM206 340h119q76 0 116.5 35.5t40.5 102.5q0 54 -34 83.5t-96 29.5h-102zM188 -269l48 100q-34 17 -34 57q0 26 19 43.5t44 17.5q26 0 44 -17
t18 -43q0 -32 -25 -66l-63 -92h-51z" />
    <glyph glyph-name="rcommaaccent" unicode="&#x157;" horiz-adv-x="354" 
d="M-12 -269l48 100q-34 17 -34 57q0 26 19 43.5t44 17.5q26 0 44 -17t18 -43q0 -32 -25 -66l-63 -92h-51zM26 0l74 420h99l-19 -86q51 94 130 94q32 0 59 -15l-38 -90q-19 12 -48 12q-99 0 -123 -132l-35 -203h-99z" />
    <glyph glyph-name="Rcaron" unicode="&#x158;" horiz-adv-x="608" 
d="M437 0l-115 254h-132l-44 -254h-103l120 680h199q102 0 163.5 -51.5t62.5 -146.5q0 -81 -44.5 -137t-120.5 -78l124 -267h-110zM206 340h119q76 0 116.5 35.5t40.5 102.5q0 54 -34 83.5t-96 29.5h-102zM361 733l-106 205h78l50 -91l79 91h84l-175 -205h-10z" />
    <glyph glyph-name="rcaron" unicode="&#x159;" horiz-adv-x="354" 
d="M232 487l-106 205h78l50 -91l79 91h84l-175 -205h-10zM26 0l74 420h99l-19 -86q51 94 130 94q32 0 59 -15l-38 -90q-19 12 -48 12q-99 0 -123 -132l-35 -203h-99z" />
    <glyph glyph-name="Sacute" unicode="&#x15a;" horiz-adv-x="525" 
d="M292 747l89 191h120l-131 -191h-78zM247 -9q-85 0 -148 40.5t-91 96.5l81 54q60 -100 158 -100q57 0 89.5 27.5t32.5 73.5q0 33 -19.5 55t-71.5 56l-40 26q-64 41 -94 85t-30 105q0 78 54.5 128t145.5 50q118 0 187 -105l-77 -60q-49 76 -114 76q-42 0 -68 -23.5
t-26 -61.5q0 -32 17.5 -54.5t60.5 -49.5l40 -26q73 -46 106.5 -88.5t33.5 -107.5q0 -92 -62.5 -144.5t-164.5 -52.5z" />
    <glyph glyph-name="sacute" unicode="&#x15b;" horiz-adv-x="407" 
d="M193 502l89 191h120l-131 -191h-78zM187 -9q-122 0 -177 90l71 48q39 -59 107 -59t68 45q0 17 -13.5 27.5t-56.5 30.5q-10 5 -15 7q-49 25 -74.5 53.5t-25.5 72.5q0 58 41.5 90.5t104.5 32.5q90 0 142 -66l-66 -54q-32 43 -77 43q-24 0 -38.5 -10.5t-14.5 -28.5
q0 -17 15 -29t54 -30q60 -27 89.5 -54.5t29.5 -75.5q0 -62 -42 -97.5t-122 -35.5z" />
    <glyph glyph-name="Scircumflex" unicode="&#x15c;" horiz-adv-x="525" 
d="M189 746l175 205h10l106 -205h-78l-50 91l-79 -91h-84zM247 -9q-85 0 -148 40.5t-91 96.5l81 54q60 -100 158 -100q57 0 89.5 27.5t32.5 73.5q0 33 -19.5 55t-71.5 56l-40 26q-64 41 -94 85t-30 105q0 78 54.5 128t145.5 50q118 0 187 -105l-77 -60q-49 76 -114 76
q-42 0 -68 -23.5t-26 -61.5q0 -32 17.5 -54.5t60.5 -49.5l40 -26q73 -46 106.5 -88.5t33.5 -107.5q0 -92 -62.5 -144.5t-164.5 -52.5z" />
    <glyph glyph-name="scircumflex" unicode="&#x15d;" horiz-adv-x="407" 
d="M91 501l175 205h10l106 -205h-78l-50 91l-79 -91h-84zM187 -9q-122 0 -177 90l71 48q39 -59 107 -59t68 45q0 17 -13.5 27.5t-56.5 30.5q-10 5 -15 7q-49 25 -74.5 53.5t-25.5 72.5q0 58 41.5 90.5t104.5 32.5q90 0 142 -66l-66 -54q-32 43 -77 43q-24 0 -38.5 -10.5
t-14.5 -28.5q0 -17 15 -29t54 -30q60 -27 89.5 -54.5t29.5 -75.5q0 -62 -42 -97.5t-122 -35.5z" />
    <glyph glyph-name="Scedilla" unicode="&#x15e;" horiz-adv-x="525" 
d="M198 -236q-80 0 -109 61l52 29q17 -33 51 -33q20 0 32 11.5t12 30.5q0 43 -48 43h-27l16 94q-60 14 -104 49.5t-65 78.5l81 54q60 -100 158 -100q57 0 89.5 27.5t32.5 73.5q0 33 -19.5 55t-71.5 56l-40 26q-64 41 -94 85t-30 105q0 78 54.5 128t145.5 50q118 0 187 -105
l-77 -60q-49 76 -114 76q-42 0 -68 -23.5t-26 -61.5q0 -32 17.5 -54.5t60.5 -49.5l40 -26q73 -46 106.5 -88.5t33.5 -107.5q0 -92 -62.5 -144.5t-164.5 -52.5h-14l-6 -38q30 -5 51.5 -29t21.5 -62q0 -45 -29.5 -71.5t-72.5 -26.5z" />
    <glyph glyph-name="scedilla" unicode="&#x15f;" horiz-adv-x="407" 
d="M146 -236q-80 0 -109 61l52 29q17 -33 51 -33q20 0 32 11.5t12 30.5q0 43 -48 43h-27l16 93q-77 18 -115 82l71 48q39 -59 107 -59t68 45q0 17 -13.5 27.5t-56.5 30.5q-10 5 -15 7q-49 25 -74.5 53.5t-25.5 72.5q0 58 41.5 90.5t104.5 32.5q90 0 142 -66l-66 -54
q-32 43 -77 43q-24 0 -38.5 -10.5t-14.5 -28.5q0 -17 15 -29t54 -30q60 -27 89.5 -54.5t29.5 -75.5q0 -62 -42 -97.5t-122 -35.5h-6l-6 -38q30 -5 51.5 -29t21.5 -62q0 -45 -29.5 -71.5t-72.5 -26.5z" />
    <glyph glyph-name="Scaron" unicode="&#x160;" horiz-adv-x="525" 
d="M330 733l-106 205h78l50 -91l79 91h84l-175 -205h-10zM247 -9q-85 0 -148 40.5t-91 96.5l81 54q60 -100 158 -100q57 0 89.5 27.5t32.5 73.5q0 33 -19.5 55t-71.5 56l-40 26q-64 41 -94 85t-30 105q0 78 54.5 128t145.5 50q118 0 187 -105l-77 -60q-49 76 -114 76
q-42 0 -68 -23.5t-26 -61.5q0 -32 17.5 -54.5t60.5 -49.5l40 -26q73 -46 106.5 -88.5t33.5 -107.5q0 -92 -62.5 -144.5t-164.5 -52.5z" />
    <glyph glyph-name="scaron" unicode="&#x161;" horiz-adv-x="407" 
d="M230 487l-106 205h78l50 -91l79 91h84l-175 -205h-10zM187 -9q-122 0 -177 90l71 48q39 -59 107 -59t68 45q0 17 -13.5 27.5t-56.5 30.5q-10 5 -15 7q-49 25 -74.5 53.5t-25.5 72.5q0 58 41.5 90.5t104.5 32.5q90 0 142 -66l-66 -54q-32 43 -77 43q-24 0 -38.5 -10.5
t-14.5 -28.5q0 -17 15 -29t54 -30q60 -27 89.5 -54.5t29.5 -75.5q0 -62 -42 -97.5t-122 -35.5z" />
    <glyph glyph-name="Tcommaaccent" unicode="&#x162;" horiz-adv-x="558" 
d="M151 -269l48 100q-34 17 -34 57q0 26 19 43.5t44 17.5q26 0 44 -17t18 -43q0 -32 -25 -66l-63 -92h-51zM192 0l105 590h-199l16 90h499l-16 -90h-198l-104 -590h-103z" />
    <glyph glyph-name="tcommaaccent" unicode="&#x163;" horiz-adv-x="345" 
d="M72 -269l48 100q-34 17 -34 57q0 26 19 43.5t44 17.5q26 0 44 -17t18 -43q0 -32 -25 -66l-63 -92h-51zM196 -9q-61 0 -94 36.5t-19 116.5l34 193h-62l14 83h63l26 149h98l-26 -149h108l-15 -83h-107l-35 -197q-12 -64 32 -64q27 0 52 19l35 -69q-43 -35 -104 -35z" />
    <glyph glyph-name="Tcaron" unicode="&#x164;" horiz-adv-x="558" 
d="M371 733l-106 205h78l50 -91l79 91h84l-175 -205h-10zM192 0l105 590h-199l16 90h499l-16 -90h-198l-104 -590h-103z" />
    <glyph glyph-name="tcaron" unicode="&#x165;" horiz-adv-x="430" 
d="M196 -9q-61 0 -94 36.5t-19 116.5l34 193h-62l14 83h63l26 149h98l-26 -149h108l-15 -83h-107l-35 -197q-12 -64 32 -64q27 0 52 19l35 -69q-43 -35 -104 -35zM364 452l55 114q-35 18 -35 58q0 27 19 45.5t45 18.5q27 0 45 -18.5t18 -46.5q0 -29 -25 -64l-71 -107h-51z
" />
    <glyph glyph-name="Umacron" unicode="&#x16a;" horiz-adv-x="658" 
d="M318 -9q-118 0 -186 73.5t-47 196.5l74 419h104l-75 -425q-15 -84 21.5 -128t113.5 -44q68 0 108 36t53 112l79 449h104l-82 -465q-40 -224 -267 -224zM301 760l14 74h244l-14 -74h-244z" />
    <glyph glyph-name="umacron" unicode="&#x16b;" horiz-adv-x="515" 
d="M185 -9q-70 0 -107.5 52.5t-22.5 138.5l42 238h99l-41 -233q-9 -51 10 -79.5t64 -28.5q94 0 115 109l41 232h99l-55 -315q-6 -29 18 -29h34l-13 -76h-48q-53 0 -72.5 18t-18.5 49v7q-54 -83 -144 -83zM192 529l14 74h244l-14 -74h-244z" />
    <glyph glyph-name="Ubreve" unicode="&#x16c;" horiz-adv-x="658" 
d="M318 -9q-118 0 -186 73.5t-47 196.5l74 419h104l-75 -425q-15 -84 21.5 -128t113.5 -44q68 0 108 36t53 112l79 449h104l-82 -465q-40 -224 -267 -224zM430 744q-61 0 -97.5 36t-40.5 92l78 12q9 -65 60 -65q54 0 71 65l76 -13q-10 -56 -48.5 -91.5t-98.5 -35.5z" />
    <glyph glyph-name="ubreve" unicode="&#x16d;" horiz-adv-x="515" 
d="M185 -9q-70 0 -107.5 52.5t-22.5 138.5l42 238h99l-41 -233q-9 -51 10 -79.5t64 -28.5q94 0 115 109l41 232h99l-55 -315q-6 -29 18 -29h34l-13 -76h-48q-53 0 -72.5 18t-18.5 49v7q-54 -83 -144 -83zM319 500q-61 0 -97.5 36t-40.5 92l78 12q9 -65 60 -65q54 0 71 65
l76 -13q-10 -56 -48.5 -91.5t-98.5 -35.5z" />
    <glyph glyph-name="Uring" unicode="&#x16e;" horiz-adv-x="658" 
d="M426 717q-48 0 -81 32t-33 77q0 46 33 78t81 32q49 0 82 -32t33 -78q0 -45 -33.5 -77t-81.5 -32zM426 775q21 0 34.5 14t13.5 37q0 24 -13.5 38t-34.5 14t-34.5 -14t-13.5 -38q0 -23 13.5 -37t34.5 -14zM318 -9q-118 0 -186 73.5t-47 196.5l74 419h104l-75 -425
q-15 -84 21.5 -128t113.5 -44q68 0 108 36t53 112l79 449h104l-82 -465q-40 -224 -267 -224z" />
    <glyph glyph-name="uring" unicode="&#x16f;" horiz-adv-x="516" 
d="M314 479q-48 0 -81 32t-33 77q0 46 33 78t81 32q49 0 82 -32t33 -78q0 -45 -33.5 -77t-81.5 -32zM314 537q21 0 34.5 14t13.5 37q0 24 -13.5 38t-34.5 14t-34.5 -14t-13.5 -38q0 -23 13.5 -37t34.5 -14zM185 -9q-70 0 -107.5 52.5t-22.5 138.5l42 238h99l-41 -233
q-9 -51 10 -79.5t64 -28.5q94 0 115 109l41 232h99l-55 -315q-6 -29 18 -29h34l-13 -76h-48q-53 0 -72.5 18t-18.5 49v7q-54 -83 -144 -83z" />
    <glyph glyph-name="Uhungarumlaut" unicode="&#x170;" horiz-adv-x="658" 
d="M318 -9q-118 0 -186 73.5t-47 196.5l74 419h104l-75 -425q-15 -84 21.5 -128t113.5 -44q68 0 108 36t53 112l79 449h104l-82 -465q-40 -224 -267 -224zM447 760l94 191h106l-122 -191h-78zM289 760l93 191h107l-122 -191h-78z" />
    <glyph glyph-name="uhungarumlaut" unicode="&#x171;" horiz-adv-x="516" 
d="M185 -9q-70 0 -107.5 52.5t-22.5 138.5l42 238h99l-41 -233q-9 -51 10 -79.5t64 -28.5q94 0 115 109l41 232h99l-55 -315q-6 -29 18 -29h34l-13 -76h-48q-53 0 -72.5 18t-18.5 49v7q-54 -83 -144 -83zM333 502l94 191h106l-122 -191h-78zM175 502l93 191h107l-122 -191
h-78z" />
    <glyph glyph-name="Uogonek" unicode="&#x172;" horiz-adv-x="658" 
d="M276 -6q-101 13 -155.5 84.5t-35.5 182.5l74 419h104l-75 -425q-15 -84 21.5 -128t113.5 -44q68 0 108 36t53 112l79 449h104l-82 -465q-39 -214 -246 -223l-42 -53q-23 -28 -32 -44.5t-9 -36.5q0 -17 10 -26.5t26 -9.5q24 0 47 32l52 -30q-33 -60 -103 -60
q-42 0 -71.5 23.5t-29.5 66.5q0 57 57 110z" />
    <glyph glyph-name="uogonek" unicode="&#x173;" horiz-adv-x="515" 
d="M352 15q-25 17 -23 52v7q-54 -83 -144 -83q-70 0 -107.5 52.5t-22.5 138.5l42 238h99l-41 -233q-9 -51 10 -79.5t64 -28.5q94 0 115 109l41 232h99l-55 -315q-6 -29 18 -29h34l-13 -76h-48q-15 0 -21 1l-50 -62q-41 -48 -41 -81q0 -17 10 -26.5t26 -9.5q24 0 47 32
l52 -30q-33 -60 -103 -60q-42 0 -71.5 23.5t-29.5 66.5q0 57 60 113z" />
    <glyph glyph-name="Ydieresis" unicode="&#x178;" horiz-adv-x="607" 
d="M210 0l44 251l-157 429h110l88 -243q11 -31 25 -104l9 18t22.5 41t26.5 42l172 246h110l-302 -428l-44 -252h-104zM497 750q-23 0 -41 17.5t-18 41.5t18 42t41 18t40.5 -17.5t17.5 -42.5t-17.5 -42t-40.5 -17zM314 750q-23 0 -40.5 17.5t-17.5 41.5t17.5 42t40.5 18
q24 0 41.5 -17.5t17.5 -42.5q0 -24 -17.5 -41.5t-41.5 -17.5z" />
    <glyph glyph-name="Zacute" unicode="&#x179;" horiz-adv-x="586" 
d="M344 747l89 191h120l-131 -191h-78zM6 0v11l429 580h-286l16 89h444v-11l-430 -580h332l-16 -89h-489z" />
    <glyph glyph-name="zacute" unicode="&#x17a;" horiz-adv-x="428" 
d="M221 502l89 191h120l-131 -191h-78zM5 0v11l261 327h-188l15 82h339v-11l-261 -328h200l-15 -81h-351z" />
    <glyph glyph-name="Zdotaccent" unicode="&#x17b;" horiz-adv-x="586" 
d="M6 0v11l429 580h-286l16 89h444v-11l-430 -580h332l-16 -89h-489zM399 745q-26 0 -45 18.5t-19 46.5t18.5 46t45.5 18t46 -18t19 -46q0 -29 -19 -47t-46 -18z" />
    <glyph glyph-name="zdotaccent" unicode="&#x17c;" horiz-adv-x="429" 
d="M5 0v11l261 327h-188l15 82h339v-11l-261 -328h200l-15 -81h-351zM279 518q-26 0 -45 18.5t-19 46.5t18.5 46t45.5 18t46 -18t19 -46q0 -29 -19 -47t-46 -18z" />
    <glyph glyph-name="Zcaron" unicode="&#x17d;" horiz-adv-x="586" 
d="M381 733l-106 205h78l50 -91l79 91h84l-175 -205h-10zM6 0v11l429 580h-286l16 89h444v-11l-430 -580h332l-16 -89h-489z" />
    <glyph glyph-name="zcaron" unicode="&#x17e;" horiz-adv-x="429" 
d="M258 487l-106 205h78l50 -91l79 91h84l-175 -205h-10zM5 0v11l261 327h-188l15 82h339v-11l-261 -328h200l-15 -81h-351z" />
    <glyph glyph-name="florin" unicode="&#x192;" horiz-adv-x="373" 
d="M113 197h-69l13 76h69l36 204q13 74 47.5 107.5t92.5 33.5q78 0 117 -61l-66 -52q-19 27 -46 27q-20 0 -31 -12.5t-17 -45.5l-36 -201h100l-13 -76h-100l-72 -409h-97z" />
    <glyph glyph-name="Scommaaccent" unicode="&#x218;" horiz-adv-x="525" 
d="M110 -269l48 100q-34 17 -34 57q0 26 19 43.5t44 17.5q26 0 44 -17t18 -43q0 -32 -25 -66l-63 -92h-51zM247 -9q-85 0 -148 40.5t-91 96.5l81 54q60 -100 158 -100q57 0 89.5 27.5t32.5 73.5q0 33 -19.5 55t-71.5 56l-40 26q-64 41 -94 85t-30 105q0 78 54.5 128
t145.5 50q118 0 187 -105l-77 -60q-49 76 -114 76q-42 0 -68 -23.5t-26 -61.5q0 -32 17.5 -54.5t60.5 -49.5l40 -26q73 -46 106.5 -88.5t33.5 -107.5q0 -92 -62.5 -144.5t-164.5 -52.5z" />
    <glyph glyph-name="scommaaccent" unicode="&#x219;" horiz-adv-x="407" 
d="M70 -269l48 100q-34 17 -34 57q0 26 19 43.5t44 17.5q26 0 44 -17t18 -43q0 -32 -25 -66l-63 -92h-51zM187 -9q-122 0 -177 90l71 48q39 -59 107 -59t68 45q0 17 -13.5 27.5t-56.5 30.5q-10 5 -15 7q-49 25 -74.5 53.5t-25.5 72.5q0 58 41.5 90.5t104.5 32.5
q90 0 142 -66l-66 -54q-32 43 -77 43q-24 0 -38.5 -10.5t-14.5 -28.5q0 -17 15 -29t54 -30q60 -27 89.5 -54.5t29.5 -75.5q0 -62 -42 -97.5t-122 -35.5z" />
    <glyph glyph-name="uni021A" unicode="&#x21a;" horiz-adv-x="558" 
d="M192 0l105 590h-199l16 90h499l-16 -90h-198l-104 -590h-22l-8 -47q30 -5 51.5 -29t21.5 -62q0 -45 -29.5 -71.5t-72.5 -26.5q-80 0 -109 61l52 29q17 -33 51 -33q20 0 32 11.5t12 30.5q0 43 -48 43h-27l16 94h-23z" />
    <glyph glyph-name="uni021B" unicode="&#x21b;" horiz-adv-x="345" 
d="M196 -9h-9l-6 -38q30 -5 52 -29t22 -62q0 -45 -30 -71.5t-73 -26.5q-80 0 -109 61l53 29q16 -33 50 -33q20 0 32 11.5t12 30.5q0 43 -47 43h-28l17 98q-68 32 -49 140l34 193h-62l14 83h63l26 149h98l-26 -149h108l-15 -83h-107l-35 -197q-12 -64 32 -64q27 0 52 19
l35 -69q-43 -35 -104 -35z" />
    <glyph glyph-name="uni0237" unicode="&#x237;" horiz-adv-x="240" 
d="M-21 -222q-68 0 -105 44l53 61q18 -21 44 -21q37 0 44 47l90 511h100l-90 -508q-23 -134 -136 -134z" />
    <glyph glyph-name="circumflex" unicode="&#x2c6;" horiz-adv-x="494" 
d="M153 501l175 205h10l106 -205h-78l-50 91l-79 -91h-84z" />
    <glyph glyph-name="caron" unicode="&#x2c7;" horiz-adv-x="494" 
d="M293 487l-106 205h78l50 -91l79 91h84l-175 -205h-10z" />
    <glyph glyph-name="breve" unicode="&#x2d8;" horiz-adv-x="494" 
d="M296 500q-61 0 -97.5 36t-40.5 92l78 12q9 -65 60 -65q54 0 71 65l76 -13q-10 -56 -48.5 -91.5t-98.5 -35.5z" />
    <glyph glyph-name="dotaccent" unicode="&#x2d9;" horiz-adv-x="494" 
d="M313 518q-26 0 -45 18.5t-19 46.5t18.5 46t45.5 18t46 -18t19 -46q0 -29 -19 -47t-46 -18z" />
    <glyph glyph-name="ring" unicode="&#x2da;" horiz-adv-x="494" 
d="M314 479q-48 0 -81 32t-33 77q0 46 33 78t81 32q49 0 82 -32t33 -78q0 -45 -33.5 -77t-81.5 -32zM314 537q21 0 34.5 14t13.5 37q0 24 -13.5 38t-34.5 14t-34.5 -14t-13.5 -38q0 -23 13.5 -37t34.5 -14z" />
    <glyph glyph-name="ogonek" unicode="&#x2db;" horiz-adv-x="494" 
d="M212 -236q-42 0 -71.5 23.5t-29.5 66.5q0 57 57 110l39 36h63l-49 -61q-23 -28 -32 -44.5t-9 -36.5q0 -17 10 -26.5t26 -9.5q24 0 47 32l52 -30q-33 -60 -103 -60z" />
    <glyph glyph-name="tilde" unicode="&#x2dc;" horiz-adv-x="490" 
d="M217 507l-68 8q9 61 36.5 93t66.5 32q30 0 63 -26q5 -3 11.5 -8.5t10 -8.5t8 -6t8.5 -4t8 -1q25 0 36 53l68 -7q-8 -61 -35.5 -93t-66.5 -32q-33 0 -64 26q-4 3 -11 8.5t-10 8t-7.5 5.5t-8.5 4t-8 1q-25 0 -37 -53z" />
    <glyph glyph-name="hungarumlaut" unicode="&#x2dd;" horiz-adv-x="494" 
d="M315 502l94 191h106l-122 -191h-78zM157 502l93 191h107l-122 -191h-78z" />
    <glyph glyph-name="endash" unicode="&#x2013;" horiz-adv-x="390" 
d="M25 167l16 88h326l-16 -88h-326z" />
    <glyph glyph-name="emdash" unicode="&#x2014;" horiz-adv-x="624" 
d="M25 167l16 88h560l-15 -88h-561z" />
    <glyph glyph-name="quoteleft" unicode="&#x2018;" horiz-adv-x="216" 
d="M161 444q-27 0 -45 18.5t-18 46.5q0 29 25 64l71 107h51l-55 -114q35 -18 35 -58q0 -27 -19 -45.5t-45 -18.5z" />
    <glyph glyph-name="quoteright" unicode="&#x2019;" horiz-adv-x="215" 
d="M98 452l56 114q-36 18 -36 58q0 27 19 45.5t45 18.5q27 0 45 -18.5t18 -46.5q0 -29 -25 -64l-71 -107h-51z" />
    <glyph glyph-name="quotesinglbase" unicode="&#x201a;" horiz-adv-x="216" 
d="M4 -98l52 109q-35 17 -35 58q0 27 18.5 45.5t44.5 18.5q27 0 45.5 -18.5t18.5 -46.5q0 -27 -25 -64l-69 -102h-50z" />
    <glyph glyph-name="quotedblleft" unicode="&#x201c;" horiz-adv-x="400" 
d="M345 444q-27 0 -45 18.5t-18 46.5q0 29 25 64l71 107h51l-55 -114q35 -18 35 -58q0 -27 -19 -45.5t-45 -18.5zM161 444q-27 0 -45 18.5t-18 46.5q0 29 25 64l71 107h51l-55 -114q35 -18 35 -58q0 -27 -19 -45.5t-45 -18.5z" />
    <glyph glyph-name="quotedblright" unicode="&#x201d;" horiz-adv-x="399" 
d="M282 452l56 114q-36 18 -36 58q0 27 19 45.5t45 18.5q27 0 45 -18.5t18 -46.5q0 -29 -25 -64l-71 -107h-51zM98 452l56 114q-36 18 -36 58q0 27 19 45.5t45 18.5q27 0 45 -18.5t18 -46.5q0 -29 -25 -64l-71 -107h-51z" />
    <glyph glyph-name="quotedblbase" unicode="&#x201e;" horiz-adv-x="400" 
d="M188 -98l52 109q-35 17 -35 58q0 27 18.5 45.5t44.5 18.5q27 0 45.5 -18.5t18.5 -46.5q0 -27 -25 -64l-69 -102h-50zM4 -98l52 109q-35 17 -35 58q0 27 18.5 45.5t44.5 18.5q27 0 45.5 -18.5t18.5 -46.5q0 -27 -25 -64l-69 -102h-50z" />
    <glyph glyph-name="dagger" unicode="&#x2020;" horiz-adv-x="344" 
d="M179 498h-91l15 81h90l18 101h90l-18 -101h91l-14 -81h-91l-41 -236h-90z" />
    <glyph glyph-name="daggerdbl" unicode="&#x2021;" horiz-adv-x="343" 
d="M179 505h-91l14 74h91l18 101h90l-18 -101h90l-13 -74h-90l-12 -69h90l-13 -74h-90l-18 -101h-91l18 101h-90l12 74h91z" />
    <glyph glyph-name="bullet" unicode="&#x2022;" horiz-adv-x="272" 
d="M144 153q-40 0 -69 29.5t-29 71.5t29 71.5t69 29.5t70 -29.5t30 -71.5t-30 -71.5t-70 -29.5z" />
    <glyph glyph-name="ellipsis" unicode="&#x2026;" horiz-adv-x="652" 
d="M519 -6q-27 0 -47 19t-20 48t20 48.5t47 19.5t46.5 -19.5t19.5 -48.5t-19.5 -48t-46.5 -19zM301 -6q-27 0 -46.5 19t-19.5 48t19.5 48.5t46.5 19.5t47 -19.5t20 -48.5t-19.5 -48t-47.5 -19zM84 -6q-27 0 -46.5 19t-19.5 48t19.5 48.5t46.5 19.5t46.5 -19.5t19.5 -48.5
t-19.5 -48t-46.5 -19z" />
    <glyph glyph-name="perthousand" unicode="&#x2030;" horiz-adv-x="1176" 
d="M203 218q-64 0 -107 42t-43 104q0 68 47 112.5t112 44.5t107.5 -41t42.5 -103q0 -69 -47 -114t-112 -45zM169 0l410 513h97l-410 -513h-97zM983 -9q-64 0 -107 42.5t-43 104.5q0 68 47 112.5t112 44.5q64 0 106.5 -41t42.5 -103q0 -69 -46.5 -114.5t-111.5 -45.5zM632 -9
q-64 0 -107 42.5t-43 104.5q0 68 47 112.5t112 44.5q64 0 107 -41t43 -103q0 -69 -47 -114.5t-112 -45.5zM204 292q31 0 52.5 23t21.5 60q0 34 -18.5 53t-47.5 19q-31 0 -52.5 -22.5t-21.5 -59.5q0 -34 18.5 -53.5t47.5 -19.5zM984 66q31 0 52 23t21 60q0 34 -18 52.5
t-47 18.5q-32 0 -53 -22.5t-21 -59.5q0 -33 18.5 -52.5t47.5 -19.5zM633 66q31 0 52 23t21 60q0 34 -18 52.5t-47 18.5q-32 0 -53 -22.5t-21 -59.5q0 -33 18.5 -52.5t47.5 -19.5z" />
    <glyph glyph-name="guilsinglleft" unicode="&#x2039;" horiz-adv-x="263" 
d="M102 35l-69 156v8l121 168h103l-127 -174l70 -158h-98z" />
    <glyph glyph-name="guilsinglright" unicode="&#x203a;" horiz-adv-x="264" 
d="M6 35l126 173l-70 159h99l69 -157v-8l-121 -167h-103z" />
    <glyph glyph-name="fraction" unicode="&#x2044;" horiz-adv-x="494" 
d="M-44 0l528 680h102l-529 -680h-101z" />
    <glyph glyph-name="Euro" unicode="&#x20ac;" horiz-adv-x="596" 
d="M100 284h-60l12 70h66q31 77 99 122t148 45q133 0 203 -99l-74 -51q-22 33 -51 48t-77 15q-97 0 -142 -80h182l-12 -70h-193q-3 -23 -1 -55h184l-12 -70h-156q38 -82 135 -82q74 0 127 58l67 -56q-72 -88 -196 -88q-85 0 -149 45.5t-89 122.5h-93l12 70h69q-2 32 1 55z
" />
    <glyph glyph-name="trademark" unicode="&#x2122;" horiz-adv-x="704" 
d="M368 381l53 303h9l116 -154l170 154h9l-54 -303h-70l27 155l-92 -92h-9l-62 93l-27 -156h-70zM198 621h-84l10 59h239l-10 -59h-84l-42 -240h-71z" />
    <glyph glyph-name="summation" unicode="&#x2211;" horiz-adv-x="592" 
d="M11 0l1 11l312 334l-200 324v11h488l-15 -93h-242l-71 3q22 -26 39 -54l116 -190v-11l-179 -191q-10 -11 -24.5 -24.5t-23.5 -21.5t-11 -9l5 1q5 0 12.5 0.5t16.5 1t20 1t21 0.5h247l-16 -93h-496z" />
    <glyph glyph-name="minus" unicode="&#x2212;" horiz-adv-x="386" 
d="M350 218h-309l15 84h309z" />
    <glyph glyph-name="space_uni0326" 
d="M113 -269l48 100q-34 17 -34 57q0 26 19 43.5t44 17.5q26 0 44 -17t18 -43q0 -32 -25 -66l-63 -92h-51z" />
    <glyph glyph-name="idotaccent" horiz-adv-x="246" 
d="M184 518q-26 0 -45.5 18.5t-19.5 46.5t19 46t45 18q27 0 46.5 -18t19.5 -46q0 -29 -19 -47t-46 -18zM141 0q-60 0 -80.5 23.5t-9.5 83.5l54 313h100l-56 -315q-4 -29 19 -29h35l-13 -76h-49z" />
    <glyph glyph-name="space.lining" horiz-adv-x="219" 
 />
    <glyph glyph-name="dollar.lining" horiz-adv-x="525" 
d="M172 -116l20 111q-121 19 -190 129l83 58q53 -83 123 -97l40 228l-6 4q-137 73 -134 191q0 79 55 129.5t144 50.5h8l15 85h55l-16 -91q82 -19 134 -98l-77 -59q-32 50 -73 65q-35 -194 -35 -195l12 -7q74 -41 111 -87.5t37 -111.5q0 -93 -62 -144.5t-169 -53.5l-19 -107
h-56zM263 82q54 4 82.5 30.5t28.5 71.5q0 31 -17 53.5t-58 48.5zM267 424l31 174q-39 0 -64.5 -23.5t-25.5 -60.5q0 -50 59 -90z" />
    <glyph glyph-name="cent.lining" horiz-adv-x="455" 
d="M190 -1q-67 19 -108 74t-41 130q0 97 64 160.5t161 65.5l19 106h54l-20 -110q74 -14 120 -77l-73 -54q-23 34 -61 46l-47 -265q53 1 92 38l58 -64q-60 -58 -154 -58h-11l-19 -107h-54zM251 344q-50 -6 -80 -44t-30 -97q0 -88 64 -118z" />
    <glyph glyph-name="Euro.lining" horiz-adv-x="644" 
d="M364 -9q-100 0 -168.5 63.5t-82.5 172.5h-83l13 76h66q0 30 5 67h-60l14 76h64q36 110 114 176t178 66q158 0 218 -147l-91 -44q-21 51 -51 76.5t-81 25.5q-61 0 -107 -42t-71 -111h223l-14 -76h-230q-4 -24 -6 -67h225l-14 -76h-206q11 -68 49.5 -107t98.5 -39
q52 0 88.5 25t69.5 75l79 -51q-89 -139 -240 -139z" />
    <glyph glyph-name="sterling.lining" horiz-adv-x="605" 
d="M196 275h-100l14 76h71q-13 69 -13 117q0 98 61.5 159t163.5 61q144 0 202 -123l-82 -48q-21 44 -49 64t-72 20q-56 0 -87.5 -34t-31.5 -100q0 -45 11 -116h190l-14 -76h-166q6 -58 6 -88q0 -37 -9 -67q58 -42 110 -42q57 0 99 53l64 -59q-34 -42 -70.5 -61.5
t-90.5 -19.5q-77 0 -146 60q-49 -60 -130 -60q-50 0 -83.5 29.5t-33.5 72.5q0 49 33 77.5t82 28.5q40 0 82 -21v4q0 34 -11 93zM195 106q-35 30 -67 30q-47 0 -47 -41q0 -17 12 -28t33 -11q50 0 69 50z" />
    <glyph glyph-name="yen.lining" horiz-adv-x="626" 
d="M226 0l23 133h-202l13 72h202l6 33l-16 44h-178l12 72h142l-111 326h108l85 -271q3 -13 7 -32.5t7 -34.5t5 -27.5t2 -13.5q1 3 9 20.5t21.5 44t25.5 43.5l182 271h110l-226 -326h139l-12 -72h-176l-35 -51l-5 -26h202l-12 -72h-202l-23 -133h-103z" />
    <glyph glyph-name="florin.lining" horiz-adv-x="373" 
d="M121 240h-74l14 76h73l41 231q13 74 47.5 107.5t92.5 33.5q78 0 117 -61l-66 -52q-19 27 -46 27q-20 0 -31 -12.5t-17 -45.5l-40 -228h101l-14 -76h-101l-80 -452h-97z" />
    <glyph glyph-name="zero.lining" horiz-adv-x="651" 
d="M316 -8q-115 0 -185.5 77t-70.5 211q0 178 95 293t229 115q113 0 183.5 -77t70.5 -211q0 -179 -93.5 -293.5t-228.5 -114.5zM321 84q91 0 150 92t59 230q0 92 -40.5 140.5t-110.5 48.5q-90 0 -151.5 -92t-61.5 -230q0 -91 42 -140t113 -49z" />
    <glyph glyph-name="one.lining" horiz-adv-x="322" 
d="M99 0l104 588h-107l16 92h209l-120 -680h-102z" />
    <glyph glyph-name="two.lining" horiz-adv-x="529" 
d="M-18 0v9l318 294q67 62 96.5 104t29.5 90q0 44 -26.5 71t-77.5 27q-99 0 -135 -116l-101 20q22 93 87 141t153 48q93 0 148 -52.5t55 -136.5q0 -67 -36.5 -123.5t-109.5 -123.5l-133 -122q-35 -32 -63 -46l13 1q12 1 29 2.5t29 1.5h204l-16 -89h-464z" />
    <glyph glyph-name="three.lining" horiz-adv-x="537" 
d="M250 -9q-91 0 -155.5 42t-90.5 107l91 43q48 -99 152 -99q70 0 111.5 40.5t41.5 105.5q0 58 -43 94t-114 36q-35 0 -70 -11l-7 9l171 192q9 10 21.5 21.5t20.5 17.5l8 6q-38 -5 -62 -5h-202l16 90h412v-9l-183 -209q-9 -10 -20 -19.5t-18 -14.5l-6 -4q76 -7 128.5 -58.5
t52.5 -137.5q0 -105 -73.5 -171t-181.5 -66z" />
    <glyph glyph-name="four.lining" horiz-adv-x="599" 
d="M487 197h80l-15 -84h-80l-20 -113h-103l20 113h-347l12 70l532 512h8zM384 197l36 204q2 10 18 75q-19 -32 -51 -65l-167 -168q-26 -27 -69 -52q1 0 13.5 1.5t30 3t30.5 1.5h159z" />
    <glyph glyph-name="five.lining" horiz-adv-x="546" 
d="M259 -9q-85 0 -149.5 41t-93.5 106l90 46q49 -100 153 -100q70 0 109.5 38t39.5 100q0 60 -39.5 96.5t-108.5 36.5q-79 0 -160 -54l-8 4l66 375h364l-15 -90h-276l-30 -166q34 16 89 16q100 0 161.5 -59.5t61.5 -156.5q0 -105 -70 -169t-184 -64z" />
    <glyph glyph-name="six.lining" horiz-adv-x="566" 
d="M279 -9q-102 0 -168.5 65.5t-66.5 162.5t78 189l230 272h119l-153 -183q-16 -20 -63 -58q29 16 67 16q91 0 150 -62t59 -155q0 -107 -71 -177t-181 -70zM282 81q65 0 104 45t39 111q0 61 -35 99.5t-97 38.5q-66 0 -105.5 -44.5t-39.5 -108.5q0 -60 36 -100.5t98 -40.5z
" />
    <glyph glyph-name="seven.lining" horiz-adv-x="543" 
d="M57 0l380 588h-342l16 92h492v-9l-431 -671h-115z" />
    <glyph glyph-name="eight.lining" horiz-adv-x="571" 
d="M276 -9q-109 0 -172 54t-63 139q0 72 44 122t120 69q-74 37 -74 127q0 79 61.5 132.5t148.5 53.5q86 0 139 -47.5t53 -119.5q0 -49 -29 -92.5t-85 -63.5q108 -42 108 -155q0 -97 -71 -158t-180 -61zM279 83q63 0 102.5 35.5t39.5 94.5q0 52 -33 83.5t-95 31.5
q-63 0 -104 -35.5t-41 -96.5q0 -50 35 -81.5t96 -31.5zM325 407q46 0 76 29.5t30 72.5q0 38 -25 64t-70 26t-75 -28t-30 -70q0 -40 24 -67t70 -27z" />
    <glyph glyph-name="nine.lining" horiz-adv-x="568" 
d="M150 0l147 178q22 28 65 60q-32 -17 -70 -17q-91 0 -150.5 63t-59.5 157q0 106 72.5 176.5t182.5 70.5q105 0 170 -64t65 -163t-81 -196l-222 -265h-119zM322 302q64 0 105 45.5t41 109.5q0 60 -36 100.5t-99 40.5q-66 0 -106 -45.5t-40 -109.5q0 -62 36 -101.5t99 -39.5
z" />
    <glyph glyph-name="percent.lining" horiz-adv-x="871" 
d="M245 338q-70 0 -118 48t-48 122q0 78 53 129t126 51q71 0 119.5 -48t48.5 -121q0 -79 -53.5 -130t-127.5 -51zM144 0l529 680h101l-528 -680h-102zM659 -9q-70 0 -118 48t-48 122q0 79 53.5 129.5t125.5 50.5q71 0 119.5 -48t48.5 -121q0 -79 -53.5 -130t-127.5 -51z
M247 416q38 0 64 27.5t26 75.5q0 41 -22.5 66t-58.5 25q-37 0 -63 -28t-26 -74q0 -42 22 -67t58 -25zM661 70q38 0 64 27t26 75q0 41 -22.5 66t-58.5 25q-38 0 -63.5 -27.5t-25.5 -74.5q0 -42 22 -66.5t58 -24.5z" />
    <glyph glyph-name="perthousand.lining" horiz-adv-x="1271" 
d="M245 338q-70 0 -118 48t-48 122q0 78 53 129t126 51q71 0 119.5 -48t48.5 -121q0 -79 -53.5 -130t-127.5 -51zM144 0l529 680h101l-528 -680h-102zM1059 -9q-70 0 -118 48t-48 122q0 79 53 129.5t126 50.5q71 0 119.5 -48t48.5 -121q0 -79 -53.5 -130t-127.5 -51zM659 -9
q-70 0 -118 48t-48 122q0 79 53.5 129.5t125.5 50.5q71 0 119.5 -48t48.5 -121q0 -79 -53.5 -130t-127.5 -51zM247 416q38 0 64 27.5t26 75.5q0 41 -22.5 66t-58.5 25q-37 0 -63 -28t-26 -74q0 -42 22 -67t58 -25zM1061 70q38 0 64 27t26 75q0 41 -22.5 66t-58.5 25
q-38 0 -63.5 -27.5t-25.5 -74.5q0 -42 22 -66.5t58 -24.5zM661 70q38 0 64 27t26 75q0 41 -22.5 66t-58.5 25q-38 0 -63.5 -27.5t-25.5 -74.5q0 -42 22 -66.5t58 -24.5z" />
    <glyph glyph-name="plus.lining" horiz-adv-x="417" 
d="M266 278l-25 -138h-88l24 138h-126l15 86h126l25 137h88l-24 -137h126l-15 -86h-126z" />
    <glyph glyph-name="minus.lining" horiz-adv-x="417" 
d="M392 278h-341l15 86h341z" />
    <glyph glyph-name="multiply.lining" horiz-adv-x="433" 
d="M297 309l95 -116l-65 -55l-95 114l-132 -114l-54 62l133 115l-95 116l67 55l94 -115l133 115l53 -62z" />
    <glyph glyph-name="divide.lining" horiz-adv-x="417" 
d="M51 278l15 86h341l-15 -86h-341zM260 428q-26 0 -45 18.5t-19 47.5q0 28 19 47t45 19q27 0 46 -19t19 -47q0 -29 -19 -47.5t-46 -18.5zM199 82q-27 0 -46 19t-19 47t19 47t46 19t46 -19t19 -47t-19 -47t-46 -19z" />
    <glyph glyph-name="equal.lining" horiz-adv-x="415" 
d="M62 342l15 85h339l-15 -85h-339zM34 182l15 85h339l-15 -85h-339z" />
    <glyph glyph-name="less.lining" horiz-adv-x="383" 
d="M330 136l-280 177v11l344 173l-17 -97l-185 -87l153 -90z" />
    <glyph glyph-name="greater.lining" horiz-adv-x="383" 
d="M29 136l17 96l185 88l-153 90l15 87l280 -178v-10z" />
    <glyph glyph-name="degree.lining" horiz-adv-x="359" 
d="M237 408q-58 0 -98.5 40.5t-40.5 97.5q0 61 42.5 101.5t102.5 40.5q58 0 98.5 -39.5t40.5 -95.5q0 -61 -42.5 -103t-102.5 -42zM238 474q31 0 51 21.5t20 55.5q0 31 -18.5 51t-48.5 20q-31 0 -51 -21.5t-20 -55.5q0 -30 19 -50.5t48 -20.5z" />
    <glyph glyph-name="period.lining" horiz-adv-x="217" 
d="M84 -6q-27 0 -46.5 19t-19.5 48t19.5 48.5t46.5 19.5t46.5 -19.5t19.5 -48.5t-19.5 -48t-46.5 -19z" />
    <glyph glyph-name="comma.lining" horiz-adv-x="218" 
d="M-4 -113l59 116q-36 17 -36 60q0 28 19.5 47.5t46.5 19.5q28 0 47 -19.5t19 -48.5q0 -26 -26 -64l-77 -111h-52z" />
    <glyph glyph-name="colon.lining" horiz-adv-x="225" 
d="M127 222q-27 0 -46.5 19t-19.5 48t19.5 48.5t46.5 19.5q28 0 47.5 -19.5t19.5 -48.5t-19.5 -48t-47.5 -19zM88 -6q-28 0 -47.5 19t-19.5 48t20 48.5t47 19.5t46.5 -19.5t19.5 -48.5t-19.5 -48t-46.5 -19z" />
    <glyph glyph-name="semicolon.lining" horiz-adv-x="225" 
d="M127 222q-27 0 -46.5 19t-19.5 48t19.5 48.5t46.5 19.5q28 0 47.5 -19.5t19.5 -48.5t-19.5 -48t-47.5 -19zM-1 -113l59 116q-37 18 -37 60q0 28 19.5 47.5t47.5 19.5q27 0 46.5 -19.5t19.5 -48.5q0 -26 -26 -64l-77 -111h-52z" />
    <glyph glyph-name="parenleft.lining" horiz-adv-x="306" 
d="M160 -134q-49 62 -81 150t-32 191q0 75 16.5 144.5t41 120.5t61 100t69 81.5t73.5 65.5l48 -55q-206 -190 -206 -457q0 -167 77 -299z" />
    <glyph glyph-name="parenright.lining" horiz-adv-x="305" 
d="M30 -134l-50 54q206 192 206 459q0 167 -76 297l66 43q113 -146 113 -340q0 -94 -22.5 -176t-64 -145t-81.5 -106.5t-91 -85.5z" />
    <glyph glyph-name="bracketleft.lining" horiz-adv-x="314" 
d="M7 -128l150 850h216l-14 -84h-117l-120 -682h116l-15 -84h-216z" />
    <glyph glyph-name="bracketright.lining" horiz-adv-x="314" 
d="M-27 -128l15 84h117l120 682h-116l14 84h216l-150 -850h-216z" />
    <glyph glyph-name="braceleft.lining" horiz-adv-x="383" 
d="M228 -128q-64 0 -100.5 36t-22.5 117l30 167q6 37 -3.5 50.5t-37.5 13.5h-61l16 84h57q30 0 45 15t23 58l31 172q14 77 51 107t95 30h90l-14 -84h-63q-26 0 -39.5 -12.5t-19.5 -46.5l-33 -188q-8 -49 -31.5 -69t-64.5 -26q75 -15 60 -105l-31 -173q-6 -34 4 -48t38 -14
h60l-16 -84h-63z" />
    <glyph glyph-name="braceright.lining" horiz-adv-x="383" 
d="M-29 -128l15 84h63q26 0 39.5 12.5t19.5 46.5l34 191q8 49 31 69t64 26q-76 13 -59 104l29 171q6 34 -3.5 48t-37.5 14h-60l15 84h63q64 0 101 -36t22 -117l-29 -164q-6 -37 4 -51t38 -14h60l-15 -84h-57q-31 0 -46 -15t-23 -58l-31 -174q-13 -76 -50.5 -106.5
t-95.5 -30.5h-91z" />
    <glyph glyph-name="section.lining" horiz-adv-x="550" 
d="M165 418q-22 39 -22 89q0 77 54 129t138 52q124 0 176 -100l-83 -50q-35 61 -93 61q-39 0 -62.5 -25.5t-23.5 -61.5q0 -57 56 -89l102 -60q110 -65 110 -160q0 -96 -115 -135q23 -36 23 -85q0 -75 -53 -119t-145 -44q-72 0 -126 31.5t-84 84.5l82 53q49 -79 127 -79
q46 0 70 20.5t24 52.5q0 27 -16 44.5t-56 41.5l-96 56q-57 33 -81 68t-24 83q0 105 118 142zM355 120q62 21 62 71q0 27 -15.5 46.5t-50.5 40.5l-101 59q-28 17 -45 32q-57 -24 -57 -74q0 -27 12.5 -45t46.5 -38l96 -56q28 -17 52 -36z" />
    <glyph glyph-name="numbersign.lining" horiz-adv-x="454" 
d="M160 500h-74l14 77h79l26 103h80l-26 -103h85l26 103h79l-26 -103h64l-14 -77h-69l-23 -94h75l-14 -77h-80l-26 -105h-80l26 105h-85l-26 -105h-79l26 105h-62l13 77h68zM324 500h-85l-5 -24l-12 -46l-6 -24h85q2 6 4 15.5t7.5 30.5t8.5 34z" />
    <glyph glyph-name="space.tab" horiz-adv-x="200" 
 />
    <glyph glyph-name="dollar.tab" horiz-adv-x="520" 
d="M190 -4q-62 10 -102.5 43.5t-59.5 75.5l79 40q31 -65 97 -81l27 153q-74 26 -106 63t-32 90q0 66 49.5 103.5t128.5 37.5h11l18 101h54l-19 -108q80 -19 120 -87l-70 -47q-21 43 -63 58l-24 -136q77 -27 114.5 -65t37.5 -95q0 -75 -56 -113t-149 -38h-2l-18 -107h-54z
M257 69q97 3 97 68q0 25 -16 41t-56 31zM269 446q-83 -2 -83 -60q0 -23 13.5 -37.5t47.5 -28.5z" />
    <glyph glyph-name="cent.tab" horiz-adv-x="520" 
d="M222 -1q-67 19 -108 74t-41 130q0 97 64 160.5t161 65.5l19 106h54l-20 -110q74 -14 120 -77l-73 -54q-23 34 -61 46l-47 -265q53 1 92 38l58 -64q-60 -58 -154 -58h-11l-19 -107h-54zM283 344q-50 -6 -80 -44t-30 -97q0 -88 64 -118z" />
    <glyph glyph-name="Euro.tab" horiz-adv-x="520" 
d="M77 284h-53l12 70h57q28 77 90.5 122t136.5 45q64 0 109.5 -23.5t82.5 -75.5l-73 -54q-23 35 -48.5 50.5t-68.5 15.5q-86 0 -124 -80h159l-12 -70h-166q-2 -24 -2 -39v-16h159l-12 -70h-136q27 -82 114 -82q67 0 116 61l69 -55q-71 -92 -187 -92q-77 0 -134.5 45
t-79.5 123h-84l12 70h61v17q0 14 2 38z" />
    <glyph glyph-name="sterling.tab" horiz-adv-x="520" 
d="M170 255h-100l13 76h73q-11 62 -11 98q0 88 54 138.5t144 50.5q120 0 177 -105l-79 -49q-38 66 -99 66q-44 0 -70 -28.5t-26 -79.5q0 -29 6 -91h145l-13 -76h-123q4 -50 4 -76q0 -35 -10 -70q43 -33 83 -33q46 0 87 43l57 -61q-56 -67 -145 -67q-60 0 -119 51
q-46 -51 -114 -51q-49 0 -78.5 28t-29.5 69q0 46 30.5 72t76.5 26q40 0 77 -22q0 29 -10 91zM166 92q-35 33 -61 33q-16 0 -26.5 -10t-10.5 -25q0 -16 10 -26.5t27 -10.5q42 0 61 39z" />
    <glyph glyph-name="yen.tab" horiz-adv-x="520" 
d="M173 0l20 116h-158l12 65h159l-24 68h-124l12 66h90l-69 198h105l56 -184q14 -59 14 -95q0 2 4.5 16t14.5 36.5t22 39.5l126 187h107l-141 -198h88l-12 -66h-123l-48 -68h160l-12 -65h-159l-20 -116h-100z" />
    <glyph glyph-name="florin.tab" horiz-adv-x="520" 
d="M184 197h-95l13 76h95l32 180q29 165 163 165q94 0 138 -77l-69 -51q-23 42 -64 42q-56 0 -69 -78l-32 -181h136l-13 -76h-136l-72 -409h-100z" />
    <glyph glyph-name="zero.tab" horiz-adv-x="520" 
d="M249 -9q-92 0 -147 63.5t-55 166.5q0 135 67 217.5t175 82.5q94 0 148 -63t54 -166q0 -136 -67 -218.5t-175 -82.5zM252 80q62 0 98.5 59.5t36.5 154.5q0 66 -26.5 102t-74.5 36q-62 0 -98.5 -59.5t-36.5 -154.5q0 -66 26.5 -102t74.5 -36z" />
    <glyph glyph-name="one.tab" horiz-adv-x="520" 
d="M201 83l61 347h-114l14 83h215l-75 -430h118l-15 -83h-344l15 83h125z" />
    <glyph glyph-name="two.tab" horiz-adv-x="520" 
d="M19 0v10l219 192q66 56 92.5 89.5t26.5 70.5q0 32 -20 51t-54 19q-69 0 -105 -88l-91 25q25 76 78 114t123 38q80 0 125.5 -42.5t45.5 -107.5q0 -56 -34 -104.5t-100 -103.5l-63 -52q-8 -7 -20.5 -15t-21.5 -12l-8 -5q35 5 55 5h167l-14 -84h-401z" />
    <glyph glyph-name="three.tab" horiz-adv-x="520" 
d="M221 -103q-79 0 -135 36.5t-81 92.5l89 45q37 -86 126 -86q55 0 90.5 32t35.5 92q0 52 -36 83t-94 31q-48 0 -88 -19l-8 11l167 178q8 9 19.5 19.5t19.5 15.5l7 6q-36 -4 -61 -4h-165l15 83h374v-9l-167 -181q-8 -8 -18 -16.5t-17 -13.5l-6 -5q67 -6 115.5 -54t48.5 -127
q0 -92 -62.5 -151t-168.5 -59z" />
    <glyph glyph-name="four.tab" horiz-adv-x="520" 
d="M400 88h65l-13 -77h-66l-18 -105h-99l19 105h-288l10 62l454 448h12zM304 86l27 154q3 21 22 77q-33 -44 -52 -63l-132 -131q-10 -10 -22 -20t-19 -15l-8 -6q30 4 57 4h127z" />
    <glyph glyph-name="five.tab" horiz-adv-x="520" 
d="M214 -103q-78 0 -131.5 35.5t-75.5 87.5l90 42q14 -33 42.5 -55t71.5 -22q59 0 92 33.5t33 87.5q0 49 -32.5 79t-91.5 30q-66 0 -128 -43l-7 4l59 337h326l-14 -83h-240l-25 -146q30 14 70 14q85 0 138 -54.5t53 -135.5q0 -90 -63.5 -150.5t-166.5 -60.5z" />
    <glyph glyph-name="six.tab" horiz-adv-x="520" 
d="M250 -9q-89 0 -147 56.5t-58 141.5q0 89 86 185l210 236h117l-175 -196q-10 -12 -68 -50q43 20 78 20q75 0 126.5 -52.5t51.5 -133.5q0 -93 -63 -150t-158 -57zM252 78q54 0 87.5 34t33.5 87q0 48 -29.5 78.5t-79.5 30.5q-55 0 -87.5 -34.5t-32.5 -86.5q0 -48 29.5 -78.5
t78.5 -30.5z" />
    <glyph glyph-name="seven.tab" horiz-adv-x="520" 
d="M42 -94l321 524h-282l14 83h419v-10l-364 -597h-108z" />
    <glyph glyph-name="eight.tab" horiz-adv-x="520" 
d="M248 -9q-90 0 -148.5 52t-58.5 129q0 60 38.5 106t108.5 63q-61 38 -61 110q0 73 53.5 120t138.5 47q83 0 130 -43.5t47 -107.5q0 -48 -29.5 -84t-80.5 -54q90 -42 90 -140q0 -91 -65.5 -144.5t-162.5 -53.5zM255 79q53 0 86 31.5t33 84.5q0 46 -29 73.5t-80 27.5
q-54 0 -87 -31t-33 -85q0 -44 30 -72.5t80 -28.5zM305 373q39 0 63.5 24t24.5 65q0 34 -21 54.5t-57 20.5q-39 0 -63.5 -24t-24.5 -65q0 -34 20.5 -54.5t57.5 -20.5z" />
    <glyph glyph-name="nine.tab" horiz-adv-x="520" 
d="M72 -94l173 185q17 18 71 56q-35 -19 -78 -19q-76 0 -128 52t-52 133q0 93 63 150.5t157 57.5q91 0 149 -55.5t58 -142.5q0 -95 -97 -201l-198 -216h-118zM265 204q55 0 87 34.5t32 87.5q0 49 -28.5 79t-78.5 30q-53 0 -85.5 -34t-32.5 -87q0 -50 28.5 -80t77.5 -30z" />
    <glyph glyph-name="percent.tab" horiz-adv-x="750" 
d="M181 218q-62 0 -100 40t-38 100q0 70 46.5 116.5t107.5 46.5q62 0 99.5 -40t37.5 -100q0 -71 -46 -117t-107 -46zM131 0l413 513h94l-412 -513h-95zM572 -9q-62 0 -100 40t-38 101q0 69 46.5 116t107.5 47q62 0 99.5 -40t37.5 -100q0 -71 -46 -117.5t-107 -46.5zM182 290
q31 0 51 26t20 65q0 32 -15.5 50t-43.5 18q-30 0 -50.5 -26.5t-20.5 -63.5q0 -33 15.5 -51t43.5 -18zM573 64q30 0 50.5 26t20.5 64q0 32 -15.5 50t-43.5 18q-31 0 -51 -26t-20 -64q0 -32 15.5 -50t43.5 -18z" />
    <glyph glyph-name="perthousand.tab" horiz-adv-x="1100" 
d="M190 218q-62 0 -99.5 40t-37.5 100q0 70 46 116.5t107 46.5q62 0 100 -40t38 -100q0 -71 -46 -117t-108 -46zM142 0l412 513h95l-413 -513h-94zM912 -9q-62 0 -99.5 40t-37.5 101q0 69 46 116t107 47q62 0 100 -40t38 -100q0 -71 -46.5 -117.5t-107.5 -46.5zM583 -9
q-62 0 -99.5 40t-37.5 101q0 69 46.5 116t106.5 47q62 0 100 -40t38 -100q0 -71 -46.5 -117.5t-107.5 -46.5zM192 290q30 0 50 26t20 65q0 32 -15 50t-43 18q-31 0 -51 -26t-20 -64q0 -33 15.5 -51t43.5 -18zM914 64q30 0 50 26t20 64q0 32 -15 50t-43 18q-31 0 -51 -26
t-20 -64q0 -32 15.5 -50t43.5 -18zM585 64q30 0 50.5 26t20.5 64q0 32 -15.5 50t-43.5 18q-31 0 -51 -26t-20 -64q0 -32 15.5 -50t43.5 -18z" />
    <glyph glyph-name="plus.tab" horiz-adv-x="520" 
d="M305 218l-25 -141h-87l25 141h-133l14 84h134l26 142h87l-26 -142h135l-15 -84h-135z" />
    <glyph glyph-name="minus.tab" horiz-adv-x="520" 
d="M83 218l14 84h360l-15 -84h-359z" />
    <glyph glyph-name="multiply.tab" horiz-adv-x="520" 
d="M329 255l96 -116l-66 -56l-96 115l-133 -115l-54 62l135 117l-96 116l66 56l95 -115l134 115l54 -62z" />
    <glyph glyph-name="divide.tab" horiz-adv-x="520" 
d="M299 361q-26 0 -45 18.5t-19 46.5t19 46t45 18t44.5 -18t18.5 -46t-18.5 -46.5t-44.5 -18.5zM85 218l14 84h356l-15 -84h-355zM240 29q-26 0 -44.5 19t-18.5 46q0 28 18.5 46.5t44.5 18.5q27 0 45.5 -18.5t18.5 -46.5t-19 -46.5t-45 -18.5z" />
    <glyph glyph-name="equal.tab" horiz-adv-x="520" 
d="M108 281l15 87h330l-15 -87h-330zM82 134l16 87h330l-16 -87h-330z" />
    <glyph glyph-name="less.tab" horiz-adv-x="520" 
d="M390 67l-304 167v10l367 183l-17 -95l-201 -93l169 -91z" />
    <glyph glyph-name="greater.tab" horiz-adv-x="520" 
d="M85 67l18 96l200 93l-169 90l15 81l304 -167v-10z" />
    <glyph glyph-name="degree.tab" horiz-adv-x="350" 
d="M207 277q-51 0 -87.5 34.5t-36.5 85.5q0 54 38 89t92 35q51 0 86.5 -33.5t35.5 -83.5q0 -54 -37.5 -90.5t-90.5 -36.5zM208 338q26 0 42.5 18.5t16.5 46.5q0 27 -15 42t-40 15q-26 0 -43 -18t-17 -46q0 -27 15.5 -42.5t40.5 -15.5z" />
    <glyph glyph-name="period.tab" horiz-adv-x="200" 
d="M75 -6q-26 0 -45.5 18.5t-19.5 46.5t19.5 47t45.5 19t45 -19t19 -47t-19 -46.5t-45 -18.5z" />
    <glyph glyph-name="comma.tab" horiz-adv-x="200" 
d="M-14 -113l60 116q-36 17 -36 58q0 27 19 45.5t46 18.5t45.5 -18.5t18.5 -46.5q0 -24 -26 -62l-77 -111h-50z" />
    <glyph glyph-name="colon.tab" horiz-adv-x="200" 
d="M114 224q-26 0 -44.5 18t-18.5 47q0 28 18.5 47t44.5 19q27 0 46 -19t19 -47q0 -29 -19 -47t-46 -18zM75 -6q-26 0 -45.5 18.5t-19.5 46.5t19.5 47t45.5 19t45 -19t19 -47t-19 -46.5t-45 -18.5z" />
    <glyph glyph-name="semicolon.tab" horiz-adv-x="200" 
d="M114 224q-26 0 -44.5 18t-18.5 47q0 28 18.5 47t44.5 19q27 0 46 -19t19 -47q0 -29 -19 -47t-46 -18zM-14 -113l60 116q-36 17 -36 58q0 27 19 45.5t46 18.5t45.5 -18.5t18.5 -46.5q0 -24 -26 -62l-77 -111h-50z" />
    <glyph glyph-name="parenleft.tab" horiz-adv-x="300" 
d="M154 -131q-108 156 -108 343q0 294 247 506l51 -52q-87 -86 -140.5 -202t-53.5 -252q0 -165 69 -306z" />
    <glyph glyph-name="parenright.tab" horiz-adv-x="300" 
d="M39 -130l-51 52q194 192 194 455q0 163 -69 304l65 37q108 -156 108 -341q0 -92 -21.5 -172t-61 -142.5t-77 -105.5t-87.5 -87z" />
    <glyph glyph-name="bracketleft.tab" horiz-adv-x="300" 
d="M1 -128l150 850h211l-14 -84h-112l-120 -682h111l-15 -84h-211z" />
    <glyph glyph-name="bracketright.tab" horiz-adv-x="300" 
d="M-30 -128l15 84h111l120 682h-111l15 84h211l-150 -850h-211z" />
    <glyph glyph-name="braceleft.tab" horiz-adv-x="300" 
d="M173 -128q-64 0 -100.5 36t-22.5 117l30 167q7 37 -3 50.5t-38 13.5h-24l15 84h21q30 0 45 15t23 58l31 172q14 77 51 107t95 30h66l-14 -84h-39q-27 0 -40.5 -13t-18.5 -46l-33 -188q-8 -49 -31 -69t-64 -26q76 -15 59 -105l-31 -173q-6 -34 4 -48t37 -14h36l-15 -84
h-39z" />
    <glyph glyph-name="braceright.tab" horiz-adv-x="300" 
d="M-30 -128l15 84h39q26 0 39.5 12.5t19.5 46.5l34 191q8 49 31 69t64 26q-76 13 -59 104l29 171q7 34 -3 48t-38 14h-36l15 84h39q64 0 101 -36t23 -117l-30 -164q-6 -37 4 -51t38 -14h25l-15 -84h-22q-31 0 -46 -15t-23 -58l-31 -174q-13 -76 -50.5 -106.5t-95.5 -30.5
h-67z" />
    <glyph glyph-name="section.tab" horiz-adv-x="520" 
d="M156 400q-15 30 -15 71q0 64 47 105.5t117 41.5q119 0 160 -97l-80 -39q-22 56 -78 56q-35 0 -53 -18.5t-18 -47.5q0 -42 46 -64l93 -43q109 -49 109 -140q0 -86 -100 -121q15 -27 15 -66q0 -65 -46.5 -103t-129.5 -38q-69 0 -117.5 30.5t-66.5 76.5l82 39
q27 -65 100 -65q36 0 56.5 15.5t20.5 41.5q0 39 -53 62l-84 38q-58 26 -83.5 59t-25.5 83q0 49 29 81t75 42zM343 151q48 15 48 60t-57 71l-91 42q-32 14 -52 33q-47 -18 -47 -64q0 -26 13 -42t43 -30l85 -37q36 -16 58 -33z" />
    <glyph glyph-name="numbersign.tab" horiz-adv-x="520" 
d="M179 435h-80l14 78h86l26 103h79l-26 -103h89l26 103h79l-26 -103h70l-14 -78h-76l-23 -93h83l-14 -78h-88l-26 -104h-79l26 104h-89l-26 -104h-79l26 104h-69l14 78h74zM347 435h-89l-23 -93h89z" />
    <glyph glyph-name="space.tablining" horiz-adv-x="200" 
 />
    <glyph glyph-name="dollar.tablining" horiz-adv-x="580" 
d="M200 -116l19 111q-125 20 -191 130l83 57q52 -83 124 -96l40 227l-6 4q-136 73 -135 193q0 78 55.5 128t145.5 50h7l15 85h55l-16 -91q84 -19 136 -98l-78 -59q-32 50 -74 65q-34 -194 -34 -195l11 -7q74 -41 111.5 -88.5t37.5 -112.5q0 -93 -61.5 -143.5t-170.5 -52.5
l-19 -107h-55zM290 82q113 8 113 101q0 31 -17.5 54t-59.5 49zM295 424l31 174q-40 0 -66 -23t-26 -59q0 -29 14.5 -49.5t46.5 -42.5z" />
    <glyph glyph-name="cent.tablining" horiz-adv-x="580" 
d="M252 -1q-67 19 -108 74t-41 130q0 97 64 160.5t161 65.5l19 106h54l-20 -110q74 -14 120 -77l-73 -54q-23 34 -61 46l-47 -265q53 1 92 38l58 -64q-60 -58 -154 -58h-11l-19 -107h-54zM313 344q-50 -6 -80 -44t-30 -97q0 -88 64 -118z" />
    <glyph glyph-name="Euro.tablining" horiz-adv-x="580" 
d="M312 -9q-93 0 -152.5 61t-69.5 173h-70l13 76h57q4 48 8 67h-52l13 76h56q36 111 109.5 177.5t166.5 66.5q154 0 198 -155l-91 -33q-18 52 -42.5 75.5t-69.5 23.5q-53 0 -95.5 -42.5t-67.5 -112.5h186l-14 -76h-192q-6 -32 -7 -67h187l-14 -76h-173q6 -68 37 -106t83 -38
q47 0 79.5 25t64.5 81l84 -44q-80 -152 -232 -152z" />
    <glyph glyph-name="sterling.tablining" horiz-adv-x="580" 
d="M190 275h-103l14 76h71q-16 68 -16 120q0 98 58.5 157.5t161.5 59.5q142 0 200 -123l-82 -48q-21 43 -48.5 63.5t-70.5 20.5q-54 0 -84.5 -33.5t-30.5 -98.5q0 -48 14 -118h178l-14 -76h-151q7 -51 7 -88t-9 -68q52 -41 102 -41q32 0 52 12.5t42 40.5l64 -59
q-34 -43 -68 -62t-85 -19q-71 0 -141 60q-46 -60 -124 -60q-48 0 -82.5 29.5t-34.5 72.5q0 49 33 77.5t82 28.5q42 0 79 -20v2q0 36 -14 94zM192 106q-35 30 -64 30q-22 0 -34.5 -11.5t-12.5 -30.5q0 -16 12.5 -27t31.5 -11q48 0 67 50z" />
    <glyph glyph-name="yen.tablining" horiz-adv-x="580" 
d="M204 0l23 133h-186l13 72h186l7 39l-12 38h-168l14 72h133l-95 326h108l75 -264q10 -43 10 -99q12 48 41 94l168 269h107l-210 -326h133l-13 -72h-166l-26 -39l-6 -38h185l-13 -72h-185l-23 -133h-100z" />
    <glyph glyph-name="florin.tablining" horiz-adv-x="559" 
d="M200 240h-96l14 76h95l37 207q29 165 165 165q93 0 137 -77l-68 -51q-24 42 -64 42q-58 0 -71 -78l-36 -208h135l-14 -76h-135l-79 -452h-99z" />
    <glyph glyph-name="zero.tablining" horiz-adv-x="580" 
d="M273 -9q-99 0 -156 70t-57 198q0 184 82 306.5t212 122.5q99 0 156.5 -70t57.5 -198q0 -184 -82 -306.5t-213 -122.5zM277 83q56 0 99 52t63.5 130.5t20.5 166.5q0 164 -110 164q-55 0 -98 -52t-63.5 -130.5t-20.5 -165.5q0 -165 109 -165z" />
    <glyph glyph-name="one.tablining" horiz-adv-x="580" 
d="M231 0l104 588h-161l16 92h263l-120 -680h-102z" />
    <glyph glyph-name="two.tablining" horiz-adv-x="580" 
d="M0 0v9l314 294q67 63 96.5 105t29.5 89q0 44 -26.5 71t-77.5 27q-97 0 -133 -116l-101 20q22 93 86 141t152 48q93 0 148 -52.5t55 -136.5q0 -67 -36 -123t-110 -124l-132 -122q-35 -32 -63 -46l12 1q13 1 30 2.5t29 1.5h203l-16 -89h-460z" />
    <glyph glyph-name="three.tablining" horiz-adv-x="580" 
d="M275 -9q-90 0 -153 42t-90 107l91 43q46 -99 149 -99q70 0 110 40t40 106q0 59 -41.5 94.5t-110.5 35.5q-34 0 -71 -11l-6 9l169 192q8 10 20.5 21t21.5 17l8 7q-38 -5 -62 -5h-201l16 90h409v-9l-181 -210q-8 -9 -19 -18.5t-18 -14.5l-8 -5q75 -7 127 -58t52 -137
q0 -105 -72 -171t-180 -66z" />
    <glyph glyph-name="four.tablining" horiz-adv-x="580" 
d="M468 197h74l-15 -84h-73l-20 -113h-101l20 113h-331l13 70l513 512h8zM368 194l36 205q2 13 18 69q-16 -26 -51 -63l-155 -161q-30 -32 -71 -56q1 0 13.5 1.5t31 3t32.5 1.5h146z" />
    <glyph glyph-name="five.tablining" horiz-adv-x="580" 
d="M272 -9q-84 0 -145.5 39.5t-91.5 103.5l90 46q49 -96 147 -96q69 0 108 38.5t39 100.5q0 61 -37 96.5t-107 35.5q-80 0 -155 -51l-9 4l65 372h360l-16 -90h-270l-30 -166q34 16 84 16q100 0 160 -60.5t60 -155.5q0 -104 -69.5 -168.5t-182.5 -64.5z" />
    <glyph glyph-name="six.tablining" horiz-adv-x="580" 
d="M285 -9q-99 0 -163.5 64t-64.5 159q0 98 75 185l236 281h119l-161 -194q-26 -32 -64 -56q29 16 66 16q89 0 146.5 -60.5t57.5 -151.5q0 -106 -69 -174.5t-178 -68.5zM289 81q63 0 101 43.5t38 108.5q0 60 -34 97t-94 37q-65 0 -102.5 -43t-37.5 -107q0 -58 34 -97t95 -39
z" />
    <glyph glyph-name="seven.tablining" horiz-adv-x="580" 
d="M71 0l374 588h-325l16 92h475v-9l-425 -671h-115z" />
    <glyph glyph-name="eight.tablining" horiz-adv-x="580" 
d="M282 -9q-108 0 -170.5 54t-62.5 139q0 72 43.5 122t119.5 69q-75 37 -75 127q0 79 62 132.5t149 53.5q86 0 139 -47.5t53 -119.5q0 -49 -29 -92.5t-85 -63.5q107 -42 107 -155q0 -97 -71 -158t-180 -61zM286 83q62 0 101.5 35.5t39.5 94.5q0 52 -33 83.5t-94 31.5
q-62 0 -103 -35.5t-41 -96.5q0 -50 34.5 -81.5t95.5 -31.5zM331 407q47 0 77 29.5t30 72.5q0 38 -25 64t-70 26t-75 -28t-30 -70q0 -40 24 -67t69 -27z" />
    <glyph glyph-name="nine.tablining" horiz-adv-x="580" 
d="M145 0l155 188q29 35 67 59q-32 -17 -69 -17q-88 0 -146 62t-58 154q0 104 70.5 173t178.5 69q102 0 165.5 -63t63.5 -160q0 -96 -79 -191l-229 -274h-119zM327 310q63 0 102.5 44.5t39.5 106.5q0 59 -34.5 98t-96.5 39q-64 0 -102 -44t-38 -107q0 -61 34 -99t95 -38z
" />
    <glyph glyph-name="percent.tablining" horiz-adv-x="800" 
d="M226 338q-64 0 -107 45.5t-43 116.5q0 79 50 133.5t120 54.5q65 0 108.5 -45.5t43.5 -116.5q0 -79 -50 -133.5t-122 -54.5zM109 0l528 680h102l-529 -680h-101zM600 -9q-64 0 -107 46t-43 117q0 78 50 132.5t120 54.5q65 0 108.5 -45.5t43.5 -116.5q0 -79 -50.5 -133.5
t-121.5 -54.5zM230 415q36 0 58.5 32t22.5 80q0 37 -17.5 60t-49.5 23q-36 0 -58.5 -31.5t-22.5 -79.5q0 -37 17.5 -60.5t49.5 -23.5zM604 68q36 0 58.5 32t22.5 80q0 37 -17.5 60.5t-49.5 23.5q-36 0 -58.5 -32t-22.5 -80q0 -37 17.5 -60.5t49.5 -23.5z" />
    <glyph glyph-name="perthousand.tablining" horiz-adv-x="1160" 
d="M225 338q-65 0 -108 45.5t-43 116.5q0 79 50 133.5t121 54.5q65 0 108 -45.5t43 -116.5q0 -79 -50 -133.5t-121 -54.5zM107 0l529 680h101l-528 -680h-102zM962 -9q-65 0 -108 46t-43 117q0 78 50 132.5t121 54.5q64 0 107.5 -45.5t43.5 -116.5q0 -79 -50 -133.5
t-121 -54.5zM599 -9q-65 0 -108 46t-43 117q0 78 50 132.5t121 54.5q64 0 107.5 -45.5t43.5 -116.5q0 -79 -50 -133.5t-121 -54.5zM229 415q35 0 58 32t23 80q0 37 -17.5 60t-49.5 23q-36 0 -59 -31.5t-23 -79.5q0 -37 17.5 -60.5t50.5 -23.5zM965 68q36 0 59 32t23 80
q0 37 -17.5 60.5t-50.5 23.5q-36 0 -58.5 -32t-22.5 -80q0 -37 17.5 -60.5t49.5 -23.5zM603 68q35 0 58 32t23 80q0 37 -17.5 60.5t-49.5 23.5q-36 0 -59 -32t-23 -80q0 -37 17.5 -60.5t50.5 -23.5z" />
    <glyph glyph-name="plus.tablining" horiz-adv-x="580" 
d="M346 278l-28 -158h-87l28 158h-151l15 86h151l28 157h88l-28 -157h150l-15 -86h-151z" />
    <glyph glyph-name="minus.tablining" horiz-adv-x="580" 
d="M108 278l15 86h389l-15 -86h-389z" />
    <glyph glyph-name="multiply.tablining" horiz-adv-x="559" 
d="M357 308l96 -116l-65 -55l-96 115l-133 -115l-54 62l135 116l-96 117l66 55l95 -115l134 115l54 -62z" />
    <glyph glyph-name="divide.tablining" horiz-adv-x="559" 
d="M331 428q-27 0 -46 18.5t-19 47.5q0 28 19 47t46 19t46 -19t19 -47q0 -29 -19 -47.5t-46 -18.5zM97 278l15 86h390l-15 -86h-390zM270 82q-27 0 -46 19t-19 47t19 47t46 19t46 -19t19 -47t-19 -47t-46 -19z" />
    <glyph glyph-name="equal.tablining" horiz-adv-x="580" 
d="M117 342l15 85h394l-15 -85h-394zM90 182l15 85h394l-16 -85h-393z" />
    <glyph glyph-name="less.tablining" horiz-adv-x="580" 
d="M432 121l-340 191v10l411 199l-18 -97l-243 -108l204 -116z" />
    <glyph glyph-name="greater.tablining" horiz-adv-x="580" 
d="M77 121l18 97l243 108l-204 116l14 79l340 -191v-10z" />
    <glyph glyph-name="degree.tablining" horiz-adv-x="387" 
d="M251 408q-58 0 -98.5 40.5t-40.5 97.5q0 61 42.5 101.5t102.5 40.5q58 0 99 -39.5t41 -95.5q0 -61 -43 -103t-103 -42zM252 474q31 0 51 21.5t20 55.5q0 31 -18.5 51t-48.5 20q-31 0 -50.5 -21.5t-19.5 -55.5q0 -30 18.5 -50.5t47.5 -20.5z" />
    <glyph glyph-name="period.tablining" horiz-adv-x="200" 
d="M75 -6q-26 0 -45.5 18.5t-19.5 46.5t19.5 47t45.5 19t45 -19t19 -47t-19 -46.5t-45 -18.5z" />
    <glyph glyph-name="comma.tablining" horiz-adv-x="200" 
d="M-14 -113l60 116q-36 17 -36 58q0 27 19 45.5t46 18.5t45.5 -18.5t18.5 -46.5q0 -24 -26 -62l-77 -111h-50z" />
    <glyph glyph-name="colon.tablining" horiz-adv-x="200" 
d="M114 224q-26 0 -44.5 18t-18.5 47q0 28 18.5 47t44.5 19q27 0 46 -19t19 -47q0 -29 -19 -47t-46 -18zM75 -6q-26 0 -45.5 18.5t-19.5 46.5t19.5 47t45.5 19t45 -19t19 -47t-19 -46.5t-45 -18.5z" />
    <glyph glyph-name="semicolon.tablining" horiz-adv-x="200" 
d="M114 224q-26 0 -44.5 18t-18.5 47q0 28 18.5 47t44.5 19q27 0 46 -19t19 -47q0 -29 -19 -47t-46 -18zM-14 -113l60 116q-36 17 -36 58q0 27 19 45.5t46 18.5t45.5 -18.5t18.5 -46.5q0 -24 -26 -62l-77 -111h-50z" />
    <glyph glyph-name="parenleft.tablining" horiz-adv-x="300" 
d="M154 -131q-108 156 -108 343q0 294 247 506l51 -52q-87 -86 -140.5 -202t-53.5 -252q0 -165 69 -306z" />
    <glyph glyph-name="parenright.tablining" horiz-adv-x="300" 
d="M39 -130l-51 52q194 192 194 455q0 163 -69 304l65 37q108 -156 108 -341q0 -92 -21.5 -172t-61 -142.5t-77 -105.5t-87.5 -87z" />
    <glyph glyph-name="bracketleft.tablining" horiz-adv-x="300" 
d="M1 -128l150 850h211l-14 -84h-112l-120 -682h111l-15 -84h-211z" />
    <glyph glyph-name="bracketright.tablining" horiz-adv-x="300" 
d="M-30 -128l15 84h111l120 682h-111l15 84h211l-150 -850h-211z" />
    <glyph glyph-name="braceleft.tablining" horiz-adv-x="300" 
d="M173 -128q-64 0 -100.5 36t-22.5 117l30 167q6 37 -4 50.5t-37 13.5h-25l15 84h22q30 0 45 15t23 58l31 172q14 77 51 107t95 30h66l-14 -84h-39q-27 0 -40.5 -13t-18.5 -46l-33 -188q-8 -49 -31.5 -69t-64.5 -26q75 -15 60 -105l-31 -173q-6 -34 4 -48t37 -14h36
l-15 -84h-39z" />
    <glyph glyph-name="braceright.tablining" horiz-adv-x="300" 
d="M-30 -128l15 84h39q26 0 39.5 12.5t19.5 46.5l34 191q8 49 31 69t64 26q-76 13 -59 104l29 171q7 34 -3 48t-38 14h-36l15 84h39q64 0 101 -36t23 -117l-30 -164q-6 -37 4 -51t38 -14h25l-15 -84h-22q-31 0 -46 -15t-23 -58l-31 -174q-13 -76 -50.5 -106.5t-95.5 -30.5
h-67z" />
    <glyph glyph-name="section.tablining" horiz-adv-x="580" 
d="M176 420q-22 39 -22 89q0 77 54 128t139 51q123 0 179 -105l-83 -49q-36 65 -96 65q-40 0 -64 -24.5t-24 -61.5q0 -54 61 -90l102 -62q110 -66 110 -162q0 -95 -114 -132q22 -35 22 -84q0 -75 -54 -119t-147 -44q-144 0 -214 114l83 54q48 -78 129 -78q49 0 73.5 20.5
t24.5 52.5q0 27 -16 45t-56 41l-100 58q-57 33 -81 69t-24 84q0 56 33.5 91t84.5 49zM372 119q60 17 60 69q0 49 -66 88l-101 61q-30 18 -48 35q-58 -23 -58 -74q0 -28 12.5 -46.5t46.5 -38.5l100 -57q33 -19 54 -37z" />
    <glyph glyph-name="numbersign.tablining" horiz-adv-x="580" 
d="M218 500h-94l14 77h99l26 103h80l-26 -103h95l26 103h79l-26 -103h84l-14 -77h-89l-25 -98h95l-14 -77h-100l-26 -105h-79l26 105h-95l-26 -105h-80l26 105h-82l14 77h87zM369 402l24 98h-95l-24 -98h95z" />
    <glyph glyph-name="zero.numerator" horiz-adv-x="489" 
d="M271 210q-88 0 -142 59t-54 153q0 113 67 189.5t165 76.5q88 0 141 -58.5t53 -153.5q0 -115 -66 -190.5t-164 -75.5zM273 292q58 0 95 53t37 132q0 60 -26.5 94.5t-74.5 34.5q-59 0 -96.5 -53t-37.5 -132q0 -61 27.5 -95t75.5 -34z" />
    <glyph glyph-name="one.numerator" horiz-adv-x="275" 
d="M106 218l66 380h-89l15 82h182l-81 -462h-93z" />
    <glyph glyph-name="two.numerator" horiz-adv-x="408" 
d="M26 218v11l210 193q47 43 65.5 71t18.5 56q0 24 -16 39.5t-43 15.5q-58 0 -99 -68l-76 42q26 51 72 80.5t105 29.5q68 0 109.5 -39t41.5 -98q0 -45 -26.5 -84.5t-77.5 -85.5l-52 -47q-23 -22 -65 -43l33 3q33 4 44 4h120l-15 -80h-349z" />
    <glyph glyph-name="three.numerator" horiz-adv-x="393" 
d="M210 210q-65 0 -113 31t-66 75l82 38q28 -61 97 -61q40 0 63.5 23.5t23.5 59.5q0 37 -25 58t-69 21q-35 0 -54 -8l-6 10l94 103q7 8 19 19t20 17l9 7q-37 -3 -66 -3h-115l14 80h307v-10l-106 -122q-21 -24 -45 -36q49 -7 84.5 -44t35.5 -93q0 -73 -50.5 -119t-133.5 -46z
" />
    <glyph glyph-name="four.numerator" horiz-adv-x="434" 
d="M375 357h58l-12 -71h-58l-12 -68h-91l12 68h-241l11 62l381 339h10zM286 355l16 88q2 14 18 69q-17 -25 -48 -54l-74 -68q-10 -9 -23.5 -18.5t-22.5 -14.5l-8 -5q32 3 62 3h80z" />
    <glyph glyph-name="five.numerator" horiz-adv-x="395" 
d="M208 210q-63 0 -109.5 29t-67.5 73l79 44q34 -62 98 -62q41 0 66.5 21.5t25.5 57.5q0 35 -25 55.5t-68 20.5q-65 0 -114 -31l-9 7l45 255h267l-14 -80h-188l-16 -89q28 10 59 10q70 0 114.5 -40.5t44.5 -106.5q0 -77 -52 -120.5t-136 -43.5z" />
    <glyph glyph-name="six.numerator" horiz-adv-x="422" 
d="M239 210q-75 0 -127 47.5t-52 113.5q0 69 61 142l144 167h111l-90 -103q-23 -27 -70 -57q27 11 55 11q61 0 107 -42.5t46 -106.5q0 -77 -52 -124.5t-133 -47.5zM240 290q39 0 65 25.5t26 65.5q0 36 -24.5 59t-63.5 23q-40 0 -65.5 -24.5t-25.5 -65.5q0 -36 24.5 -59.5
t63.5 -23.5z" />
    <glyph glyph-name="seven.numerator" horiz-adv-x="404" 
d="M67 218l247 380h-221l15 82h355v-10l-291 -452h-105z" />
    <glyph glyph-name="eight.numerator" horiz-adv-x="418" 
d="M232 210q-77 0 -125.5 37.5t-48.5 97.5q0 47 30 80.5t82 48.5q-54 29 -54 87q0 53 44 90t116 37q69 0 108 -34.5t39 -86.5q0 -77 -84 -102q35 -16 55.5 -44.5t20.5 -63.5q0 -65 -53 -106t-130 -41zM235 287q38 0 62 21.5t24 55.5q0 32 -23 52t-59 20q-38 0 -62 -22
t-24 -57q0 -32 22.5 -51t59.5 -19zM267 499q27 0 45.5 17.5t18.5 42.5t-16 41t-43 16q-28 0 -47 -16t-19 -42t17 -42.5t44 -16.5z" />
    <glyph glyph-name="nine.numerator" horiz-adv-x="422" 
d="M126 218l94 104q30 34 70 56q-24 -11 -53 -11q-61 0 -107 43t-46 106q0 77 52 124.5t133 47.5q76 0 127.5 -47.5t51.5 -113.5q0 -74 -63 -144l-149 -165h-110zM265 435q40 0 65.5 24.5t25.5 65.5q0 36 -24.5 59.5t-63.5 23.5t-65 -25.5t-26 -65.5q0 -36 24.5 -59
t63.5 -23z" />
    <glyph glyph-name="zero.denominator" horiz-adv-x="489" 
d="M232 -8q-88 0 -142 58.5t-54 153.5q0 113 67 189t164 76q89 0 142 -58t53 -153q0 -115 -66.5 -190.5t-163.5 -75.5zM234 73q58 0 95 53t37 132q0 60 -26.5 95t-74.5 35q-59 0 -96.5 -53t-37.5 -132q0 -62 27 -96t76 -34z" />
    <glyph glyph-name="one.denominator" horiz-adv-x="275" 
d="M68 0l66 379h-89l14 83h183l-82 -462h-92z" />
    <glyph glyph-name="two.denominator" horiz-adv-x="408" 
d="M-13 0v11l210 193q47 43 65.5 71t18.5 56q0 24 -16 39.5t-43 15.5q-58 0 -99 -68l-76 42q26 51 72 80.5t105 29.5q68 0 109.5 -39t41.5 -98q0 -45 -26.5 -84.5t-77.5 -85.5l-52 -47q-23 -22 -65 -43l33 3q33 4 44 4h120l-15 -80h-349z" />
    <glyph glyph-name="three.denominator" horiz-adv-x="393" 
d="M172 -8q-66 0 -114 30.5t-65 74.5l81 38q28 -60 98 -60q39 0 63 23.5t24 59.5t-25.5 57t-68.5 21q-34 0 -55 -7l-6 10l94 103q7 8 19 18.5t21 17.5l8 7q-36 -4 -66 -4h-115l15 81h306v-10l-106 -122q-20 -25 -45 -37q49 -6 84.5 -43t35.5 -94q0 -72 -50 -118t-133 -46z
" />
    <glyph glyph-name="four.denominator" horiz-adv-x="434" 
d="M337 139h58l-12 -71h-58l-12 -68h-91l12 68h-241l11 62l381 339h10zM248 137l16 88q2 14 18 69q-17 -25 -48 -54l-74 -68q-10 -9 -23.5 -18.5t-22.5 -14.5l-8 -5q32 3 62 3h80z" />
    <glyph glyph-name="five.denominator" horiz-adv-x="395" 
d="M169 -8q-63 0 -109.5 29t-67.5 72l79 45q33 -62 98 -62q41 0 67 21.5t26 56.5t-25.5 56t-68.5 21q-65 0 -114 -31l-9 6l45 256h268l-15 -81h-188l-15 -89q26 11 58 11q70 0 114.5 -40.5t44.5 -106.5q0 -77 -52 -120.5t-136 -43.5z" />
    <glyph glyph-name="six.denominator" horiz-adv-x="422" 
d="M201 -8q-76 0 -127.5 47.5t-51.5 113.5q0 70 61 141l145 167h110l-89 -102q-25 -28 -68 -57q22 11 53 11q60 0 106 -43t46 -107q0 -76 -52.5 -123.5t-132.5 -47.5zM203 72q39 0 64.5 25t25.5 66q0 36 -24.5 59t-63.5 23t-65 -25t-26 -65q0 -36 25 -59.5t64 -23.5z" />
    <glyph glyph-name="seven.denominator" horiz-adv-x="404" 
d="M28 0l247 379h-220l14 83h356v-10l-291 -452h-106z" />
    <glyph glyph-name="eight.denominator" horiz-adv-x="418" 
d="M194 -8q-76 0 -125 37.5t-49 97.5q0 47 30.5 80.5t81.5 47.5q-53 29 -53 88q0 53 44 89.5t116 36.5q68 0 107.5 -34t39.5 -86q0 -76 -85 -103q35 -16 55.5 -44.5t20.5 -62.5q0 -65 -52.5 -106t-130.5 -41zM197 69q39 0 62.5 21.5t23.5 55.5q0 32 -22.5 51.5t-58.5 19.5
q-38 0 -62 -22t-24 -57q0 -31 22 -50t59 -19zM230 281q27 0 45.5 17.5t18.5 42.5t-16 41t-43 16q-28 0 -47.5 -16.5t-19.5 -41.5q0 -26 17 -42.5t45 -16.5z" />
    <glyph glyph-name="nine.denominator" horiz-adv-x="423" 
d="M88 0l94 103q25 29 70 56q-21 -10 -53 -10q-61 0 -107 42.5t-46 106.5q0 77 52.5 124t133.5 47q75 0 126.5 -47.5t51.5 -113.5q0 -74 -63 -143l-149 -165h-110zM227 216q40 0 66 25t26 65q0 36 -25 59.5t-64 23.5t-65 -25t-26 -65q0 -36 24.5 -59.5t63.5 -23.5z" />
    <glyph glyph-name="zero.subscript" horiz-adv-x="417" 
d="M149 -257q-76 0 -122 50t-46 130q0 96 57.5 161t140.5 65q76 0 121 -49.5t45 -130.5q0 -98 -56.5 -162t-139.5 -64zM150 -188q50 0 81.5 45t31.5 112q0 52 -23 81t-64 29q-50 0 -82 -45t-32 -112q0 -52 23.5 -81t64.5 -29z" />
    <glyph glyph-name="one.subscript" horiz-adv-x="234" 
d="M9 -250l56 322h-76l12 71h156l-70 -393h-78z" />
    <glyph glyph-name="two.subscript" horiz-adv-x="346" 
d="M-60 -250v9l178 164q72 65 72 108q0 21 -13.5 34t-36.5 13q-49 0 -84 -58l-65 36q50 94 150 94q57 0 93 -33.5t36 -83.5q0 -38 -22.5 -71t-66.5 -73l-44 -40q-10 -9 -24 -18.5t-23 -14.5l-9 -4q51 6 66 6h102l-12 -68h-297z" />
    <glyph glyph-name="three.subscript" horiz-adv-x="334" 
d="M97 -257q-56 0 -97 26t-55 64l70 32q23 -51 82 -51q33 0 53.5 20t20.5 50q0 31 -22 49t-58 18q-27 0 -49 -8l-5 9l82 89l40 36q-31 -3 -56 -3h-97l13 68h260v-8l-90 -104q-21 -25 -38 -31q41 -6 71.5 -37t30.5 -79q0 -62 -43 -101t-113 -39z" />
    <glyph glyph-name="four.subscript" horiz-adv-x="369" 
d="M237 -132h50l-10 -60h-50l-10 -58h-77l10 58h-205l9 53l324 288h9zM162 -134l13 75l17 60q-18 -25 -42 -47l-63 -58q-26 -22 -46 -32h3q3 0 8.5 0.5t12 1t14.5 0.5h15h68z" />
    <glyph glyph-name="five.subscript" horiz-adv-x="336" 
d="M94 -257q-53 0 -92.5 24.5t-57.5 61.5l67 38q29 -52 83 -52q35 0 57 18t22 48q0 29 -21.5 47t-57.5 18q-53 0 -98 -26l-7 5l38 217h228l-12 -68h-160l-14 -76q24 10 50 10q60 0 97.5 -34.5t37.5 -91.5q0 -65 -44 -102t-116 -37z" />
    <glyph glyph-name="six.subscript" horiz-adv-x="359" 
d="M122 -257q-64 0 -108 40.5t-44 96.5q0 59 52 120l123 142h93l-75 -87q-20 -23 -61 -50q20 11 48 11q51 0 90 -36.5t39 -90.5q0 -65 -44.5 -105.5t-112.5 -40.5zM124 -189q33 0 54.5 21.5t21.5 56.5q0 30 -21 49.5t-54 19.5t-55 -21t-22 -55q0 -30 21.5 -50.5t54.5 -20.5z
" />
    <glyph glyph-name="seven.subscript" horiz-adv-x="343" 
d="M-25 -250l210 322h-187l12 71h302v-9l-247 -384h-90z" />
    <glyph glyph-name="eight.subscript" horiz-adv-x="354" 
d="M115 -257q-65 0 -106.5 31.5t-41.5 82.5q0 40 25.5 69t69.5 41q-44 24 -44 74q0 45 37 76.5t98 31.5q58 0 91.5 -29.5t33.5 -73.5q0 -65 -72 -87q64 -28 64 -91q0 -56 -45 -90.5t-110 -34.5zM118 -192q33 0 53 18.5t20 47.5q0 26 -19.5 43.5t-49.5 17.5q-33 0 -53 -19
t-20 -49q0 -26 19 -42.5t50 -16.5zM146 -12q23 0 38 14.5t15 36.5q0 21 -13.5 35t-35.5 14q-24 0 -40.5 -14t-16.5 -36t14.5 -36t38.5 -14z" />
    <glyph glyph-name="nine.subscript" horiz-adv-x="360" 
d="M26 -250l80 88q17 19 60 48q-20 -9 -46 -9q-52 0 -91 36t-39 90q0 65 44.5 105.5t113.5 40.5q64 0 108 -40.5t44 -96.5q0 -64 -54 -122l-127 -140h-93zM144 -66q34 0 56 21t22 55q0 30 -21 50.5t-54 20.5t-55.5 -21.5t-22.5 -55.5q0 -31 20.5 -50.5t54.5 -19.5z" />
    <glyph glyph-name="zero.superscript" horiz-adv-x="417" 
d="M243 281q-75 0 -121 50t-46 131q0 96 57 160.5t140 64.5q76 0 121 -49.5t45 -129.5q0 -98 -56.5 -162.5t-139.5 -64.5zM244 351q50 0 81.5 45t31.5 112q0 51 -23 80.5t-63 29.5q-50 0 -82.5 -45t-32.5 -112q0 -52 23.5 -81t64.5 -29z" />
    <glyph glyph-name="one.superscript" horiz-adv-x="233" 
d="M102 287l56 323h-75l12 70h155l-69 -393h-79z" />
    <glyph glyph-name="two.superscript" horiz-adv-x="348" 
d="M35 287v10l179 164q71 64 71 108q0 21 -13.5 33.5t-36.5 12.5q-50 0 -84 -57l-65 35q50 94 151 94q57 0 92.5 -33.5t35.5 -83.5q0 -38 -22.5 -71.5t-65.5 -72.5l-45 -40q-10 -9 -24 -18.5t-23 -13.5l-9 -5q52 6 67 6h102l-13 -68h-297z" />
    <glyph glyph-name="three.superscript" horiz-adv-x="334" 
d="M191 281q-56 0 -97 26t-55 64l69 32q23 -52 83 -52q33 0 53.5 20t20.5 51q0 30 -22 48t-58 18q-31 0 -48 -7l-5 8l80 89q6 7 16.5 16t17.5 14l7 6q-31 -2 -56 -2h-97l12 68h261v-8l-90 -104q-21 -25 -38 -31q41 -6 71 -37t30 -79q0 -62 -42.5 -101t-112.5 -39z" />
    <glyph glyph-name="four.superscript" horiz-adv-x="369" 
d="M332 405h49l-10 -60h-49l-11 -58h-77l10 58h-205l10 53l324 288h8zM256 404l14 75l16 59q-18 -25 -42 -47l-63 -57q-25 -23 -46 -33l8 1q8 0 20.5 1t24.5 1h68z" />
    <glyph glyph-name="five.superscript" horiz-adv-x="336" 
d="M189 281q-53 0 -92.5 24.5t-58.5 61.5l67 38q29 -53 84 -53q35 0 56.5 18t21.5 48t-21 47.5t-58 17.5q-54 0 -97 -26l-8 6l39 217h227l-13 -68h-160l-12 -76q20 9 49 9q60 0 98 -34.5t38 -90.5q0 -65 -44.5 -102t-115.5 -37z" />
    <glyph glyph-name="six.superscript" horiz-adv-x="359" 
d="M216 281q-64 0 -108 40t-44 96q0 59 52 121l122 142h95l-77 -88q-17 -20 -59 -48q23 9 46 9q52 0 91 -36t39 -90q0 -65 -44.5 -105.5t-112.5 -40.5zM217 349q33 0 55 21.5t22 55.5q0 30 -20.5 50t-53.5 20q-34 0 -56 -21t-22 -56q0 -30 21 -50t54 -20z" />
    <glyph glyph-name="seven.superscript" horiz-adv-x="345" 
d="M70 287l210 323h-188l13 70h302v-8l-248 -385h-89z" />
    <glyph glyph-name="eight.superscript" horiz-adv-x="355" 
d="M210 281q-65 0 -106.5 31.5t-41.5 82.5q0 40 25.5 69t69.5 41q-45 24 -45 74q0 45 37.5 76.5t98.5 31.5q58 0 91.5 -29.5t33.5 -73.5q0 -65 -72 -87q64 -28 64 -91q0 -56 -45 -90.5t-110 -34.5zM213 346q33 0 53 18.5t20 47.5q0 26 -19.5 43.5t-49.5 17.5q-33 0 -53 -19
t-20 -49q0 -26 19 -42.5t50 -16.5zM241 526q23 0 38 14.5t15 36.5q0 21 -13.5 35t-35.5 14q-24 0 -40.5 -14t-16.5 -36t14.5 -36t38.5 -14z" />
    <glyph glyph-name="nine.superscript" horiz-adv-x="359" 
d="M119 287l80 89q18 20 59 47q-18 -9 -45 -9q-51 0 -90.5 36.5t-39.5 90.5q0 65 45 105.5t113 40.5q64 0 108 -40.5t44 -96.5q0 -62 -54 -122l-126 -141h-94zM237 472q34 0 56 20.5t22 55.5q0 30 -21 50.5t-54 20.5t-55.5 -22t-22.5 -56q0 -30 21 -49.5t54 -19.5z" />
    <glyph glyph-name="G.alt" horiz-adv-x="779" 
d="M402 -9q-148 0 -239.5 92.5t-91.5 238.5q0 159 105.5 262.5t256.5 103.5q190 0 276 -134l-81 -57q-65 99 -198 99q-110 0 -181.5 -77.5t-71.5 -195.5q0 -105 63 -173t165 -68q93 0 155.5 48.5t77.5 121.5h-207l15 89h306q-6 -160 -97 -255t-253 -95z" />
    <glyph glyph-name="M.alt" horiz-adv-x="826" 
d="M25 0l188 688h12l171 -365q6 -13 13 -31t11.5 -31t5.5 -14q19 38 52 76l295 365h12l-54 -688h-101l25 337q4 52 17 115q-1 -1 -5 -8t-11.5 -18t-17 -25t-22 -31.5t-25.5 -33.5l-187 -234h-10l-111 252l-43 103q0 -1 -3.5 -21t-9.5 -49.5t-11 -49.5l-94 -337h-97z" />
    <glyph glyph-name="Q.alt1" horiz-adv-x="782" 
d="M422 -7l-27 -151h-101l27 158q-111 24 -181 112t-70 211q0 161 105.5 263t257.5 102q140 0 233.5 -93t93.5 -238q0 -154 -97.5 -255t-240.5 -109zM337 89l23 128h101l-24 -134q98 14 157.5 89.5t59.5 186.5q0 106 -62.5 171.5t-161.5 65.5q-112 0 -183 -77t-71 -198
q0 -88 43.5 -150t117.5 -82z" />
    <glyph glyph-name="Q.alt2" horiz-adv-x="782" 
d="M452 3q60 -54 116 -54q52 0 90 44l68 -60q-58 -75 -159 -75q-17 0 -34 3t-29.5 6.5t-29.5 12.5t-25.5 14t-25.5 18t-22 17t-22.5 19.5t-20.5 17.5q-27 22 -41 32t-38.5 20.5t-47.5 10.5q-64 0 -113 -71l-71 59q40 61 107 82q-84 90 -84 224q0 161 105.5 263t257.5 102
q140 0 233.5 -93t93.5 -238q0 -146 -85.5 -241t-222.5 -113zM400 83q112 0 183 77t71 199q0 106 -62.5 171.5t-161.5 65.5q-112 0 -183 -77t-71 -198q0 -106 62 -172t162 -66z" />
    <glyph glyph-name="u.alt" horiz-adv-x="497" 
d="M228 -9q-92 0 -139.5 55t-30.5 151l39 223h99l-41 -231q-20 -112 78 -112q45 0 68.5 24t33.5 79l42 240h99l-44 -252q-31 -177 -204 -177z" />
    <glyph glyph-name="Gbreve.alt" horiz-adv-x="779" 
d="M402 -9q-148 0 -239.5 92.5t-91.5 238.5q0 159 105.5 262.5t256.5 103.5q190 0 276 -134l-81 -57q-65 99 -198 99q-110 0 -181.5 -77.5t-71.5 -195.5q0 -105 63 -173t165 -68q93 0 155.5 48.5t77.5 121.5h-207l15 89h306q-6 -160 -97 -255t-253 -95zM459 744
q-61 0 -97.5 36t-40.5 92l78 12q9 -65 60 -65q54 0 71 65l76 -13q-10 -56 -48.5 -91.5t-98.5 -35.5z" />
    <glyph glyph-name="Gcircumflex.alt" horiz-adv-x="779" 
d="M303 746l175 205h10l106 -205h-78l-50 91l-79 -91h-84zM402 -9q-148 0 -239.5 92.5t-91.5 238.5q0 159 105.5 262.5t256.5 103.5q190 0 276 -134l-81 -57q-65 99 -198 99q-110 0 -181.5 -77.5t-71.5 -195.5q0 -105 63 -173t165 -68q93 0 155.5 48.5t77.5 121.5h-207
l15 89h306q-6 -160 -97 -255t-253 -95z" />
    <glyph glyph-name="Gcommaaccent.alt" horiz-adv-x="779" 
d="M274 -269l48 100q-34 17 -34 57q0 26 19 43.5t44 17.5q26 0 44 -17t18 -43q0 -32 -25 -66l-63 -92h-51zM402 -9q-148 0 -239.5 92.5t-91.5 238.5q0 159 105.5 262.5t256.5 103.5q190 0 276 -134l-81 -57q-65 99 -198 99q-110 0 -181.5 -77.5t-71.5 -195.5q0 -105 63 -173
t165 -68q93 0 155.5 48.5t77.5 121.5h-207l15 89h306q-6 -160 -97 -255t-253 -95z" />
    <glyph glyph-name="Gdotaccent.alt" horiz-adv-x="779" 
d="M402 -9q-148 0 -239.5 92.5t-91.5 238.5q0 159 105.5 262.5t256.5 103.5q190 0 276 -134l-81 -57q-65 99 -198 99q-110 0 -181.5 -77.5t-71.5 -195.5q0 -105 63 -173t165 -68q93 0 155.5 48.5t77.5 121.5h-207l15 89h306q-6 -160 -97 -255t-253 -95zM461 745
q-26 0 -45 18.5t-19 46.5t18.5 46t45.5 18t46 -18t19 -46q0 -29 -19 -47t-46 -18z" />
    <glyph glyph-name="e.alt" horiz-adv-x="506" 
d="M143 164q10 -43 42 -67t82 -24q68 0 116 44l61 -62q-70 -64 -178 -64q-103 0 -164 60t-61 153q0 98 63.5 161.5t157.5 63.5q101 0 153.5 -62t55.5 -168zM141 231l224 24q-4 41 -30 67.5t-73 26.5q-51 0 -82.5 -31t-38.5 -87z" />
    <glyph glyph-name="eacute.alt" horiz-adv-x="506" 
d="M233 502l89 191h120l-131 -191h-78zM143 164q10 -43 42 -67t82 -24q68 0 116 44l61 -62q-70 -64 -178 -64q-103 0 -164 60t-61 153q0 98 63.5 161.5t157.5 63.5q101 0 153.5 -62t55.5 -168zM141 231l224 24q-4 41 -30 67.5t-73 26.5q-51 0 -82.5 -31t-38.5 -87z" />
    <glyph glyph-name="ecaron.alt" horiz-adv-x="507" 
d="M270 487l-106 205h78l50 -91l79 91h84l-175 -205h-10zM143 164q10 -43 42 -67t82 -24q68 0 116 44l61 -62q-70 -64 -178 -64q-103 0 -164 60t-61 153q0 98 63.5 161.5t157.5 63.5q101 0 153.5 -62t55.5 -168zM141 231l224 24q-4 41 -30 67.5t-73 26.5q-51 0 -82.5 -31
t-38.5 -87z" />
    <glyph glyph-name="ecircumflex.alt" horiz-adv-x="506" 
d="M131 501l175 205h10l106 -205h-78l-50 91l-79 -91h-84zM143 164q10 -43 42 -67t82 -24q68 0 116 44l61 -62q-70 -64 -178 -64q-103 0 -164 60t-61 153q0 98 63.5 161.5t157.5 63.5q101 0 153.5 -62t55.5 -168zM141 231l224 24q-4 41 -30 67.5t-73 26.5q-51 0 -82.5 -31
t-38.5 -87z" />
    <glyph glyph-name="edieresis.alt" horiz-adv-x="506" 
d="M383 523q-23 0 -41 17.5t-18 41.5t18 42t41 18t40.5 -17.5t17.5 -42.5q0 -24 -17.5 -41.5t-40.5 -17.5zM200 523q-23 0 -40.5 17.5t-17.5 41.5t17.5 42t40.5 18q24 0 41.5 -18t17.5 -42t-17.5 -41.5t-41.5 -17.5zM143 164q10 -43 42 -67t82 -24q68 0 116 44l61 -62
q-70 -64 -178 -64q-103 0 -164 60t-61 153q0 98 63.5 161.5t157.5 63.5q101 0 153.5 -62t55.5 -168zM141 231l224 24q-4 41 -30 67.5t-73 26.5q-51 0 -82.5 -31t-38.5 -87z" />
    <glyph glyph-name="edotaccent.alt" horiz-adv-x="507" 
d="M291 518q-26 0 -45 18.5t-19 46.5t18.5 46t45.5 18t46 -18t19 -46q0 -29 -19 -47t-46 -18zM143 164q10 -43 42 -67t82 -24q68 0 116 44l61 -62q-70 -64 -178 -64q-103 0 -164 60t-61 153q0 98 63.5 161.5t157.5 63.5q101 0 153.5 -62t55.5 -168zM141 231l224 24
q-4 41 -30 67.5t-73 26.5q-51 0 -82.5 -31t-38.5 -87z" />
    <glyph glyph-name="egrave.alt" horiz-adv-x="506" 
d="M234 502l-89 191h115l50 -191h-76zM143 164q10 -43 42 -67t82 -24q68 0 116 44l61 -62q-70 -64 -178 -64q-103 0 -164 60t-61 153q0 98 63.5 161.5t157.5 63.5q101 0 153.5 -62t55.5 -168zM141 231l224 24q-4 41 -30 67.5t-73 26.5q-51 0 -82.5 -31t-38.5 -87z" />
    <glyph glyph-name="emacron.alt" horiz-adv-x="506" 
d="M160 529l14 74h244l-14 -74h-244zM143 164q10 -43 42 -67t82 -24q68 0 116 44l61 -62q-70 -64 -178 -64q-103 0 -164 60t-61 153q0 98 63.5 161.5t157.5 63.5q101 0 153.5 -62t55.5 -168zM141 231l224 24q-4 41 -30 67.5t-73 26.5q-51 0 -82.5 -31t-38.5 -87z" />
    <glyph glyph-name="eogonek.alt" horiz-adv-x="506" 
d="M141 231l224 24q-4 41 -30 67.5t-73 26.5q-51 0 -82.5 -31t-38.5 -87zM266 -9q-103 0 -164 60t-61 153q0 98 63.5 161.5t157.5 63.5q101 0 153.5 -62t55.5 -168l-328 -35q10 -43 42 -67t82 -24q67 0 116 45l60 -63q-8 -7 -42.5 -32t-54.5 -51l-27 -33q-23 -28 -31.5 -44
t-8.5 -37q0 -36 35 -36q24 0 47 32l52 -30q-33 -60 -103 -60q-42 0 -71.5 23.5t-29.5 66.5q0 57 57 110l32 30q-15 -3 -32 -3z" />
    <glyph glyph-name="uacute.alt" horiz-adv-x="497" 
d="M256 502l89 191h120l-131 -191h-78zM228 -9q-92 0 -139.5 55t-30.5 151l39 223h99l-41 -231q-20 -112 78 -112q45 0 68.5 24t33.5 79l42 240h99l-44 -252q-31 -177 -204 -177z" />
    <glyph glyph-name="ubreve.alt" horiz-adv-x="497" 
d="M228 -9q-92 0 -139.5 55t-30.5 151l39 223h99l-41 -231q-20 -112 78 -112q45 0 68.5 24t33.5 79l42 240h99l-44 -252q-31 -177 -204 -177zM310 500q-61 0 -97.5 36t-40.5 92l78 12q9 -65 60 -65q54 0 71 65l76 -13q-10 -56 -48.5 -91.5t-98.5 -35.5z" />
    <glyph glyph-name="ucircumflex.alt" horiz-adv-x="497" 
d="M155 501l175 205h10l106 -205h-78l-50 91l-79 -91h-84zM228 -9q-92 0 -139.5 55t-30.5 151l39 223h99l-41 -231q-20 -112 78 -112q45 0 68.5 24t33.5 79l42 240h99l-44 -252q-31 -177 -204 -177z" />
    <glyph glyph-name="udieresis.alt" horiz-adv-x="497" 
d="M406 523q-23 0 -41 17.5t-18 41.5t18 42t41 18t40.5 -17.5t17.5 -42.5q0 -24 -17 -41.5t-41 -17.5zM223 523q-23 0 -40.5 17.5t-17.5 41.5t17.5 42t40.5 18t41 -18t18 -42t-17.5 -41.5t-41.5 -17.5zM228 -9q-92 0 -139.5 55t-30.5 151l39 223h99l-41 -231
q-20 -112 78 -112q45 0 68.5 24t33.5 79l42 240h99l-44 -252q-31 -177 -204 -177z" />
    <glyph glyph-name="ugrave.alt" horiz-adv-x="497" 
d="M257 502l-89 191h115l50 -191h-76zM228 -9q-92 0 -139.5 55t-30.5 151l39 223h99l-41 -231q-20 -112 78 -112q45 0 68.5 24t33.5 79l42 240h99l-44 -252q-31 -177 -204 -177z" />
    <glyph glyph-name="uhungarumlaut.alt" horiz-adv-x="497" 
d="M324 502l94 191h106l-122 -191h-78zM166 502l93 191h107l-122 -191h-78zM228 -9q-92 0 -139.5 55t-30.5 151l39 223h99l-41 -231q-20 -112 78 -112q45 0 68.5 24t33.5 79l42 240h99l-44 -252q-31 -177 -204 -177z" />
    <glyph glyph-name="umacron.alt" horiz-adv-x="497" 
d="M183 529l14 74h244l-14 -74h-244zM228 -9q-92 0 -139.5 55t-30.5 151l39 223h99l-41 -231q-20 -112 78 -112q45 0 68.5 24t33.5 79l42 240h99l-44 -252q-31 -177 -204 -177z" />
    <glyph glyph-name="uogonek.alt" horiz-adv-x="497" 
d="M194 -7q-77 11 -114 64.5t-22 139.5l39 223h99l-41 -231q-20 -112 78 -112q45 0 68.5 24t33.5 79l42 240h99l-44 -252q-28 -161 -174 -176l-43 -53q-23 -28 -32 -44.5t-9 -36.5q0 -17 10 -26.5t26 -9.5q24 0 47 32l52 -30q-33 -60 -103 -60q-42 0 -71.5 23.5t-29.5 66.5
q0 57 57 110z" />
    <glyph glyph-name="uring.alt" horiz-adv-x="497" 
d="M310 479q-48 0 -81 32t-33 77q0 46 33 78t81 32q49 0 82 -32t33 -78q0 -45 -33.5 -77t-81.5 -32zM310 537q21 0 34.5 14t13.5 37q0 24 -13.5 38t-34.5 14t-34.5 -14t-13.5 -38q0 -23 13.5 -37t34.5 -14zM228 -9q-92 0 -139.5 55t-30.5 151l39 223h99l-41 -231
q-20 -112 78 -112q45 0 68.5 24t33.5 79l42 240h99l-44 -252q-31 -177 -204 -177z" />
    <glyph glyph-name="y.alt" horiz-adv-x="509" 
d="M181 -222q-125 0 -182 89l68 60q43 -65 117 -65q103 0 124 118l15 83q-53 -72 -137 -72q-70 0 -107 52.5t-22 138.5l41 238h100l-41 -233q-9 -51 10 -79.5t63 -28.5q96 0 115 109l41 232h99l-79 -452q-35 -190 -225 -190z" />
    <glyph glyph-name="yacute.alt" horiz-adv-x="509" 
d="M253 502l89 191h120l-131 -191h-78zM181 -222q-125 0 -182 89l68 60q43 -65 117 -65q103 0 124 118l15 83q-53 -72 -137 -72q-70 0 -107 52.5t-22 138.5l41 238h100l-41 -233q-9 -51 10 -79.5t63 -28.5q96 0 115 109l41 232h99l-79 -452q-35 -190 -225 -190z" />
    <glyph glyph-name="ydieresis.alt" horiz-adv-x="509" 
d="M400 523q-23 0 -41 17.5t-18 41.5t18 42t41 18t40.5 -17.5t17.5 -42.5q0 -24 -17 -41.5t-41 -17.5zM217 523q-23 0 -40.5 17.5t-17.5 41.5t17.5 42t40.5 18t41 -18t18 -42t-17.5 -41.5t-41.5 -17.5zM181 -222q-125 0 -182 89l68 60q43 -65 117 -65q103 0 124 118l15 83
q-53 -72 -137 -72q-70 0 -107 52.5t-22 138.5l41 238h100l-41 -233q-9 -51 10 -79.5t63 -28.5q96 0 115 109l41 232h99l-79 -452q-35 -190 -225 -190z" />
    <glyph glyph-name="ae.alt" horiz-adv-x="775" 
d="M381 362q57 67 150 67q101 0 153 -62t55 -168l-328 -35q10 -43 42 -67t82 -24q68 0 116 44l61 -62q-70 -64 -177 -64q-123 0 -177 92q-47 -92 -173 -92q-73 0 -118 34t-44 92q0 131 177 131h119q7 47 -13.5 74t-63.5 27q-65 0 -108 -47l-55 61q59 66 167 66q95 0 135 -67
zM409 231l224 24q-4 41 -29.5 67.5t-72.5 26.5q-51 0 -83 -31t-39 -87zM308 182h-112q-74 0 -74 -58q0 -54 72 -54q96 0 107 74z" />
    <glyph glyph-name="oe.alt" horiz-adv-x="850" 
d="M432 84q-58 -93 -176 -93q-91 0 -153 60.5t-62 150.5q0 99 66.5 163t165.5 64q56 0 98 -25t66 -68q56 93 169 93q101 0 153 -62t55 -168l-328 -35q10 -43 42 -67t82 -24q68 0 116 44l61 -62q-70 -64 -177 -64q-124 0 -178 93zM484 231l224 24q-4 41 -30 67.5t-73 26.5
q-51 0 -82.5 -31t-38.5 -87zM259 76q56 0 90.5 40t34.5 103q0 55 -31.5 89.5t-84.5 34.5q-56 0 -90.5 -40t-34.5 -103q0 -55 32 -89.5t84 -34.5z" />
    <glyph glyph-name="f_b.alt" horiz-adv-x="831" 
d="M124 337h-68l15 83h67l26 147q30 168 193 168q88 0 132 -51.5t28 -143.5l-33 -189q52 78 137 78q76 0 125 -56t49 -146q0 -103 -59.5 -169.5t-144.5 -66.5q-54 0 -95 28t-60 79l-13 -98h-100l96 545q18 105 -67 105q-40 0 -61 -22.5t-29 -72.5l-24 -135h97l-14 -83h-98
l-77 -434q-12 -71 -41.5 -93t-92.5 -22h-55l15 77h35q17 0 27 9t15 36zM566 77q57 0 91.5 41t34.5 106q0 54 -28.5 86t-77.5 32q-56 0 -92 -40t-36 -103q0 -54 29 -88t79 -34z" />
    <glyph glyph-name="f_f_b.alt" horiz-adv-x="1090" 
d="M124 337h-68l15 83h68l27 154q25 141 144 141q61 0 96 -38l-53 -67q-16 16 -39 16q-40 0 -50 -55l-27 -151h160l26 147q29 168 193 168q88 0 132 -51.5t28 -143.5l-34 -189q52 78 137 78q76 0 125 -56t49 -146q0 -103 -59.5 -169.5t-144.5 -66.5q-54 0 -95 28t-60 79
l-13 -98h-99l95 545q19 105 -67 105q-40 0 -61 -22.5t-29 -72.5l-24 -135h98l-15 -83h-98l-72 -411q-13 -71 -42 -93t-92 -22h-50l14 77h30q17 0 27 9.5t15 35.5l71 404h-160l-76 -434q-12 -71 -41.5 -93t-92.5 -22h-55l15 77h35q17 0 27 9t15 36zM824 77q57 0 91.5 41
t34.5 106q0 54 -28.5 86t-77.5 32q-56 0 -92 -40t-36 -103q0 -54 29 -88t79 -34z" />
    <glyph glyph-name="f_f_f_l.alt" horiz-adv-x="1053" 
d="M640 337h-159l-75 -424q-12 -71 -41.5 -93t-92.5 -22h-55l15 77h35q17 0 27 9t15 36l73 417h-160l-76 -434q-12 -71 -41.5 -93t-92.5 -22h-55l15 77h35q17 0 27 9t15 36l75 427h-68l15 83h68l27 154q25 141 144 141q61 0 96 -38l-53 -67q-16 16 -39 16q-40 0 -50 -55
l-27 -151h160l29 164q25 141 144 141q61 0 96 -38l-53 -67q-16 16 -39 16q-40 0 -50 -55l-29 -161h160l26 147q29 168 193 168q88 0 132 -51.5t28 -143.5l-77 -435q-4 -29 19 -29h41l-13 -76h-55q-59 0 -80 23.5t-11 83.5l77 438q19 105 -67 105q-40 0 -61 -22.5t-29 -72.5
l-24 -135h98l-15 -83h-98l-72 -411q-13 -71 -42 -93t-92 -22h-50l14 77h30q17 0 27 9.5t15 35.5z" />
    <glyph glyph-name="f_f_h.alt" horiz-adv-x="1069" 
d="M382 337h-160l-76 -434q-12 -71 -41.5 -93t-92.5 -22h-55l15 77h35q17 0 27 9t15 36l75 427h-68l15 83h68l27 154q25 141 144 141q61 0 96 -38l-53 -67q-16 16 -39 16q-40 0 -50 -55l-27 -151h160l26 147q29 168 193 168q88 0 132 -51.5t28 -143.5l-35 -195q53 84 140 84
q70 0 107 -53t22 -139l-24 -132q-4 -29 19 -29h34l-13 -76h-43q-57 0 -80.5 26.5t-13.5 83.5l21 122q9 52 -10 80t-63 28q-97 0 -116 -108l-41 -232h-99l96 545q19 105 -67 105q-40 0 -61 -22.5t-29 -72.5l-24 -135h98l-15 -83h-98l-72 -411q-13 -71 -42 -93t-92 -22h-50
l14 77h30q17 0 27 9.5t15 35.5z" />
    <glyph glyph-name="f_f_k.alt" horiz-adv-x="1028" 
d="M496 420h98l-15 -83h-98l-72 -411q-13 -71 -42 -93t-92 -22h-50l14 77h30q17 0 27 9.5t15 35.5l71 404h-160l-76 -434q-12 -71 -41.5 -93t-92.5 -22h-55l15 77h35q17 0 27 9t15 36l75 427h-68l15 83h68l27 154q25 141 144 141q61 0 96 -38l-53 -67q-16 16 -39 16
q-40 0 -50 -55l-27 -151h160l26 147q29 168 193 168q88 0 132 -52t28 -143l-42 -235q-3 -20 -19 -79l195 194h114l-178 -177l79 -144q13 -23 35 -23h29l-14 -76h-38q-40 0 -61 14.5t-41 52.5l-65 119l-67 -59l-23 -127h-99l96 545q19 105 -67 105q-40 0 -61 -22.5t-29 -72.5
z" />
    <glyph glyph-name="ffl.alt" horiz-adv-x="795" 
d="M382 337h-160l-76 -434q-12 -71 -41.5 -93t-92.5 -22h-55l15 77h35q17 0 27 9t15 36l75 427h-68l15 83h68l27 154q25 141 144 141q61 0 96 -38l-53 -67q-16 16 -39 16q-40 0 -50 -55l-27 -151h160l26 147q29 168 193 168q88 0 132 -51.5t28 -143.5l-77 -435
q-4 -29 19 -29h41l-13 -76h-55q-59 0 -80 23.5t-11 83.5l77 438q19 105 -67 105q-40 0 -61 -22.5t-29 -72.5l-24 -135h98l-15 -83h-98l-72 -411q-13 -71 -42 -93t-92 -22h-50l14 77h30q17 0 27 9.5t15 35.5z" />
    <glyph glyph-name="f_h.alt" horiz-adv-x="811" 
d="M124 337h-68l15 83h67l26 147q30 168 193 168q88 0 132 -52t28 -143l-35 -195q54 84 140 84q70 0 107 -53t22 -139l-23 -132q-6 -29 18 -29h35l-13 -76h-44q-114 0 -94 110l21 122q9 52 -10 80t-63 28q-96 0 -115 -108l-41 -232h-99l96 545q18 105 -67 105
q-40 0 -61 -22.5t-29 -72.5l-24 -135h97l-14 -83h-98l-77 -434q-12 -71 -41.5 -93t-92.5 -22h-55l15 77h35q17 0 27 9t15 36z" />
    <glyph glyph-name="f_k.alt" horiz-adv-x="770" 
d="M238 420h97l-14 -83h-98l-77 -434q-12 -71 -41.5 -93t-92.5 -22h-55l15 77h35q17 0 27 9t15 36l75 427h-68l15 83h67l26 147q30 168 193 168q88 0 132 -52t28 -143l-42 -235q-7 -42 -19 -79l195 194h115l-179 -177l20 -36l40 -72l20 -36q12 -23 34 -23h29l-13 -76h-38
q-41 0 -61.5 14.5t-40.5 52.5l-66 119l-67 -59l-22 -127h-99l96 545q18 105 -67 105q-40 0 -61 -22.5t-29 -72.5z" />
    <glyph glyph-name="fl.alt" horiz-adv-x="537" 
d="M124 337h-68l15 83h67l26 147q30 168 193 168q88 0 132 -52t28 -143l-77 -435q-4 -29 19 -29h42l-13 -76h-56q-60 0 -80.5 23.5t-9.5 83.5l77 438q18 105 -67 105q-40 0 -61 -22.5t-29 -72.5l-24 -135h97l-14 -83h-98l-77 -434q-12 -71 -41.5 -93t-92.5 -22h-55l15 77h35
q17 0 27 9t15 36z" />
    <glyph glyph-name="space.up" horiz-adv-x="219" 
 />
    <glyph glyph-name="hyphen.up" horiz-adv-x="304" 
d="M43 227l15 87h226l-15 -87h-226z" />
    <glyph glyph-name="endash.up" horiz-adv-x="443" 
d="M39 227l15 87h373l-15 -87h-373z" />
    <glyph glyph-name="emdash.up" horiz-adv-x="704" 
d="M39 227l15 87h635l-16 -87h-634z" />
    <glyph glyph-name="guilsinglleft.up" horiz-adv-x="264" 
d="M111 88l-68 156v8l121 168h102l-126 -174l70 -158h-99z" />
    <glyph glyph-name="guilsinglright.up" horiz-adv-x="263" 
d="M15 88l126 173l-70 159h99l69 -157v-8l-121 -167h-103z" />
    <glyph glyph-name="guillemotleft.up" horiz-adv-x="444" 
d="M291 88l-68 157v8l121 167h103l-127 -174l70 -158h-99zM112 88l-69 157l1 8l120 167h103l-126 -174l70 -158h-99z" />
    <glyph glyph-name="guillemotright.up" horiz-adv-x="443" 
d="M194 88l127 173l-70 159h99l68 -157v-8l-121 -167h-103zM15 88l126 173l-70 159h99l69 -157l-1 -8l-120 -167h-103z" />
    <glyph glyph-name="at.up" horiz-adv-x="883" 
d="M450 -115q-179 0 -287 107t-108 275q0 185 123 303t299 118q174 0 278.5 -102t104.5 -258q0 -120 -51 -180.5t-134 -60.5q-49 0 -81 22.5t-42 58.5q-45 -85 -131 -85q-75 0 -121.5 51.5t-46.5 132.5q0 92 52.5 150t127.5 58q94 0 128 -90l11 80h96l-40 -223
q-15 -84 51 -84q41 0 68.5 42.5t27.5 129.5q0 128 -82 205t-216 77q-143 0 -237 -97t-94 -248q0 -137 81.5 -222t223.5 -85q83 0 161 31l28 -69q-77 -37 -190 -37zM446 163q42 0 70 36t28 87q0 45 -25.5 76t-63.5 31q-45 0 -72.5 -33.5t-27.5 -91.5q0 -49 25 -77t66 -28z
" />
    <glyph glyph-name="A.sc" horiz-adv-x="518" 
d="M354 0l-22 84h-192l-49 -84h-100l311 519h11l142 -519h-101zM227 233l-42 -72h127l-16 65q-20 74 -20 107l-3 -7q-3 -6 -7 -16t-10 -22.5t-13.5 -27t-15.5 -27.5z" />
    <glyph glyph-name="B.sc" horiz-adv-x="483" 
d="M29 0l91 513h183q67 0 104.5 -36t37.5 -89q0 -44 -25 -75.5t-67 -42.5q86 -24 86 -110q0 -73 -49 -116.5t-134 -43.5h-227zM143 81h113q40 0 63 22.5t23 58.5q0 32 -17 50.5t-51 18.5h-105zM183 303h97q32 0 51 20t19 52q0 25 -15.5 41t-44.5 16h-86z" />
    <glyph glyph-name="C.sc" horiz-adv-x="557" 
d="M300 -9q-110 0 -180.5 72.5t-70.5 182.5q0 119 78.5 197t196.5 78q138 0 208 -106l-80 -55q-47 75 -131 75q-73 0 -120.5 -56t-47.5 -135q0 -76 42 -120.5t109 -44.5q81 0 130 64l76 -57q-75 -95 -210 -95z" />
    <glyph glyph-name="D.sc" horiz-adv-x="533" 
d="M29 0l91 513h143q109 0 174.5 -65.5t65.5 -172.5q0 -126 -80 -200.5t-210 -74.5h-184zM145 87h71q89 0 136.5 53.5t47.5 139.5q0 68 -37.5 107t-111.5 39h-46z" />
    <glyph glyph-name="E.sc" horiz-adv-x="457" 
d="M29 0l91 513h336l-15 -86h-236l-23 -127h205l-15 -82h-204l-23 -132h250l-15 -86h-351z" />
    <glyph glyph-name="F.sc" horiz-adv-x="438" 
d="M29 0l91 513h327l-16 -88h-226l-26 -151h205l-16 -87h-204l-34 -187h-101z" />
    <glyph glyph-name="G.sc" horiz-adv-x="577" 
d="M316 -9q-119 0 -193 71t-74 184q0 120 82.5 197.5t195.5 77.5q119 0 191 -75l-71 -66q-48 53 -123 53q-72 0 -122 -52t-50 -134q0 -77 43.5 -124t121.5 -47q50 0 100 23l15 86h-126l14 81h217l-40 -223q-75 -52 -181 -52z" />
    <glyph glyph-name="H.sc" horiz-adv-x="552" 
d="M29 0l91 513h101l-38 -216h219l38 216h101l-90 -513h-101l36 208h-219l-37 -208h-101z" />
    <glyph glyph-name="I.sc" horiz-adv-x="240" 
d="M33 0l91 513h101l-91 -513h-101z" />
    <glyph glyph-name="J.sc" horiz-adv-x="392" 
d="M152 -9q-55 0 -94 29t-56 71l82 42q24 -54 69 -54q55 0 66 67l64 367h101l-66 -379q-13 -76 -54 -109.5t-112 -33.5z" />
    <glyph glyph-name="K.sc" horiz-adv-x="513" 
d="M29 0l91 513h101l-31 -168q-10 -53 -30 -112q39 61 78 103l170 177h114l-218 -227l156 -286h-111l-119 220l-74 -73l-26 -147h-101z" />
    <glyph glyph-name="L.sc" horiz-adv-x="430" 
d="M29 0l91 513h101l-75 -426h229l-15 -87h-331z" />
    <glyph glyph-name="M.sc" horiz-adv-x="634" 
d="M29 0l92 519h9l191 -285l294 285h9l-91 -519h-97l37 209q3 17 6.5 35.5t6.5 31t5.5 22t2.5 10.5q-14 -28 -58 -72l-125 -127h-8l-83 125q-17 25 -46 84q0 -48 -11 -109l-37 -209h-97z" />
    <glyph glyph-name="N.sc" horiz-adv-x="542" 
d="M430 -7l-210 261q-31 37 -51 78q0 -58 -5 -84l-44 -248h-91l92 519h10l212 -263q12 -15 23.5 -34t17.5 -30l6 -12q0 50 7 89l43 244h91l-91 -520h-10z" />
    <glyph glyph-name="O.sc" horiz-adv-x="615" 
d="M304 -9q-108 0 -181.5 72.5t-73.5 182.5q0 122 81 198.5t198 76.5q108 0 182 -72t74 -181q0 -122 -82.5 -199.5t-197.5 -77.5zM307 80q75 0 124.5 54t49.5 137q0 72 -43.5 117t-112.5 45q-75 0 -124.5 -53t-49.5 -136q0 -73 43.5 -118.5t112.5 -45.5z" />
    <glyph glyph-name="P.sc" horiz-adv-x="478" 
d="M29 0l91 513h154q91 0 141.5 -40.5t50.5 -118.5q0 -93 -59 -140.5t-160 -47.5h-87l-30 -166h-101zM174 249h76q113 0 113 98q0 81 -98 81h-60z" />
    <glyph glyph-name="Q.sc" horiz-adv-x="615" 
d="M495 64l60 -81l-71 -50l-62 83q-58 -25 -118 -25q-108 0 -181.5 72.5t-73.5 182.5q0 122 81 198.5t198 76.5q108 0 182 -72t74 -181q0 -123 -89 -204zM370 86l-63 85l71 49l63 -84q40 51 40 135q0 72 -43.5 117t-112.5 45q-75 0 -124.5 -53t-49.5 -136q0 -74 44 -121
t112 -47q36 0 63 10z" />
    <glyph glyph-name="R.sc" horiz-adv-x="503" 
d="M329 0l-82 174h-86l-31 -174h-101l91 513h161q90 0 140.5 -40t50.5 -117q0 -65 -34 -108t-92 -61l90 -187h-107zM174 251h83q55 0 83 26t28 72q0 37 -24.5 58t-71.5 21h-67z" />
    <glyph glyph-name="S.sc" horiz-adv-x="431" 
d="M202 -9q-69 0 -121.5 31.5t-74.5 75.5l76 53q18 -30 49.5 -52t71.5 -22q77 0 77 59q0 22 -14.5 39.5t-51.5 40.5l-28 17q-52 33 -76.5 68t-24.5 80q0 59 42 99.5t117 40.5q101 0 152 -85l-72 -51q-33 54 -82 54q-26 0 -43 -15t-17 -38q0 -35 49 -66l28 -18q63 -39 92 -74
t29 -90q0 -68 -50.5 -107.5t-127.5 -39.5z" />
    <glyph glyph-name="T.sc" horiz-adv-x="457" 
d="M141 0l75 426h-147l15 87h397l-15 -87h-148l-74 -426h-103z" />
    <glyph glyph-name="U.sc" horiz-adv-x="532" 
d="M249 -8q-95 0 -149.5 59t-37.5 152l54 310h101l-56 -318q-10 -55 15 -84.5t77 -29.5q95 0 113 104l57 328h101l-60 -345q-16 -87 -71.5 -131.5t-143.5 -44.5z" />
    <glyph glyph-name="V.sc" horiz-adv-x="514" 
d="M222 -7l-143 520h105l53 -226q17 -64 17 -127q1 4 7 21t19 47t26 53l132 232h105l-311 -520h-10z" />
    <glyph glyph-name="W.sc" horiz-adv-x="728" 
d="M177 -7l-98 520h104l34 -215q11 -59 11 -114q21 62 49 107l136 227h10l55 -232q17 -65 17 -108q23 69 42 106l118 229h102l-277 -520h-10l-60 261q-19 65 -19 102l-3 -6q-2 -7 -6.5 -17t-9.5 -21.5t-12 -25.5t-14 -25l-159 -268h-10z" />
    <glyph glyph-name="X.sc" horiz-adv-x="519" 
d="M-7 0l221 281l-99 232h110l35 -89q5 -13 25 -93q11 32 54 92l64 90h110l-180 -232l121 -281h-110l-55 133q-8 19 -14.5 41.5t-9 36t-2.5 15.5q-26 -53 -53 -88l-106 -138h-111z" />
    <glyph glyph-name="Y.sc" horiz-adv-x="491" 
d="M155 0l34 189l-118 324h110l48 -143q5 -15 24 -110q1 3 9 20t23 43.5t28 45.5l99 144h106l-228 -328l-33 -185h-102z" />
    <glyph glyph-name="Z.sc" horiz-adv-x="478" 
d="M3 0v10l311 416h-211l15 87h364v-10l-311 -417h237l-15 -86h-390z" />
    <glyph glyph-name="Oslash.sc" horiz-adv-x="615" 
d="M545 407q39 -61 39 -139q0 -122 -82.5 -199.5t-197.5 -77.5q-95 0 -166 58l-67 -59l-50 55l68 60q-40 62 -40 141q0 122 81 198.5t198 76.5q96 0 167 -58l66 58l50 -56zM163 170l263 232q-41 33 -101 33q-76 0 -125.5 -53.5t-49.5 -137.5q0 -38 13 -74zM470 341
l-263 -231q42 -32 100 -32q76 0 125.5 54.5t49.5 138.5q0 39 -12 70z" />
    <glyph glyph-name="AE.sc" horiz-adv-x="754" 
d="M-17 0l443 513h328l-15 -86h-236l-22 -127h204l-14 -82h-205l-23 -132h251l-16 -86h-350l14 82h-178l-68 -82h-113zM228 157h128l22 124q4 28 27 105q-4 -7 -26.5 -41.5t-38.5 -54.5z" />
    <glyph glyph-name="OE.sc" horiz-adv-x="764" 
d="M294 0q-112 0 -178.5 65.5t-66.5 170.5q0 125 79.5 201t207.5 76h426l-15 -86h-236l-22 -127h204l-14 -82h-205l-23 -132h250l-15 -86h-392zM299 86h53l59 341h-77q-88 0 -135 -53.5t-47 -139.5q0 -69 37 -108.5t110 -39.5z" />
    <glyph glyph-name="Eth.sc" horiz-adv-x="534" 
d="M30 0l38 215h-49l15 84h49l38 214h143q109 0 174.5 -65.5t65.5 -172.5q0 -126 -80 -200.5t-210 -74.5h-184zM145 87h71q89 0 136.5 53.5t47.5 139.5q0 68 -37.5 107t-111.5 39h-46l-23 -127h110l-15 -84h-110z" />
    <glyph glyph-name="Dcroat.sc" horiz-adv-x="534" 
d="M30 0l38 215h-49l15 84h49l38 214h143q109 0 174.5 -65.5t65.5 -172.5q0 -126 -80 -200.5t-210 -74.5h-184zM145 87h71q89 0 136.5 53.5t47.5 139.5q0 68 -37.5 107t-111.5 39h-46l-23 -127h110l-15 -84h-110z" />
    <glyph glyph-name="dotlessi.sc" horiz-adv-x="240" 
d="M33 0l91 513h101l-91 -513h-101z" />
    <glyph glyph-name="Aacute.sc" horiz-adv-x="518" 
d="M268 580l89 191h120l-131 -191h-78zM354 0l-22 84h-192l-49 -84h-100l311 519h11l142 -519h-101zM227 233l-42 -72h127l-16 65q-20 74 -20 107l-3 -7q-3 -6 -7 -16t-10 -22.5t-13.5 -27t-15.5 -27.5z" />
    <glyph glyph-name="Abreve.sc" horiz-adv-x="518" 
d="M354 0l-22 84h-192l-49 -84h-100l311 519h11l142 -519h-101zM227 233l-42 -72h127l-16 65q-20 74 -20 107l-3 -7q-3 -6 -7 -16t-10 -22.5t-13.5 -27t-15.5 -27.5zM321 574q-61 0 -97.5 36t-40.5 92l78 12q9 -65 60 -65q54 0 71 65l76 -13q-10 -56 -48.5 -91.5
t-98.5 -35.5z" />
    <glyph glyph-name="Acircumflex.sc" horiz-adv-x="518" 
d="M164 572l175 205h10l106 -205h-78l-50 91l-79 -91h-84zM354 0l-22 84h-192l-49 -84h-100l311 519h11l142 -519h-101zM227 233l-42 -72h127l-16 65q-20 74 -20 107l-3 -7q-3 -6 -7 -16t-10 -22.5t-13.5 -27t-15.5 -27.5z" />
    <glyph glyph-name="Adieresis.sc" horiz-adv-x="518" 
d="M410 584q-23 0 -41 17.5t-18 41.5t18 42t41 18t40.5 -17.5t17.5 -42.5t-17 -42t-41 -17zM227 584q-23 0 -40.5 17.5t-17.5 41.5t17.5 42t40.5 18t41 -17.5t18 -42.5q0 -24 -17.5 -41.5t-41.5 -17.5zM354 0l-22 84h-192l-49 -84h-100l311 519h11l142 -519h-101zM227 233
l-42 -72h127l-16 65q-20 74 -20 107l-3 -7q-3 -6 -7 -16t-10 -22.5t-13.5 -27t-15.5 -27.5z" />
    <glyph glyph-name="Agrave.sc" horiz-adv-x="518" 
d="M354 0l-22 84h-192l-49 -84h-100l311 519h11l142 -519h-101zM227 233l-42 -72h127l-16 65q-20 74 -20 107l-3 -7q-3 -6 -7 -16t-10 -22.5t-13.5 -27t-15.5 -27.5zM268 580l-89 191h115l50 -191h-76z" />
    <glyph glyph-name="Amacron.sc" horiz-adv-x="518" 
d="M190 598l14 74h244l-14 -74h-244zM354 0l-22 84h-192l-49 -84h-100l311 519h11l142 -519h-101zM227 233l-42 -72h127l-16 65q-20 74 -20 107l-3 -7q-3 -6 -7 -16t-10 -22.5t-13.5 -27t-15.5 -27.5z" />
    <glyph glyph-name="Aogonek.sc" horiz-adv-x="518" 
d="M451 14l-60 -75q-24 -30 -32.5 -45.5t-8.5 -35.5q0 -17 10 -26.5t26 -9.5q24 0 47 32l52 -30q-33 -60 -103 -60q-42 0 -71.5 23.5t-29.5 66.5q0 57 57 110l39 36h-23l-22 84h-192l-49 -84h-100l311 519h11zM227 233l-42 -72h127l-16 65q-20 74 -20 107l-3 -7
q-3 -6 -7 -16t-10 -22.5t-13.5 -27t-15.5 -27.5z" />
    <glyph glyph-name="Aring.sc" horiz-adv-x="518" 
d="M320 557q-48 0 -81 32t-33 77q0 46 33 78t81 32q49 0 82 -32t33 -78q0 -45 -33.5 -77t-81.5 -32zM320 615q21 0 34.5 14t13.5 37q0 24 -13.5 38t-34.5 14t-34.5 -14t-13.5 -38q0 -23 13.5 -37t34.5 -14zM354 0l-22 84h-192l-49 -84h-100l311 519h11l142 -519h-101z
M227 233l-42 -72h127l-16 65q-20 74 -20 107l-3 -7q-3 -6 -7 -16t-10 -22.5t-13.5 -27t-15.5 -27.5z" />
    <glyph glyph-name="Atilde.sc" horiz-adv-x="518" 
d="M354 0l-22 84h-192l-49 -84h-100l311 519h11l142 -519h-101zM227 233l-42 -72h127l-16 65q-20 74 -20 107l-3 -7q-3 -6 -7 -16t-10 -22.5t-13.5 -27t-15.5 -27.5zM229 585l-68 8q9 61 36.5 93t66.5 32q30 0 63 -26q5 -3 11.5 -8.5t10 -8.5t8 -6t8.5 -4t8 -1q25 0 36 53
l68 -7q-8 -61 -35.5 -93t-66.5 -32q-33 0 -64 26q-4 3 -11 8.5t-10 8t-7.5 5.5t-8.5 4t-8 1q-25 0 -37 -53z" />
    <glyph glyph-name="Cacute.sc" horiz-adv-x="557" 
d="M299 580l89 191h120l-131 -191h-78zM300 -9q-110 0 -180.5 72.5t-70.5 182.5q0 119 78.5 197t196.5 78q138 0 208 -106l-80 -55q-47 75 -131 75q-73 0 -120.5 -56t-47.5 -135q0 -76 42 -120.5t109 -44.5q81 0 130 64l76 -57q-75 -95 -210 -95z" />
    <glyph glyph-name="Ccaron.sc" horiz-adv-x="558" 
d="M336 563l-106 205h78l50 -91l79 91h84l-175 -205h-10zM300 -9q-110 0 -180.5 72.5t-70.5 182.5q0 119 78.5 197t196.5 78q138 0 208 -106l-80 -55q-47 75 -131 75q-73 0 -120.5 -56t-47.5 -135q0 -76 42 -120.5t109 -44.5q81 0 130 64l76 -57q-75 -95 -210 -95z" />
    <glyph glyph-name="Ccedilla.sc" horiz-adv-x="558" 
d="M239 -236q-80 0 -109 61l53 29q17 -33 51 -33q20 0 31.5 11.5t11.5 30.5q0 43 -47 43h-28l17 98q-77 24 -123 89.5t-46 152.5q0 119 79 197t197 78q139 0 207 -107l-81 -53q-46 74 -129 74q-73 0 -120.5 -56t-47.5 -135q0 -76 41.5 -120.5t106.5 -44.5q82 0 133 64
l75 -57q-81 -95 -211 -95q-9 0 -25 2l-6 -40q30 -5 51.5 -29t21.5 -62q0 -45 -30 -71.5t-73 -26.5z" />
    <glyph glyph-name="Ccircumflex.sc" horiz-adv-x="557" 
d="M195 572l175 205h10l106 -205h-78l-50 91l-79 -91h-84zM300 -9q-110 0 -180.5 72.5t-70.5 182.5q0 119 78.5 197t196.5 78q138 0 208 -106l-80 -55q-47 75 -131 75q-73 0 -120.5 -56t-47.5 -135q0 -76 42 -120.5t109 -44.5q81 0 130 64l76 -57q-75 -95 -210 -95z" />
    <glyph glyph-name="Cdotaccent.sc" horiz-adv-x="558" 
d="M300 -9q-110 0 -180.5 72.5t-70.5 182.5q0 119 78.5 197t196.5 78q138 0 208 -106l-80 -55q-47 75 -131 75q-73 0 -120.5 -56t-47.5 -135q0 -76 42 -120.5t109 -44.5q81 0 130 64l76 -57q-75 -95 -210 -95zM354 579q-26 0 -45 18.5t-19 46.5t18.5 46t45.5 18t46 -18
t19 -46q0 -29 -19 -47t-46 -18z" />
    <glyph glyph-name="Dcaron.sc" horiz-adv-x="533" 
d="M29 0l91 513h143q109 0 174.5 -65.5t65.5 -172.5q0 -126 -80 -200.5t-210 -74.5h-184zM145 87h71q89 0 136.5 53.5t47.5 139.5q0 68 -37.5 107t-111.5 39h-46zM295 563l-106 205h78l50 -91l79 91h84l-175 -205h-10z" />
    <glyph glyph-name="Eacute.sc" horiz-adv-x="457" 
d="M29 0l91 513h336l-15 -86h-236l-23 -127h205l-15 -82h-204l-23 -132h250l-15 -86h-351zM249 580l89 191h120l-131 -191h-78z" />
    <glyph glyph-name="Ecaron.sc" horiz-adv-x="457" 
d="M287 563l-106 205h78l50 -91l79 91h84l-175 -205h-10zM29 0l91 513h336l-15 -86h-236l-23 -127h205l-15 -82h-204l-23 -132h250l-15 -86h-351z" />
    <glyph glyph-name="Ecircumflex.sc" horiz-adv-x="457" 
d="M147 572l175 205h10l106 -205h-78l-50 91l-79 -91h-84zM29 0l91 513h336l-15 -86h-236l-23 -127h205l-15 -82h-204l-23 -132h250l-15 -86h-351z" />
    <glyph glyph-name="Edieresis.sc" horiz-adv-x="457" 
d="M397 584q-23 0 -41 17.5t-18 41.5t18 42t41 18t40.5 -17.5t17.5 -42.5t-17.5 -42t-40.5 -17zM214 584q-23 0 -40.5 17.5t-17.5 41.5t17.5 42t40.5 18q24 0 41.5 -17.5t17.5 -42.5q0 -24 -17.5 -41.5t-41.5 -17.5zM29 0l91 513h336l-15 -86h-236l-23 -127h205l-15 -82
h-204l-23 -132h250l-15 -86h-351z" />
    <glyph glyph-name="Edotaccent.sc" horiz-adv-x="457" 
d="M29 0l91 513h336l-15 -86h-236l-23 -127h205l-15 -82h-204l-23 -132h250l-15 -86h-351zM303 579q-26 0 -45 18.5t-19 46.5t18.5 46t45.5 18t46 -18t19 -46q0 -29 -19 -47t-46 -18z" />
    <glyph glyph-name="Egrave.sc" horiz-adv-x="457" 
d="M29 0l91 513h336l-15 -86h-236l-23 -127h205l-15 -82h-204l-23 -132h250l-15 -86h-351zM249 580l-89 191h115l50 -191h-76z" />
    <glyph glyph-name="Emacron.sc" horiz-adv-x="457" 
d="M29 0l91 513h336l-15 -86h-236l-23 -127h205l-15 -82h-204l-23 -132h250l-15 -86h-351zM175 598l14 74h244l-14 -74h-244z" />
    <glyph glyph-name="Eogonek.sc" horiz-adv-x="457" 
d="M271 -236q-41 0 -70.5 23.5t-29.5 66.5q0 56 56 110l39 36h-237l91 513h336l-15 -86h-236l-23 -127h205l-15 -82h-204l-23 -132h250l-15 -86h-50l-50 -61q-23 -29 -31.5 -45t-8.5 -36q0 -17 10 -26.5t26 -9.5q25 0 46 32l53 -30q-33 -60 -104 -60z" />
    <glyph glyph-name="Gbreve.sc" horiz-adv-x="577" 
d="M316 -9q-119 0 -193 71t-74 184q0 120 82.5 197.5t195.5 77.5q119 0 191 -75l-71 -66q-48 53 -123 53q-72 0 -122 -52t-50 -134q0 -77 43.5 -124t121.5 -47q50 0 100 23l15 86h-126l14 81h217l-40 -223q-75 -52 -181 -52zM355 578q-61 0 -97.5 36t-40.5 92l78 12
q9 -65 60 -65q54 0 71 65l76 -13q-10 -56 -48.5 -91.5t-98.5 -35.5z" />
    <glyph glyph-name="Gcircumflex.sc" horiz-adv-x="577" 
d="M197 572l175 205h10l106 -205h-78l-50 91l-79 -91h-84zM316 -9q-119 0 -193 71t-74 184q0 120 82.5 197.5t195.5 77.5q119 0 191 -75l-71 -66q-48 53 -123 53q-72 0 -122 -52t-50 -134q0 -77 43.5 -124t121.5 -47q50 0 100 23l15 86h-126l14 81h217l-40 -223
q-75 -52 -181 -52z" />
    <glyph glyph-name="Gcommaaccent.sc" horiz-adv-x="579" 
d="M167 -269l48 100q-34 17 -34 57q0 26 19 43.5t44 17.5q26 0 44 -17t18 -43q0 -32 -25 -66l-63 -92h-51zM316 -9q-119 0 -193 71t-74 184q0 120 82.5 197.5t195.5 77.5q119 0 191 -75l-71 -66q-48 53 -123 53q-72 0 -122 -52t-50 -134q0 -77 43.5 -124t121.5 -47
q50 0 100 23l15 86h-126l14 81h217l-40 -223q-75 -52 -181 -52z" />
    <glyph glyph-name="Gdotaccent.sc" horiz-adv-x="579" 
d="M356 579q-26 0 -45 18.5t-19 46.5t18.5 46t45.5 18t46 -18t19 -46q0 -29 -19 -47t-46 -18zM316 -9q-119 0 -193 71t-74 184q0 120 82.5 197.5t195.5 77.5q119 0 191 -75l-71 -66q-48 53 -123 53q-72 0 -122 -52t-50 -134q0 -77 43.5 -124t121.5 -47q50 0 100 23l15 86
h-126l14 81h217l-40 -223q-75 -52 -181 -52z" />
    <glyph glyph-name="Hbar.sc" horiz-adv-x="552" 
d="M30 357l12 66h62l16 90h101l-16 -90h219l16 90h101l-16 -90h62l-11 -66h-63l-62 -357h-101l36 208h-219l-37 -208h-101l63 357h-62zM182 292h219l11 65h-219z" />
    <glyph glyph-name="Hcircumflex.sc" horiz-adv-x="552" 
d="M193 572l175 205h10l106 -205h-78l-50 91l-79 -91h-84zM29 0l91 513h101l-38 -216h219l38 216h101l-90 -513h-101l36 208h-219l-37 -208h-101z" />
    <glyph glyph-name="Iacute.sc" horiz-adv-x="240" 
d="M142 580l89 191h120l-131 -191h-78zM33 0l91 513h101l-91 -513h-101z" />
    <glyph glyph-name="Icircumflex.sc" horiz-adv-x="240" 
d="M39 572l175 205h10l106 -205h-78l-50 91l-79 -91h-84zM33 0l91 513h101l-91 -513h-101z" />
    <glyph glyph-name="Idieresis.sc" horiz-adv-x="240" 
d="M289 584q-23 0 -41 17.5t-18 41.5t18 42t41 18t40.5 -17.5t17.5 -42.5t-17.5 -42t-40.5 -17zM106 584q-23 0 -40.5 17.5t-17.5 41.5t17.5 42t40.5 18q24 0 41.5 -17.5t17.5 -42.5q0 -24 -17.5 -41.5t-41.5 -17.5zM33 0l91 513h101l-91 -513h-101z" />
    <glyph glyph-name="Idotaccent.sc" horiz-adv-x="240" 
d="M33 0l91 513h101l-91 -513h-101zM194 579q-26 0 -45 18.5t-19 46.5t18.5 46t45.5 18t46 -18t19 -46q0 -29 -19 -47t-46 -18z" />
    <glyph glyph-name="Igrave.sc" horiz-adv-x="240" 
d="M33 0l91 513h101l-91 -513h-101zM143 580l-89 191h115l50 -191h-76z" />
    <glyph glyph-name="Imacron.sc" horiz-adv-x="240" 
d="M68 598l14 74h244l-14 -74h-244zM33 0l91 513h101l-91 -513h-101z" />
    <glyph glyph-name="Iogonek.sc" horiz-adv-x="240" 
d="M59 0h-26l91 513h101l-87 -492l-65 -81q-24 -30 -32.5 -46t-8.5 -36q0 -17 10 -26.5t26 -9.5q24 0 47 32l52 -30q-33 -60 -103 -60q-42 0 -71.5 23.5t-29.5 66.5q0 57 57 110z" />
    <glyph glyph-name="Jcircumflex.sc" horiz-adv-x="392" 
d="M193 572l175 205h10l106 -205h-78l-50 91l-79 -91h-84zM152 -9q-55 0 -94 29t-56 71l82 42q24 -54 69 -54q55 0 66 67l64 367h101l-66 -379q-13 -76 -54 -109.5t-112 -33.5z" />
    <glyph glyph-name="Kcommaaccent.sc" horiz-adv-x="513" 
d="M139 -269l48 100q-34 17 -34 57q0 26 19 43.5t44 17.5q26 0 44 -17t18 -43q0 -32 -25 -66l-63 -92h-51zM29 0l91 513h101l-31 -168q-10 -53 -30 -112q39 61 78 103l170 177h114l-218 -227l156 -286h-111l-119 220l-74 -73l-26 -147h-101z" />
    <glyph glyph-name="Lacute.sc" horiz-adv-x="430" 
d="M29 0l91 513h101l-75 -426h229l-15 -87h-331zM141 580l89 191h120l-131 -191h-78z" />
    <glyph glyph-name="Lcaron.sc" horiz-adv-x="430" 
d="M285 286l56 114q-36 18 -36 58q0 27 19 45.5t45 18.5q27 0 45 -18.5t18 -46.5q0 -29 -25 -64l-71 -107h-51zM29 0l91 513h101l-75 -426h229l-15 -87h-331z" />
    <glyph glyph-name="Lcommaaccent.sc" horiz-adv-x="430" 
d="M29 0l91 513h101l-75 -426h229l-15 -87h-331zM106 -269l48 100q-34 17 -34 57q0 26 19 43.5t44 17.5q26 0 44 -17t18 -43q0 -32 -25 -66l-63 -92h-51z" />
    <glyph glyph-name="Lslash.sc" horiz-adv-x="445" 
d="M45 0l27 149l-57 -18l15 87l57 19l48 276h102l-44 -241l144 48l-16 -88l-143 -48l-17 -97h229l-15 -87h-330z" />
    <glyph glyph-name="Nacute.sc" horiz-adv-x="542" 
d="M430 -7l-210 261q-31 37 -51 78q0 -58 -5 -84l-44 -248h-91l92 519h10l212 -263q25 -32 47 -76q0 50 7 89l43 244h91l-91 -520h-10zM279 580l89 191h120l-131 -191h-78z" />
    <glyph glyph-name="Ncaron.sc" horiz-adv-x="542" 
d="M430 -7l-210 261q-31 37 -51 78q0 -58 -5 -84l-44 -248h-91l92 519h10l212 -263q25 -32 47 -76q0 50 7 89l43 244h91l-91 -520h-10zM316 563l-106 205h78l50 -91l79 91h84l-175 -205h-10z" />
    <glyph glyph-name="Ncommaaccent.sc" horiz-adv-x="542" 
d="M430 -7l-210 261q-31 37 -51 78q0 -58 -5 -84l-44 -248h-91l92 519h10l212 -263q25 -32 47 -76q0 50 7 89l43 244h91l-91 -520h-10zM163 -269l48 100q-34 17 -34 57q0 26 19 43.5t44 17.5q26 0 44 -17t18 -43q0 -32 -25 -66l-63 -92h-51z" />
    <glyph glyph-name="Ntilde.sc" horiz-adv-x="542" 
d="M430 -7l-210 261q-31 37 -51 78q0 -58 -5 -84l-44 -248h-91l92 519h10l212 -263q12 -15 23.5 -34t17.5 -30l6 -12q0 50 7 89l43 244h91l-91 -520h-10zM241 585l-68 8q9 61 36.5 93t66.5 32q30 0 63 -26q5 -3 11.5 -8.5t10 -8.5t8 -6t8.5 -4t8 -1q25 0 36 53l68 -7
q-8 -61 -35.5 -93t-66.5 -32q-33 0 -64 26q-4 3 -11 8.5t-10 8t-7.5 5.5t-8.5 4t-8 1q-25 0 -37 -53z" />
    <glyph glyph-name="Oacute.sc" horiz-adv-x="615" 
d="M306 580l89 191h120l-131 -191h-78zM304 -9q-108 0 -181.5 72.5t-73.5 182.5q0 122 81 198.5t198 76.5q108 0 182 -72t74 -181q0 -122 -82.5 -199.5t-197.5 -77.5zM307 80q75 0 124.5 54t49.5 137q0 72 -43.5 117t-112.5 45q-75 0 -124.5 -53t-49.5 -136
q0 -73 43.5 -118.5t112.5 -45.5z" />
    <glyph glyph-name="Ocircumflex.sc" horiz-adv-x="615" 
d="M202 572l175 205h10l106 -205h-78l-50 91l-79 -91h-84zM304 -9q-108 0 -181.5 72.5t-73.5 182.5q0 122 81 198.5t198 76.5q108 0 182 -72t74 -181q0 -122 -82.5 -199.5t-197.5 -77.5zM307 80q75 0 124.5 54t49.5 137q0 72 -43.5 117t-112.5 45q-75 0 -124.5 -53
t-49.5 -136q0 -73 43.5 -118.5t112.5 -45.5z" />
    <glyph glyph-name="Odieresis.sc" horiz-adv-x="615" 
d="M454 584q-23 0 -41 17.5t-18 41.5t18 42t41 18t40.5 -17.5t17.5 -42.5t-17 -42t-41 -17zM271 584q-23 0 -40.5 17.5t-17.5 41.5t17.5 42t40.5 18t41 -17.5t18 -42.5q0 -24 -17.5 -41.5t-41.5 -17.5zM304 -9q-108 0 -181.5 72.5t-73.5 182.5q0 122 81 198.5t198 76.5
q108 0 182 -72t74 -181q0 -122 -82.5 -199.5t-197.5 -77.5zM307 80q75 0 124.5 54t49.5 137q0 72 -43.5 117t-112.5 45q-75 0 -124.5 -53t-49.5 -136q0 -73 43.5 -118.5t112.5 -45.5z" />
    <glyph glyph-name="Ograve.sc" horiz-adv-x="615" 
d="M307 580l-89 191h115l50 -191h-76zM304 -9q-108 0 -181.5 72.5t-73.5 182.5q0 122 81 198.5t198 76.5q108 0 182 -72t74 -181q0 -122 -82.5 -199.5t-197.5 -77.5zM307 80q75 0 124.5 54t49.5 137q0 72 -43.5 117t-112.5 45q-75 0 -124.5 -53t-49.5 -136
q0 -73 43.5 -118.5t112.5 -45.5z" />
    <glyph glyph-name="Ohungarumlaut.sc" horiz-adv-x="617" 
d="M374 580l94 191h106l-122 -191h-78zM216 580l93 191h107l-122 -191h-78zM304 -9q-108 0 -181.5 72.5t-73.5 182.5q0 122 81 198.5t198 76.5q108 0 182 -72t74 -181q0 -122 -82.5 -199.5t-197.5 -77.5zM307 80q75 0 124.5 54t49.5 137q0 72 -43.5 117t-112.5 45
q-75 0 -124.5 -53t-49.5 -136q0 -73 43.5 -118.5t112.5 -45.5z" />
    <glyph glyph-name="Omacron.sc" horiz-adv-x="615" 
d="M231 598l14 74h244l-14 -74h-244zM304 -9q-108 0 -181.5 72.5t-73.5 182.5q0 122 81 198.5t198 76.5q108 0 182 -72t74 -181q0 -122 -82.5 -199.5t-197.5 -77.5zM307 80q75 0 124.5 54t49.5 137q0 72 -43.5 117t-112.5 45q-75 0 -124.5 -53t-49.5 -136q0 -73 43.5 -118.5
t112.5 -45.5z" />
    <glyph glyph-name="Otilde.sc" horiz-adv-x="615" 
d="M304 -9q-108 0 -181.5 72.5t-73.5 182.5q0 122 81 198.5t198 76.5q108 0 182 -72t74 -181q0 -122 -82.5 -199.5t-197.5 -77.5zM307 80q75 0 124.5 54t49.5 137q0 72 -43.5 117t-112.5 45q-75 0 -124.5 -53t-49.5 -136q0 -73 43.5 -118.5t112.5 -45.5zM267 585l-68 8
q9 61 36.5 93t66.5 32q30 0 63 -26q5 -3 11.5 -8.5t10 -8.5t8 -6t8.5 -4t8 -1q25 0 36 53l68 -7q-8 -61 -35.5 -93t-66.5 -32q-33 0 -64 26q-4 3 -11 8.5t-10 8t-7.5 5.5t-8.5 4t-8 1q-25 0 -37 -53z" />
    <glyph glyph-name="Racute.sc" horiz-adv-x="503" 
d="M329 0l-82 174h-86l-31 -174h-101l91 513h161q90 0 140.5 -40t50.5 -117q0 -65 -34 -108t-92 -61l90 -187h-107zM174 251h83q55 0 83 26t28 72q0 37 -24.5 58t-71.5 21h-67zM246 580l89 191h120l-131 -191h-78z" />
    <glyph glyph-name="Rcaron.sc" horiz-adv-x="499" 
d="M329 0l-82 174h-86l-31 -174h-101l91 513h161q90 0 140.5 -40t50.5 -117q0 -65 -34 -108t-92 -61l90 -187h-107zM174 251h83q55 0 83 26t28 72q0 37 -24.5 58t-71.5 21h-67zM283 563l-106 205h78l50 -91l79 91h84l-175 -205h-10z" />
    <glyph glyph-name="Rcommaaccent.sc" horiz-adv-x="499" 
d="M329 0l-82 174h-86l-31 -174h-101l91 513h161q90 0 140.5 -40t50.5 -117q0 -65 -34 -108t-92 -61l90 -187h-107zM174 251h83q55 0 83 26t28 72q0 37 -24.5 58t-71.5 21h-67zM136 -269l48 100q-34 17 -34 57q0 26 19 43.5t44 17.5q26 0 44 -17t18 -43q0 -32 -25 -66
l-63 -92h-51z" />
    <glyph glyph-name="Sacute.sc" horiz-adv-x="431" 
d="M224 580l89 191h120l-131 -191h-78zM202 -9q-69 0 -121.5 31.5t-74.5 75.5l76 53q18 -30 49.5 -52t71.5 -22q77 0 77 59q0 22 -14.5 39.5t-51.5 40.5l-28 17q-52 33 -76.5 68t-24.5 80q0 59 42 99.5t117 40.5q101 0 152 -85l-72 -51q-33 54 -82 54q-26 0 -43 -15t-17 -38
q0 -35 49 -66l28 -18q63 -39 92 -74t29 -90q0 -68 -50.5 -107.5t-127.5 -39.5z" />
    <glyph glyph-name="Scaron.sc" horiz-adv-x="431" 
d="M261 563l-106 205h78l50 -91l79 91h84l-175 -205h-10zM202 -9q-69 0 -121.5 31.5t-74.5 75.5l76 53q18 -30 49.5 -52t71.5 -22q77 0 77 59q0 22 -14.5 39.5t-51.5 40.5l-28 17q-52 33 -76.5 68t-24.5 80q0 59 42 99.5t117 40.5q101 0 152 -85l-72 -51q-33 54 -82 54
q-26 0 -43 -15t-17 -38q0 -35 49 -66l28 -18q63 -39 92 -74t29 -90q0 -68 -50.5 -107.5t-127.5 -39.5z" />
    <glyph glyph-name="Scedilla.sc" horiz-adv-x="431" 
d="M161 -236q-80 0 -109 61l52 29q17 -33 51 -33q20 0 32 11.5t12 30.5q0 43 -48 43h-27l15 93q-47 11 -81.5 38.5t-51.5 60.5l76 53q18 -30 49.5 -52t71.5 -22q77 0 77 59q0 22 -14.5 39.5t-51.5 40.5l-28 17q-52 33 -76.5 68t-24.5 80q0 59 42 99.5t117 40.5
q101 0 152 -85l-72 -51q-33 54 -82 54q-26 0 -43 -15t-17 -38q0 -35 49 -66l28 -18q63 -39 92 -74t29 -90q0 -68 -50.5 -107.5t-127.5 -39.5h-6l-6 -38q30 -5 51.5 -29t21.5 -62q0 -45 -29.5 -71.5t-72.5 -26.5z" />
    <glyph glyph-name="Scircumflex.sc" horiz-adv-x="431" 
d="M120 572l175 205h10l106 -205h-78l-50 91l-79 -91h-84zM202 -9q-69 0 -121.5 31.5t-74.5 75.5l76 53q18 -30 49.5 -52t71.5 -22q77 0 77 59q0 22 -14.5 39.5t-51.5 40.5l-28 17q-52 33 -76.5 68t-24.5 80q0 59 42 99.5t117 40.5q101 0 152 -85l-72 -51q-33 54 -82 54
q-26 0 -43 -15t-17 -38q0 -35 49 -66l28 -18q63 -39 92 -74t29 -90q0 -68 -50.5 -107.5t-127.5 -39.5z" />
    <glyph glyph-name="Scommaaccent.sc" horiz-adv-x="431" 
d="M71 -269l48 100q-34 17 -34 57q0 26 19 43.5t44 17.5q26 0 44 -17t18 -43q0 -32 -25 -66l-63 -92h-51zM202 -9q-69 0 -121.5 31.5t-74.5 75.5l76 53q18 -30 49.5 -52t71.5 -22q77 0 77 59q0 22 -14.5 39.5t-51.5 40.5l-28 17q-52 33 -76.5 68t-24.5 80q0 59 42 99.5
t117 40.5q101 0 152 -85l-72 -51q-33 54 -82 54q-26 0 -43 -15t-17 -38q0 -35 49 -66l28 -18q63 -39 92 -74t29 -90q0 -68 -50.5 -107.5t-127.5 -39.5z" />
    <glyph glyph-name="Tcaron.sc" horiz-adv-x="458" 
d="M141 0l75 426h-147l15 87h397l-15 -87h-148l-74 -426h-103zM289 563l-106 205h78l50 -91l79 91h84l-175 -205h-10z" />
    <glyph glyph-name="uni021A.sc" horiz-adv-x="458" 
d="M141 0l75 426h-147l15 87h397l-15 -87h-148l-74 -426h-24l-8 -47q30 -5 51.5 -29t21.5 -62q0 -45 -29.5 -71.5t-72.5 -26.5q-80 0 -109 61l52 29q17 -33 51 -33q20 0 32 11.5t12 30.5q0 43 -48 43h-27l16 94h-21z" />
    <glyph glyph-name="Tcommaaccent.sc" horiz-adv-x="458" 
d="M141 0l75 426h-147l15 87h397l-15 -87h-148l-74 -426h-103zM99 -269l48 100q-34 17 -34 57q0 26 19 43.5t44 17.5q26 0 44 -17t18 -43q0 -32 -25 -66l-63 -92h-51z" />
    <glyph glyph-name="Thorn.sc" horiz-adv-x="472" 
d="M29 0l91 513h100l-13 -77h53q91 0 141.5 -39.5t50.5 -116.5q0 -91 -58.5 -138.5t-159.5 -47.5h-87l-17 -94h-101zM161 177h77q111 0 111 96q0 78 -98 78h-59z" />
    <glyph glyph-name="Uacute.sc" horiz-adv-x="532" 
d="M249 -8q-95 0 -149.5 59t-37.5 152l54 310h101l-56 -318q-10 -55 15 -84.5t77 -29.5q95 0 113 104l57 328h101l-60 -345q-16 -87 -71.5 -131.5t-143.5 -44.5zM289 580l89 191h120l-131 -191h-78z" />
    <glyph glyph-name="Ubreve.sc" horiz-adv-x="532" 
d="M249 -8q-95 0 -149.5 59t-37.5 152l54 310h101l-56 -318q-10 -55 15 -84.5t77 -29.5q95 0 113 104l57 328h101l-60 -345q-16 -87 -71.5 -131.5t-143.5 -44.5zM341 574q-61 0 -97.5 36t-40.5 92l78 12q9 -65 60 -65q54 0 71 65l76 -13q-10 -56 -48.5 -91.5t-98.5 -35.5z
" />
    <glyph glyph-name="Ucircumflex.sc" horiz-adv-x="532" 
d="M184 572l175 205h10l106 -205h-78l-50 91l-79 -91h-84zM249 -8q-95 0 -149.5 59t-37.5 152l54 310h101l-56 -318q-10 -55 15 -84.5t77 -29.5q95 0 113 104l57 328h101l-60 -345q-16 -87 -71.5 -131.5t-143.5 -44.5z" />
    <glyph glyph-name="Udieresis.sc" horiz-adv-x="532" 
d="M435 584q-23 0 -41 17.5t-18 41.5t18 42t41 18t40.5 -17.5t17.5 -42.5t-17.5 -42t-40.5 -17zM252 584q-23 0 -40.5 17.5t-17.5 41.5t17.5 42t40.5 18q24 0 41.5 -17.5t17.5 -42.5q0 -24 -17.5 -41.5t-41.5 -17.5zM249 -8q-95 0 -149.5 59t-37.5 152l54 310h101l-56 -318
q-10 -55 15 -84.5t77 -29.5q95 0 113 104l57 328h101l-60 -345q-16 -87 -71.5 -131.5t-143.5 -44.5z" />
    <glyph glyph-name="Ugrave.sc" horiz-adv-x="532" 
d="M249 -8q-95 0 -149.5 59t-37.5 152l54 310h101l-56 -318q-10 -55 15 -84.5t77 -29.5q95 0 113 104l57 328h101l-60 -345q-16 -87 -71.5 -131.5t-143.5 -44.5zM289 580l-89 191h115l50 -191h-76z" />
    <glyph glyph-name="Uhungarumlaut.sc" horiz-adv-x="532" 
d="M249 -8q-95 0 -149.5 59t-37.5 152l54 310h101l-56 -318q-10 -55 15 -84.5t77 -29.5q95 0 113 104l57 328h101l-60 -345q-16 -87 -71.5 -131.5t-143.5 -44.5zM356 580l94 191h106l-122 -191h-78zM198 580l93 191h107l-122 -191h-78z" />
    <glyph glyph-name="Umacron.sc" horiz-adv-x="532" 
d="M249 -8q-95 0 -149.5 59t-37.5 152l54 310h101l-56 -318q-10 -55 15 -84.5t77 -29.5q95 0 113 104l57 328h101l-60 -345q-16 -87 -71.5 -131.5t-143.5 -44.5zM213 598l14 74h244l-14 -74h-244z" />
    <glyph glyph-name="Uogonek.sc" horiz-adv-x="532" 
d="M214 -6q-81 12 -124 68.5t-28 140.5l54 310h101l-56 -318q-10 -55 15 -84.5t77 -29.5q95 0 113 104l57 328h101l-60 -345q-14 -79 -62 -123.5t-124 -51.5l-44 -54q-23 -28 -32 -44.5t-9 -36.5q0 -17 10 -26.5t26 -9.5q24 0 47 32l52 -30q-33 -60 -103 -60
q-42 0 -71.5 23.5t-29.5 66.5q0 57 57 110z" />
    <glyph glyph-name="Uring.sc" horiz-adv-x="532" 
d="M249 -8q-95 0 -149.5 59t-37.5 152l54 310h101l-56 -318q-10 -55 15 -84.5t77 -29.5q95 0 113 104l57 328h101l-60 -345q-16 -87 -71.5 -131.5t-143.5 -44.5zM336 550q-48 0 -81 32t-33 77q0 46 33 78t81 32q49 0 82 -32t33 -78q0 -45 -33.5 -77t-81.5 -32zM336 608
q21 0 34.5 14t13.5 37q0 24 -13.5 38t-34.5 14t-34.5 -14t-13.5 -38q0 -23 13.5 -37t34.5 -14z" />
    <glyph glyph-name="Yacute.sc" horiz-adv-x="491" 
d="M155 0l34 189l-118 324h110l48 -143q5 -15 24 -110q1 3 9 20t23 43.5t28 45.5l99 144h106l-228 -328l-33 -185h-102zM258 580l89 191h120l-131 -191h-78z" />
    <glyph glyph-name="Ydieresis.sc" horiz-adv-x="491" 
d="M155 0l34 189l-118 324h110l48 -143q5 -15 24 -110q1 3 9 20t23 43.5t28 45.5l99 144h106l-228 -328l-33 -185h-102zM406 584q-23 0 -41 17.5t-18 41.5t18 42t41 18t40.5 -17.5t17.5 -42.5t-17 -42t-41 -17zM223 584q-23 0 -40.5 17.5t-17.5 41.5t17.5 42t40.5 18
t41 -17.5t18 -42.5q0 -24 -17.5 -41.5t-41.5 -17.5z" />
    <glyph glyph-name="Zacute.sc" horiz-adv-x="478" 
d="M258 580l89 191h120l-131 -191h-78zM3 0v10l311 416h-211l15 87h364v-10l-311 -417h237l-15 -86h-390z" />
    <glyph glyph-name="Zcaron.sc" horiz-adv-x="477" 
d="M294 563l-106 205h78l50 -91l79 91h84l-175 -205h-10zM3 0v10l311 416h-211l15 87h364v-10l-311 -417h237l-15 -86h-390z" />
    <glyph glyph-name="Zdotaccent.sc" horiz-adv-x="477" 
d="M3 0v10l311 416h-211l15 87h364v-10l-311 -417h237l-15 -86h-390zM313 579q-26 0 -45 18.5t-19 46.5t18.5 46t45.5 18t46 -18t19 -46q0 -29 -19 -47t-46 -18z" />
    <glyph glyph-name="space.sc" horiz-adv-x="211" 
 />
    <glyph glyph-name="dollar.sc" horiz-adv-x="451" 
d="M155 -4q-61 10 -101 43t-59 75l79 39q30 -63 95 -79l27 153q-134 46 -134 153q0 66 49 103.5t127 37.5h9l18 101h54l-19 -108q81 -19 120 -86l-71 -47q-20 42 -62 57l-24 -136q76 -26 113 -64t37 -96q0 -75 -56.5 -113t-148.5 -38l-18 -107h-54zM222 69q95 5 95 68
q0 25 -15.5 41.5t-54.5 30.5zM234 446q-80 -2 -80 -60q0 -43 58 -66z" />
    <glyph glyph-name="cent.sc" horiz-adv-x="399" 
d="M232 73q39 3 70 32l57 -63q-56 -49 -135 -49h-6l-18 -105h-52l19 112q-60 17 -96 63.5t-36 112.5q0 84 56 138t142 56l17 98h52l-18 -103q64 -14 102 -65l-73 -54q-16 26 -44 36zM218 288q-38 -6 -61 -36t-23 -76q0 -68 48 -94z" />
    <glyph glyph-name="Euro.sc" horiz-adv-x="552" 
d="M375 281h-181q-3 -26 -3 -54h174l-12 -69h-148q25 -80 116 -80q69 0 115 63l73 -54q-71 -96 -192 -96q-81 0 -138.5 44.5t-78.5 122.5h-89l12 69h65q0 30 3 54h-58l12 69h60q28 78 92.5 124.5t146.5 46.5q128 0 189 -110l-82 -47q-39 69 -111 69q-84 0 -125 -83h172z" />
    <glyph glyph-name="sterling.sc" horiz-adv-x="497" 
d="M153 214h-81l12 69h53q-8 35 -8 67q0 77 47.5 124t129.5 47q113 0 164 -93l-81 -49q-16 30 -34.5 43t-47.5 13q-75 0 -75 -86q0 -31 6 -66h139l-12 -69h-118q4 -40 4 -60q0 -27 -6 -51q39 -23 73 -23q48 0 82 39l63 -60q-51 -68 -140 -68q-59 0 -116 44q-42 -44 -105 -44
q-44 0 -73 24.5t-29 62.5q0 40 29 63.5t73 23.5q32 0 61 -13q-1 25 -10 62zM151 85q-26 21 -47 21q-34 0 -34 -28t33 -28t48 35z" />
    <glyph glyph-name="yen.sc" horiz-adv-x="522" 
d="M325 199l-22 -33l-3 -18h149l-12 -69h-149l-14 -79h-101l14 79h-147l11 69h148l4 21l-10 30h-133l12 69h98l-80 245h107l50 -164q18 -62 18 -120q1 5 7 21.5t19.5 45.5t26.5 50l110 167h111l-167 -245h97l-11 -69h-133z" />
    <glyph glyph-name="florin.sc" horiz-adv-x="367" 
d="M112 209h-72l13 69h71l18 102q13 74 47.5 107.5t92.5 33.5q78 0 117 -61l-66 -52q-19 27 -46 27q-20 0 -31 -12.5t-17 -45.5l-17 -99h92l-13 -69h-92l-53 -303h-98z" />
    <glyph glyph-name="zero.sc" horiz-adv-x="545" 
d="M266 -9q-96 0 -157 67.5t-61 175.5q0 126 73 206.5t177 80.5q98 0 158 -67t60 -176q0 -126 -72.5 -206.5t-177.5 -80.5zM269 80q62 0 102.5 56t40.5 144q0 72 -32 112.5t-86 40.5q-61 0 -102 -56.5t-41 -143.5q0 -72 32 -112.5t86 -40.5z" />
    <glyph glyph-name="one.sc" horiz-adv-x="290" 
d="M87 0l75 425h-98l15 88h199l-90 -513h-101z" />
    <glyph glyph-name="two.sc" horiz-adv-x="441" 
d="M-14 0v10l245 220q50 46 70 76t20 60q0 28 -18 46t-51 18q-71 0 -101 -82l-97 23q24 76 78 113t124 37q77 0 122.5 -42t45.5 -108q0 -50 -27 -93.5t-82 -92.5l-68 -60q-36 -31 -63 -45l28 3q29 3 40 3h138l-15 -86h-389z" />
    <glyph glyph-name="three.sc" horiz-adv-x="445" 
d="M206 -9q-77 0 -128 36t-72 88l86 40q31 -74 113 -74q46 0 73 26t27 67q0 40 -28.5 65t-80.5 25q-44 0 -66 -11l-5 8l113 124q10 11 23.5 22.5t21.5 16.5l8 6q-44 -4 -72 -4h-129l15 87h336v-10l-118 -135q-9 -11 -20.5 -21t-18.5 -15l-7 -5q50 -7 89.5 -49t39.5 -106
q0 -82 -54.5 -131.5t-145.5 -49.5z" />
    <glyph glyph-name="four.sc" horiz-adv-x="499" 
d="M264 0l13 76h-267l14 74l419 368h11l-64 -362h66l-15 -80h-65l-13 -76h-99zM123 150q37 4 69 4h102l18 100q4 24 18 78q-21 -28 -57 -60l-90 -81q-12 -11 -27 -21t-24 -15z" />
    <glyph glyph-name="five.sc" horiz-adv-x="442" 
d="M199 -9q-69 0 -119.5 31t-72.5 78l88 48q36 -67 104 -67q45 0 73.5 24.5t28.5 64.5q0 42 -28.5 65t-78.5 23q-64 0 -123 -37l-6 5l50 287h291l-15 -87h-205l-17 -100q30 10 61 10q78 0 126 -44.5t48 -120.5q0 -81 -57 -130.5t-148 -49.5z" />
    <glyph glyph-name="six.sc" horiz-adv-x="475" 
d="M232 -9q-83 0 -139.5 52.5t-56.5 128.5q0 81 65 158l156 183h117l-100 -119q-10 -12 -24.5 -25t-29 -24t-15.5 -12q29 16 65 16q65 0 115 -48t50 -119q0 -86 -56.5 -138.5t-146.5 -52.5zM232 79q46 0 73.5 29t27.5 72q0 41 -26 68t-69 27q-46 0 -74 -30t-28 -73
q0 -40 26.5 -66.5t69.5 -26.5z" />
    <glyph glyph-name="seven.sc" horiz-adv-x="447" 
d="M43 0l270 425h-242l17 88h385v-10l-317 -503h-113z" />
    <glyph glyph-name="eight.sc" horiz-adv-x="468" 
d="M222 -9q-85 0 -139 41.5t-54 109.5q0 52 34 89t91 52q-59 33 -59 98q0 59 48.5 99.5t127.5 40.5q76 0 119.5 -38t43.5 -96q0 -41 -25 -70.5t-69 -43.5q40 -18 62.5 -49.5t22.5 -69.5q0 -73 -58.5 -118t-144.5 -45zM225 73q45 0 72 25t27 64q0 36 -26.5 58.5t-66.5 22.5
q-44 0 -71.5 -24.5t-27.5 -64.5q0 -36 26 -58.5t67 -22.5zM262 311q31 0 52.5 19t21.5 49q0 29 -18.5 47.5t-49.5 18.5q-33 0 -55.5 -18.5t-22.5 -48.5t20 -48.5t52 -18.5z" />
    <glyph glyph-name="nine.sc" horiz-adv-x="475" 
d="M113 0l106 117q32 37 70 64q-34 -18 -63 -18q-67 0 -117 48t-50 119q0 85 57.5 138t144.5 53t141.5 -52t54.5 -128q0 -91 -71 -168l-157 -173h-116zM256 238q45 0 73.5 29.5t28.5 72.5q0 40 -26 67t-70 27q-47 0 -74 -30t-27 -72q0 -40 25.5 -67t69.5 -27z" />
    <glyph glyph-name="percent.sc" horiz-adv-x="826" 
d="M203 218q-64 0 -107 42t-43 104q0 68 47 112.5t112 44.5t107.5 -41t42.5 -103q0 -69 -47 -114t-112 -45zM169 0l410 513h97l-410 -513h-97zM632 -9q-64 0 -107 42.5t-43 104.5q0 68 47 112.5t112 44.5q64 0 107 -41t43 -103q0 -69 -47 -114.5t-112 -45.5zM204 292
q31 0 52.5 23t21.5 60q0 34 -18.5 53t-47.5 19q-31 0 -52.5 -22.5t-21.5 -59.5q0 -34 18.5 -53.5t47.5 -19.5zM633 66q31 0 52 23t21 60q0 34 -18 52.5t-47 18.5q-32 0 -53 -22.5t-21 -59.5q0 -33 18.5 -52.5t47.5 -19.5z" />
    <glyph glyph-name="perthousand.sc" horiz-adv-x="1176" 
d="M203 218q-64 0 -107 42t-43 104q0 68 47 112.5t112 44.5t107.5 -41t42.5 -103q0 -69 -47 -114t-112 -45zM169 0l410 513h97l-410 -513h-97zM983 -9q-64 0 -107 42.5t-43 104.5q0 68 47 112.5t112 44.5q64 0 106.5 -41t42.5 -103q0 -69 -46.5 -114.5t-111.5 -45.5zM632 -9
q-64 0 -107 42.5t-43 104.5q0 68 47 112.5t112 44.5q64 0 107 -41t43 -103q0 -69 -47 -114.5t-112 -45.5zM204 292q31 0 52.5 23t21.5 60q0 34 -18.5 53t-47.5 19q-31 0 -52.5 -22.5t-21.5 -59.5q0 -34 18.5 -53.5t47.5 -19.5zM984 66q31 0 52 23t21 60q0 34 -18 52.5
t-47 18.5q-32 0 -53 -22.5t-21 -59.5q0 -33 18.5 -52.5t47.5 -19.5zM633 66q31 0 52 23t21 60q0 34 -18 52.5t-47 18.5q-32 0 -53 -22.5t-21 -59.5q0 -33 18.5 -52.5t47.5 -19.5z" />
    <glyph glyph-name="plus.sc" horiz-adv-x="387" 
d="M239 218l-21 -119h-87l21 119h-111l15 84h111l21 119h87l-21 -119h111l-15 -84h-111z" />
    <glyph glyph-name="minus.sc" horiz-adv-x="386" 
d="M350 218h-309l15 84h309z" />
    <glyph glyph-name="multiply.sc" horiz-adv-x="396" 
d="M264 255l81 -98l-65 -55l-80 98l-111 -96l-53 60l112 97l-81 98l66 55l80 -98l114 99l52 -60z" />
    <glyph glyph-name="divide.sc" horiz-adv-x="386" 
d="M231 354q-26 0 -45 18.5t-19 46.5t19 46t45 18t44.5 -18t18.5 -46t-18.5 -46.5t-44.5 -18.5zM176 36q-26 0 -45 19t-19 46q0 28 19 46.5t45 18.5t44.5 -18.5t18.5 -46.5q0 -27 -18.5 -46t-44.5 -19zM41 218l15 84h309l-15 -84h-309z" />
    <glyph glyph-name="equal.sc" horiz-adv-x="382" 
d="M52 280l15 88h305l-15 -88h-305zM26 134l16 88h305l-16 -88h-305z" />
    <glyph glyph-name="less.sc" horiz-adv-x="352" 
d="M286 84l-251 154v11l307 153l-16 -92l-155 -71l130 -71z" />
    <glyph glyph-name="greater.sc" horiz-adv-x="352" 
d="M19 84l16 92l155 71l-129 71l14 84l251 -154v-11z" />
    <glyph glyph-name="degree.sc" horiz-adv-x="324" 
d="M191 277q-51 0 -87 34.5t-36 85.5q0 54 37.5 89t91.5 35q52 0 87.5 -33.5t35.5 -83.5q0 -54 -38 -90.5t-91 -36.5zM192 338q26 0 42.5 18t16.5 47q0 27 -15 42t-40 15q-26 0 -42.5 -18t-16.5 -46q0 -27 15 -42.5t40 -15.5z" />
    <glyph glyph-name="period.sc" horiz-adv-x="217" 
d="M84 -6q-27 0 -46.5 19t-19.5 48t19.5 48.5t46.5 19.5t46.5 -19.5t19.5 -48.5t-19.5 -48t-46.5 -19z" />
    <glyph glyph-name="comma.sc" horiz-adv-x="218" 
d="M-4 -113l59 116q-36 17 -36 60q0 28 19.5 47.5t46.5 19.5q28 0 47 -19.5t19 -48.5q0 -26 -26 -64l-77 -111h-52z" />
    <glyph glyph-name="colon.sc" horiz-adv-x="225" 
d="M127 222q-27 0 -46.5 19t-19.5 48t19.5 48.5t46.5 19.5q28 0 47.5 -19.5t19.5 -48.5t-19.5 -48t-47.5 -19zM88 -6q-28 0 -47.5 19t-19.5 48t20 48.5t47 19.5t46.5 -19.5t19.5 -48.5t-19.5 -48t-46.5 -19z" />
    <glyph glyph-name="semicolon.sc" horiz-adv-x="225" 
d="M127 222q-27 0 -46.5 19t-19.5 48t19.5 48.5t46.5 19.5q28 0 47.5 -19.5t19.5 -48.5t-19.5 -48t-47.5 -19zM-1 -113l59 116q-37 18 -37 60q0 28 19.5 47.5t47.5 19.5q27 0 46.5 -19.5t19.5 -48.5q0 -26 -26 -64l-77 -111h-52z" />
    <glyph glyph-name="parenleft.sc" horiz-adv-x="307" 
d="M177 -63q-120 156 -120 330q0 87 23.5 163t66 134t81.5 97t90 78l48 -55q-205 -178 -205 -422q0 -143 81 -285z" />
    <glyph glyph-name="parenright.sc" horiz-adv-x="307" 
d="M36 -63l-48 54q206 179 206 422q0 144 -82 285l66 41q119 -157 119 -331q0 -87 -23.5 -163t-66 -134t-81.5 -96.5t-90 -77.5z" />
    <glyph glyph-name="bracketleft.sc" horiz-adv-x="315" 
d="M20 -58l139 790h216l-14 -84h-117l-109 -622h116l-15 -84h-216z" />
    <glyph glyph-name="bracketright.sc" horiz-adv-x="314" 
d="M-14 -58l15 84h116l110 622h-116l14 84h216l-139 -790h-216z" />
    <glyph glyph-name="braceleft.sc" horiz-adv-x="386" 
d="M240 -59q-63 0 -100 36.5t-23 116.5l23 129q7 38 -3 51.5t-38 13.5h-60l15 84h57q31 0 46 14.5t22 57.5l27 151q14 77 51 107t95 30h91l-15 -84h-63q-26 0 -39.5 -12.5t-19.5 -46.5l-29 -167q-8 -49 -31 -69t-64 -26q74 -14 59 -104l-24 -136q-6 -34 3.5 -47.5
t37.5 -13.5h60l-15 -85h-63z" />
    </font>
</defs>
</svg>
